G04 #@! TF.FileFunction,Copper,L1,Top,Signal*
%FSLAX46Y46*%
G04 Gerber Fmt 4.6, Leading zero omitted, Abs format (unit mm)*
G04 Created by KiCad (PCBNEW 4.0.5) date 01/03/17 14:11:24*
%MOMM*%
%LPD*%
G01*
G04 APERTURE LIST*
%ADD10C,0.100000*%
%ADD11C,3.000000*%
%ADD12C,2.000000*%
%ADD13R,19.000000X25.000000*%
%ADD14C,1.900000*%
%ADD15O,1.727200X1.727200*%
%ADD16R,1.727200X1.727200*%
%ADD17R,1.000000X1.250000*%
%ADD18R,1.250000X1.500000*%
%ADD19R,1.198880X1.198880*%
%ADD20C,2.349500*%
%ADD21R,2.800000X2.200000*%
%ADD22C,1.750000*%
%ADD23C,1.524000*%
%ADD24C,2.540000*%
%ADD25R,1.300000X1.500000*%
%ADD26R,1.500000X1.300000*%
%ADD27R,1.700000X1.200000*%
%ADD28O,1.700000X1.200000*%
%ADD29C,2.100000*%
%ADD30R,1.060000X0.650000*%
%ADD31R,0.900000X0.800000*%
%ADD32C,1.500000*%
%ADD33C,0.750000*%
%ADD34C,0.500000*%
%ADD35C,0.500000*%
%ADD36C,1.000000*%
%ADD37C,0.250000*%
%ADD38C,1.500000*%
%ADD39C,0.254000*%
G04 APERTURE END LIST*
D10*
D11*
X154380000Y-59580000D03*
X159460000Y-59580000D03*
D12*
X167080000Y-59580000D03*
X169620000Y-59580000D03*
D13*
X162000000Y-43150000D03*
D11*
X133380000Y-59580000D03*
X138460000Y-59580000D03*
D12*
X146080000Y-59580000D03*
X148620000Y-59580000D03*
D13*
X141000000Y-43150000D03*
D14*
X149000000Y-96110000D03*
X146460000Y-96110000D03*
X143920000Y-96110000D03*
X141380000Y-96110000D03*
X138840000Y-96110000D03*
X136300000Y-96110000D03*
X133760000Y-96110000D03*
X131220000Y-96110000D03*
X128680000Y-96110000D03*
X126140000Y-96110000D03*
X123600000Y-96110000D03*
X121060000Y-96110000D03*
X149000000Y-113890000D03*
X146460000Y-113890000D03*
X143920000Y-113890000D03*
X141380000Y-113890000D03*
X138840000Y-113890000D03*
X136300000Y-113890000D03*
X133760000Y-113890000D03*
X131220000Y-113890000D03*
X128680000Y-113890000D03*
X126140000Y-113890000D03*
X123600000Y-113890000D03*
X121060000Y-113890000D03*
D15*
X160460000Y-121540000D03*
X163000000Y-121540000D03*
X160460000Y-119000000D03*
X163000000Y-119000000D03*
X160460000Y-116460000D03*
X163000000Y-116460000D03*
D16*
X160460000Y-113920000D03*
D15*
X163000000Y-113920000D03*
D17*
X161000000Y-110000000D03*
X163000000Y-110000000D03*
D18*
X130000000Y-66000000D03*
X130000000Y-68500000D03*
X140000000Y-69000000D03*
X140000000Y-71500000D03*
D19*
X123000000Y-54000000D03*
X123000000Y-51901960D03*
X128000000Y-54000000D03*
X128000000Y-51901960D03*
D20*
X155997480Y-68000000D03*
X150998760Y-68000000D03*
X166000000Y-68000000D03*
X170998720Y-68000000D03*
D21*
X151700000Y-136700000D03*
X144300000Y-144200000D03*
X151700000Y-146100000D03*
D12*
X148000000Y-145000000D03*
D21*
X151700000Y-148900000D03*
D12*
X148000000Y-138000000D03*
D22*
X180000000Y-58500000D03*
X180000000Y-62000000D03*
X177700000Y-60250000D03*
D23*
X180000000Y-65500000D03*
D22*
X136500000Y-78000000D03*
X140000000Y-78000000D03*
X138250000Y-80300000D03*
D24*
X184716000Y-94493000D03*
X184716000Y-89184400D03*
X157284000Y-89006600D03*
X157284000Y-79100600D03*
D25*
X142500000Y-118000000D03*
X142500000Y-120700000D03*
D26*
X174300000Y-106000000D03*
X177000000Y-106000000D03*
X177000000Y-109000000D03*
X174300000Y-109000000D03*
D25*
X123000000Y-61000000D03*
X123000000Y-58300000D03*
X128000000Y-61000000D03*
X128000000Y-58300000D03*
D27*
X184750000Y-102750000D03*
D28*
X184750000Y-104750000D03*
X184750000Y-106750000D03*
X184750000Y-108750000D03*
D29*
X122000000Y-32000000D03*
D22*
X123260000Y-34490000D03*
X127760000Y-34490000D03*
D29*
X129010000Y-32000000D03*
D30*
X139950000Y-140900000D03*
X139950000Y-139950000D03*
X139950000Y-139000000D03*
X137750000Y-139000000D03*
X137750000Y-140900000D03*
X140100000Y-145700000D03*
X140100000Y-144750000D03*
X140100000Y-143800000D03*
X137900000Y-143800000D03*
X137900000Y-145700000D03*
D31*
X133500000Y-66550000D03*
X133500000Y-68450000D03*
X135500000Y-67500000D03*
X143000000Y-69050000D03*
X143000000Y-70950000D03*
X145000000Y-70000000D03*
D32*
X180000000Y-70000000D03*
X180000000Y-54000000D03*
X134000000Y-121000000D03*
X122000000Y-90500000D03*
X123750000Y-92500000D03*
D25*
X127000000Y-125000000D03*
X127000000Y-127700000D03*
X131250000Y-125000000D03*
X131250000Y-127700000D03*
X160500000Y-134950000D03*
X160500000Y-132250000D03*
X158000000Y-134950000D03*
X158000000Y-132250000D03*
X163000000Y-134950000D03*
X163000000Y-132250000D03*
X155500000Y-134950000D03*
X155500000Y-132250000D03*
X165750000Y-134950000D03*
X165750000Y-132250000D03*
D33*
X124500000Y-61000000D03*
X123500000Y-50500000D03*
D32*
X153500000Y-139500000D03*
D34*
X139000000Y-145000000D03*
X141500000Y-138500000D03*
D33*
X123500000Y-86500000D03*
D34*
X132500000Y-140500000D03*
X136000000Y-140500000D03*
X134000000Y-145000000D03*
X137000000Y-145000000D03*
D33*
X144500000Y-120000000D03*
D32*
X160000000Y-102000000D03*
D33*
X144000010Y-104500000D03*
X142500076Y-104500000D03*
X121625001Y-84000000D03*
X144000000Y-107500000D03*
X155000000Y-104500000D03*
X128000000Y-86000000D03*
X154000000Y-98500000D03*
X154000000Y-100000000D03*
X126500000Y-61000000D03*
X128000000Y-83000000D03*
X157500000Y-100000000D03*
X142000000Y-106500000D03*
X123000000Y-63000000D03*
X128000000Y-84000000D03*
X156500000Y-99879010D03*
X142000000Y-105500000D03*
X132000000Y-130000000D03*
X136000000Y-135000000D03*
X137000000Y-138000000D03*
X136000000Y-144000000D03*
D34*
X159250000Y-123750000D03*
X157500000Y-123750000D03*
D33*
X157000000Y-118250000D03*
D34*
X156500000Y-115000000D03*
X146000000Y-119500000D03*
X149500000Y-121000028D03*
X156250000Y-116500000D03*
X145500000Y-120500000D03*
X148500000Y-121000000D03*
D35*
X130000000Y-68500000D02*
X125500000Y-68500000D01*
X125500000Y-68500000D02*
X123000000Y-71000000D01*
X135500000Y-67500000D02*
X131000000Y-67500000D01*
X131000000Y-67500000D02*
X130000000Y-68500000D01*
X140000000Y-71500000D02*
X140000000Y-71375000D01*
X140000000Y-71375000D02*
X136125000Y-67500000D01*
X136125000Y-67500000D02*
X135500000Y-67500000D01*
X124700000Y-62800000D02*
X124500000Y-63000000D01*
X124500000Y-61000000D02*
X124500000Y-63000000D01*
X123000000Y-51901960D02*
X124099440Y-51901960D01*
X124099440Y-51901960D02*
X128000000Y-51901960D01*
X123500000Y-50500000D02*
X123500000Y-51401960D01*
X123500000Y-51401960D02*
X123000000Y-51901960D01*
X148250000Y-62800000D02*
X124700000Y-62800000D01*
X151700000Y-136700000D02*
X151700000Y-137700000D01*
D36*
X151700000Y-137700000D02*
X153500000Y-139500000D01*
D37*
X140100000Y-143800000D02*
X139700000Y-143800000D01*
X139700000Y-143800000D02*
X139000000Y-144500000D01*
X139000000Y-144500000D02*
X139000000Y-145000000D01*
X139950000Y-139000000D02*
X141000000Y-139000000D01*
X141000000Y-139000000D02*
X141500000Y-138500000D01*
D35*
X148620000Y-62430000D02*
X148250000Y-62800000D01*
X169097056Y-61800000D02*
X149250000Y-61800000D01*
X149250000Y-61800000D02*
X148250000Y-62800000D01*
X169620000Y-59580000D02*
X169620000Y-61277056D01*
X169620000Y-61277056D02*
X169097056Y-61800000D01*
X148620000Y-59580000D02*
X148620000Y-62430000D01*
X145050000Y-70000000D02*
X145000000Y-70000000D01*
X161000000Y-110000000D02*
X161000000Y-113380000D01*
X161000000Y-113380000D02*
X160460000Y-113920000D01*
X141375000Y-70000000D02*
X145000000Y-70000000D01*
X140000000Y-71375000D02*
X141375000Y-70000000D01*
X124500000Y-63000000D02*
X123000000Y-64500000D01*
X123000000Y-64500000D02*
X123000000Y-71000000D01*
X123000000Y-71000000D02*
X123000000Y-86000000D01*
X123000000Y-86000000D02*
X123500000Y-86500000D01*
D37*
X136400000Y-140900000D02*
X136000000Y-140500000D01*
X137750000Y-140900000D02*
X136400000Y-140900000D01*
X137900000Y-145700000D02*
X137700000Y-145700000D01*
X137700000Y-145700000D02*
X137000000Y-145000000D01*
D35*
X142500000Y-120700000D02*
X143800000Y-120700000D01*
X143800000Y-120700000D02*
X144500000Y-120000000D01*
D38*
X160500000Y-87000000D02*
X161500000Y-88000000D01*
X157500000Y-84000000D02*
X160500000Y-87000000D01*
X157500000Y-83500000D02*
X157500000Y-84000000D01*
X157500000Y-81112651D02*
X157500000Y-83500000D01*
X157284000Y-79100600D02*
X157284000Y-80896651D01*
X157284000Y-80896651D02*
X157500000Y-81112651D01*
D35*
X133500000Y-66550000D02*
X130550000Y-66550000D01*
X130550000Y-66550000D02*
X130000000Y-66000000D01*
X133500000Y-66550000D02*
X137675000Y-66550000D01*
X137675000Y-66550000D02*
X140000000Y-68875000D01*
X140000000Y-68875000D02*
X140000000Y-69000000D01*
X157284000Y-79100600D02*
X147100600Y-79100600D01*
X147100600Y-79100600D02*
X145900001Y-77900001D01*
X145900001Y-77900001D02*
X145900001Y-69239999D01*
X145900001Y-69239999D02*
X145710002Y-69050000D01*
X145710002Y-69050000D02*
X143950000Y-69050000D01*
X143950000Y-69050000D02*
X143000000Y-69050000D01*
X163000000Y-110000000D02*
X163000000Y-113920000D01*
X140000000Y-69000000D02*
X142950000Y-69000000D01*
X142950000Y-69000000D02*
X143000000Y-69050000D01*
X146080000Y-59580000D02*
X143500000Y-57000000D01*
X143500000Y-57000000D02*
X132000000Y-57000000D01*
X132000000Y-57000000D02*
X129200001Y-59799999D01*
X129200001Y-59799999D02*
X124399999Y-59799999D01*
X124399999Y-59799999D02*
X123000000Y-58400000D01*
X123000000Y-58400000D02*
X123000000Y-58300000D01*
X123000000Y-58300000D02*
X123000000Y-54000000D01*
X165880001Y-58380001D02*
X167080000Y-59580000D01*
X163799990Y-56299990D02*
X165880001Y-58380001D01*
X131150010Y-56299990D02*
X163799990Y-56299990D01*
X129150000Y-58300000D02*
X131150010Y-56299990D01*
X128000000Y-58300000D02*
X129150000Y-58300000D01*
X128000000Y-58300000D02*
X128000000Y-54000000D01*
D36*
X180000000Y-70000000D02*
X180000000Y-89777000D01*
X180000000Y-89777000D02*
X184716000Y-94493000D01*
X170998720Y-68000000D02*
X178000000Y-68000000D01*
X178000000Y-68000000D02*
X180000000Y-70000000D01*
D35*
X144375009Y-104874999D02*
X144000010Y-104500000D01*
X151750000Y-116500000D02*
X151750000Y-112249990D01*
X143250000Y-125000000D02*
X151750000Y-116500000D01*
X143250000Y-139950000D02*
X143250000Y-125000000D01*
X151750000Y-112249990D02*
X144375009Y-104874999D01*
X139950000Y-139950000D02*
X143250000Y-139950000D01*
X143250000Y-139950000D02*
X147150000Y-139950000D01*
X147150000Y-139950000D02*
X151700000Y-144500000D01*
X151700000Y-144500000D02*
X151700000Y-146100000D01*
X135974031Y-143000000D02*
X134599987Y-141625956D01*
X142500076Y-104500050D02*
X142500076Y-104500000D01*
X151000000Y-112999974D02*
X142500076Y-104500050D01*
X151000000Y-116000000D02*
X151000000Y-112999974D01*
X136000000Y-133778996D02*
X136000000Y-131000000D01*
X134599987Y-135179009D02*
X136000000Y-133778996D01*
X142000000Y-143000000D02*
X135974031Y-143000000D01*
X142000000Y-144750000D02*
X142000000Y-143000000D01*
X134599987Y-141625956D02*
X134599987Y-135179009D01*
X136000000Y-131000000D02*
X151000000Y-116000000D01*
X142000000Y-144750000D02*
X140100000Y-144750000D01*
X143750000Y-144750000D02*
X142000000Y-144750000D01*
X144300000Y-144200000D02*
X143750000Y-144750000D01*
D36*
X180000000Y-58500000D02*
X184716000Y-63216000D01*
X184716000Y-63216000D02*
X184716000Y-89184400D01*
X180000000Y-58500000D02*
X180000000Y-54000000D01*
D35*
X121625001Y-80958259D02*
X121625001Y-84000000D01*
X144000000Y-107500000D02*
X146460000Y-109960000D01*
X146460000Y-109960000D02*
X146460000Y-113890000D01*
X153000000Y-90000000D02*
X153000000Y-102500000D01*
X153000000Y-102500000D02*
X155000000Y-104500000D01*
X149000000Y-86000000D02*
X153000000Y-90000000D01*
X128000000Y-86000000D02*
X149000000Y-86000000D01*
X121625001Y-54000000D02*
X121625001Y-80958259D01*
D37*
X142500000Y-118000000D02*
X142500000Y-117900000D01*
X142500000Y-117900000D02*
X146460000Y-113940000D01*
X146460000Y-113940000D02*
X146460000Y-113890000D01*
D35*
X121625001Y-53374999D02*
X121625001Y-53274999D01*
X121625001Y-54000000D02*
X121625001Y-46364963D01*
X121625001Y-54000000D02*
X121625001Y-53374999D01*
X127760000Y-35727436D02*
X127760000Y-34490000D01*
X127760000Y-40229964D02*
X127760000Y-35727436D01*
X121625001Y-46364963D02*
X127760000Y-40229964D01*
X154374999Y-98874999D02*
X154000000Y-98500000D01*
X154374999Y-98975011D02*
X154374999Y-98874999D01*
X156204011Y-100704011D02*
X156103999Y-100704011D01*
X176900000Y-106000000D02*
X175400000Y-107500000D01*
X175400000Y-107500000D02*
X163000000Y-107500000D01*
X177000000Y-106000000D02*
X176900000Y-106000000D01*
X163000000Y-107500000D02*
X156204011Y-100704011D01*
X156103999Y-100704011D02*
X154374999Y-98975011D01*
X180000000Y-106000000D02*
X181250000Y-104750000D01*
X181250000Y-104750000D02*
X184750000Y-104750000D01*
X177000000Y-106000000D02*
X180000000Y-106000000D01*
X177000000Y-109000000D02*
X184500000Y-109000000D01*
X184500000Y-109000000D02*
X184750000Y-108750000D01*
X173000000Y-109000000D02*
X172924999Y-108924999D01*
X162924999Y-108924999D02*
X162000000Y-108000000D01*
X172924999Y-108924999D02*
X162924999Y-108924999D01*
X173050000Y-109000000D02*
X174300000Y-109000000D01*
X154000000Y-100000000D02*
X162000000Y-108000000D01*
X174300000Y-109000000D02*
X173000000Y-109000000D01*
X126500000Y-61000000D02*
X128000000Y-61000000D01*
X150231798Y-84500000D02*
X130500000Y-84500000D01*
X130500000Y-84500000D02*
X129000000Y-83000000D01*
X129000000Y-83000000D02*
X128000000Y-83000000D01*
X157500000Y-99500000D02*
X157500000Y-91768202D01*
X157500000Y-91768202D02*
X150231798Y-84500000D01*
X157500000Y-100000000D02*
X157500000Y-99500000D01*
X138840000Y-110160000D02*
X138840000Y-109660000D01*
X138840000Y-109660000D02*
X142000000Y-106500000D01*
X138840000Y-113890000D02*
X138840000Y-110160000D01*
X123000000Y-63000000D02*
X123000000Y-61000000D01*
X149200010Y-85200010D02*
X129200010Y-85200010D01*
X129200010Y-85200010D02*
X128000000Y-84000000D01*
X156500000Y-92500000D02*
X149200010Y-85200010D01*
X156500000Y-99879010D02*
X156500000Y-92500000D01*
X136300000Y-110700000D02*
X141500000Y-105500000D01*
X141500000Y-105500000D02*
X142000000Y-105500000D01*
X136300000Y-113890000D02*
X136300000Y-110700000D01*
X136188996Y-141725000D02*
X135299998Y-140836002D01*
X138920000Y-141725000D02*
X136188996Y-141725000D01*
X139745000Y-140900000D02*
X138920000Y-141725000D01*
X139950000Y-140900000D02*
X139745000Y-140900000D01*
X135299998Y-140836002D02*
X135299998Y-135700002D01*
X135625001Y-135374999D02*
X136000000Y-135000000D01*
X135299998Y-135700002D02*
X135625001Y-135374999D01*
X131250000Y-127700000D02*
X131250000Y-129250000D01*
X131250000Y-129250000D02*
X132000000Y-130000000D01*
X137000000Y-138000000D02*
X137000000Y-138250000D01*
X137000000Y-138250000D02*
X137750000Y-139000000D01*
X137900000Y-143800000D02*
X136200000Y-143800000D01*
X136200000Y-143800000D02*
X136000000Y-144000000D01*
X139895000Y-145700000D02*
X139070000Y-146525000D01*
X133899976Y-134889055D02*
X134474987Y-134314044D01*
X133899976Y-143364978D02*
X133899976Y-134889055D01*
X137059998Y-146525000D02*
X133899976Y-143364978D01*
X139070000Y-146525000D02*
X137059998Y-146525000D01*
X140100000Y-145700000D02*
X139895000Y-145700000D01*
X134474987Y-134314044D02*
X133514044Y-134314044D01*
X133514044Y-134314044D02*
X127000000Y-127800000D01*
X127000000Y-127800000D02*
X127000000Y-127700000D01*
X124549999Y-114839999D02*
X123600000Y-113890000D01*
X135000000Y-125290000D02*
X124549999Y-114839999D01*
X135000000Y-133789031D02*
X135000000Y-125290000D01*
X134474987Y-134314044D02*
X135000000Y-133789031D01*
D37*
X163000000Y-132250000D02*
X163000000Y-132150000D01*
X163000000Y-132150000D02*
X164188601Y-130961399D01*
X164188601Y-130961399D02*
X164188601Y-120188601D01*
X164188601Y-120188601D02*
X163863599Y-119863599D01*
X163863599Y-119863599D02*
X163000000Y-119000000D01*
D35*
X158924999Y-110424999D02*
X149500000Y-101000000D01*
X133760000Y-96110000D02*
X138650000Y-101000000D01*
X138650000Y-101000000D02*
X149500000Y-101000000D01*
X163000000Y-119000000D02*
X161648601Y-117648601D01*
X158924999Y-116924999D02*
X158924999Y-110424999D01*
X159648601Y-117648601D02*
X158924999Y-116924999D01*
D37*
X161648601Y-117648601D02*
X159648601Y-117648601D01*
X158000000Y-132250000D02*
X158000000Y-125000000D01*
X158000000Y-125000000D02*
X159250000Y-123750000D01*
D35*
X160460000Y-121540000D02*
X158224989Y-119304989D01*
X158224989Y-119304989D02*
X158224989Y-110724989D01*
X158224989Y-110724989D02*
X149200010Y-101700010D01*
X149200010Y-101700010D02*
X136810010Y-101700010D01*
X136810010Y-101700010D02*
X131220000Y-96110000D01*
D37*
X155500000Y-132250000D02*
X155500000Y-125750000D01*
X155500000Y-125750000D02*
X157500000Y-123750000D01*
D35*
X157374999Y-110874999D02*
X157374999Y-117875001D01*
X157374999Y-117875001D02*
X157000000Y-118250000D01*
X128680000Y-96110000D02*
X134970020Y-102400020D01*
X148900020Y-102400020D02*
X157374999Y-110874999D01*
X134970020Y-102400020D02*
X148900020Y-102400020D01*
D37*
X165750000Y-132250000D02*
X165750000Y-119210000D01*
X165750000Y-119210000D02*
X163000000Y-116460000D01*
X148500000Y-103000000D02*
X133030000Y-103000000D01*
X133030000Y-103000000D02*
X126140000Y-96110000D01*
X156500000Y-111000000D02*
X148500000Y-103000000D01*
X156500000Y-115000000D02*
X156500000Y-111000000D01*
D35*
X126000000Y-79000000D02*
X126000000Y-86500000D01*
X126000000Y-86500000D02*
X122000000Y-90500000D01*
X133500000Y-71500000D02*
X126000000Y-79000000D01*
X133500000Y-68450000D02*
X133500000Y-71500000D01*
X122000000Y-95170000D02*
X121060000Y-96110000D01*
X122000000Y-90500000D02*
X122000000Y-95170000D01*
X123750000Y-92500000D02*
X127000000Y-89250000D01*
X127000000Y-79000000D02*
X133000000Y-73000000D01*
X127000000Y-89250000D02*
X127000000Y-79000000D01*
X133000000Y-73000000D02*
X140900000Y-73000000D01*
X140900000Y-73000000D02*
X142950000Y-70950000D01*
X142950000Y-70950000D02*
X143000000Y-70950000D01*
X123750000Y-92500000D02*
X123750000Y-95960000D01*
X123750000Y-95960000D02*
X123600000Y-96110000D01*
X124000000Y-95710000D02*
X123600000Y-96110000D01*
D37*
X161811399Y-122728601D02*
X161750000Y-122728601D01*
X161750000Y-122728601D02*
X151228573Y-122728601D01*
X160500000Y-132250000D02*
X160500000Y-124040000D01*
X160500000Y-124040000D02*
X161750000Y-122790000D01*
X161750000Y-122790000D02*
X161750000Y-122728601D01*
X146000000Y-119500000D02*
X145499998Y-119500000D01*
X145499998Y-119500000D02*
X145249997Y-119249999D01*
X149749999Y-121250027D02*
X149500000Y-121000028D01*
X163000000Y-121540000D02*
X161811399Y-122728601D01*
X151228573Y-122728601D02*
X149749999Y-121250027D01*
X136579999Y-119249999D02*
X145249997Y-119249999D01*
X131220000Y-113890000D02*
X136579999Y-119249999D01*
X155896447Y-116500000D02*
X156250000Y-116500000D01*
X153000000Y-116500000D02*
X155896447Y-116500000D01*
X148500000Y-121000000D02*
X153000000Y-116500000D01*
X145500000Y-120500000D02*
X144000000Y-122000000D01*
X144000000Y-122000000D02*
X136790000Y-122000000D01*
X136790000Y-122000000D02*
X128680000Y-113890000D01*
D39*
G36*
X179143537Y-63279370D02*
X179698325Y-63509738D01*
X180299040Y-63510262D01*
X180854229Y-63280862D01*
X181008360Y-63127000D01*
X183021868Y-63127000D01*
X183581000Y-63686132D01*
X183581000Y-76173000D01*
X181135000Y-76173000D01*
X181135000Y-70823958D01*
X181173461Y-70785564D01*
X181384759Y-70276702D01*
X181385240Y-69725715D01*
X181174831Y-69216485D01*
X180785564Y-68826539D01*
X180276702Y-68615241D01*
X180220324Y-68615192D01*
X178802566Y-67197434D01*
X178796639Y-67193474D01*
X178434346Y-66951397D01*
X178000000Y-66865000D01*
X172422842Y-66865000D01*
X172152003Y-66593688D01*
X179363103Y-66593688D01*
X179445900Y-66812174D01*
X179990226Y-66924336D01*
X180536039Y-66819655D01*
X180554100Y-66812174D01*
X180636897Y-66593688D01*
X180000000Y-65956791D01*
X179363103Y-66593688D01*
X172152003Y-66593688D01*
X172025199Y-66466663D01*
X171360281Y-66190565D01*
X170640318Y-66189937D01*
X169974918Y-66464874D01*
X169465383Y-66973521D01*
X169189285Y-67638439D01*
X169188657Y-68358402D01*
X169463594Y-69023802D01*
X169972241Y-69533337D01*
X170637159Y-69809435D01*
X171357122Y-69810063D01*
X172022522Y-69535126D01*
X172423347Y-69135000D01*
X177529868Y-69135000D01*
X178614807Y-70219939D01*
X178614760Y-70274285D01*
X178825169Y-70783515D01*
X178865000Y-70823415D01*
X178865000Y-76173000D01*
X170887174Y-76173000D01*
X171066372Y-76098957D01*
X171597093Y-75569161D01*
X171884672Y-74876595D01*
X171885326Y-74126695D01*
X171598957Y-73433628D01*
X171069161Y-72902907D01*
X170376595Y-72615328D01*
X169626695Y-72614674D01*
X168933628Y-72901043D01*
X168402907Y-73430839D01*
X168115328Y-74123405D01*
X168114674Y-74873305D01*
X168401043Y-75566372D01*
X168930839Y-76097093D01*
X169113643Y-76173000D01*
X147827000Y-76173000D01*
X147827000Y-69398823D01*
X150056728Y-69398823D01*
X150192234Y-69659608D01*
X150888732Y-69841922D01*
X151601980Y-69743820D01*
X151805286Y-69659608D01*
X151940792Y-69398823D01*
X155055448Y-69398823D01*
X155190954Y-69659608D01*
X155887452Y-69841922D01*
X156600700Y-69743820D01*
X156804006Y-69659608D01*
X156939512Y-69398823D01*
X155997480Y-68456791D01*
X155055448Y-69398823D01*
X151940792Y-69398823D01*
X150998760Y-68456791D01*
X150056728Y-69398823D01*
X147827000Y-69398823D01*
X147827000Y-67889972D01*
X149156838Y-67889972D01*
X149254940Y-68603220D01*
X149339152Y-68806526D01*
X149599937Y-68942032D01*
X150541969Y-68000000D01*
X151455551Y-68000000D01*
X152397583Y-68942032D01*
X152658368Y-68806526D01*
X152840682Y-68110028D01*
X152810415Y-67889972D01*
X154155558Y-67889972D01*
X154253660Y-68603220D01*
X154337872Y-68806526D01*
X154598657Y-68942032D01*
X155540689Y-68000000D01*
X156454271Y-68000000D01*
X157396303Y-68942032D01*
X157657088Y-68806526D01*
X157774388Y-68358402D01*
X164189937Y-68358402D01*
X164464874Y-69023802D01*
X164973521Y-69533337D01*
X165638439Y-69809435D01*
X166358402Y-69810063D01*
X167023802Y-69535126D01*
X167533337Y-69026479D01*
X167809435Y-68361561D01*
X167810063Y-67641598D01*
X167535126Y-66976198D01*
X167026479Y-66466663D01*
X166361561Y-66190565D01*
X165641598Y-66189937D01*
X164976198Y-66464874D01*
X164466663Y-66973521D01*
X164190565Y-67638439D01*
X164189937Y-68358402D01*
X157774388Y-68358402D01*
X157839402Y-68110028D01*
X157741300Y-67396780D01*
X157657088Y-67193474D01*
X157396303Y-67057968D01*
X156454271Y-68000000D01*
X155540689Y-68000000D01*
X154598657Y-67057968D01*
X154337872Y-67193474D01*
X154155558Y-67889972D01*
X152810415Y-67889972D01*
X152742580Y-67396780D01*
X152658368Y-67193474D01*
X152397583Y-67057968D01*
X151455551Y-68000000D01*
X150541969Y-68000000D01*
X149599937Y-67057968D01*
X149339152Y-67193474D01*
X149156838Y-67889972D01*
X147827000Y-67889972D01*
X147827000Y-66601177D01*
X150056728Y-66601177D01*
X150998760Y-67543209D01*
X151940792Y-66601177D01*
X155055448Y-66601177D01*
X155997480Y-67543209D01*
X156939512Y-66601177D01*
X156804006Y-66340392D01*
X156107508Y-66158078D01*
X155394260Y-66256180D01*
X155190954Y-66340392D01*
X155055448Y-66601177D01*
X151940792Y-66601177D01*
X151805286Y-66340392D01*
X151108788Y-66158078D01*
X150395540Y-66256180D01*
X150192234Y-66340392D01*
X150056728Y-66601177D01*
X147827000Y-66601177D01*
X147827000Y-65490226D01*
X178575664Y-65490226D01*
X178680345Y-66036039D01*
X178687826Y-66054100D01*
X178906312Y-66136897D01*
X179543209Y-65500000D01*
X180456791Y-65500000D01*
X181093688Y-66136897D01*
X181312174Y-66054100D01*
X181424336Y-65509774D01*
X181319655Y-64963961D01*
X181312174Y-64945900D01*
X181093688Y-64863103D01*
X180456791Y-65500000D01*
X179543209Y-65500000D01*
X178906312Y-64863103D01*
X178687826Y-64945900D01*
X178575664Y-65490226D01*
X147827000Y-65490226D01*
X147827000Y-64406312D01*
X179363103Y-64406312D01*
X180000000Y-65043209D01*
X180636897Y-64406312D01*
X180554100Y-64187826D01*
X180009774Y-64075664D01*
X179463961Y-64180345D01*
X179445900Y-64187826D01*
X179363103Y-64406312D01*
X147827000Y-64406312D01*
X147827000Y-63685000D01*
X148249995Y-63685000D01*
X148250000Y-63685001D01*
X148532484Y-63628810D01*
X148588675Y-63617633D01*
X148875790Y-63425790D01*
X149174580Y-63127000D01*
X178991433Y-63127000D01*
X179143537Y-63279370D01*
X179143537Y-63279370D01*
G37*
X179143537Y-63279370D02*
X179698325Y-63509738D01*
X180299040Y-63510262D01*
X180854229Y-63280862D01*
X181008360Y-63127000D01*
X183021868Y-63127000D01*
X183581000Y-63686132D01*
X183581000Y-76173000D01*
X181135000Y-76173000D01*
X181135000Y-70823958D01*
X181173461Y-70785564D01*
X181384759Y-70276702D01*
X181385240Y-69725715D01*
X181174831Y-69216485D01*
X180785564Y-68826539D01*
X180276702Y-68615241D01*
X180220324Y-68615192D01*
X178802566Y-67197434D01*
X178796639Y-67193474D01*
X178434346Y-66951397D01*
X178000000Y-66865000D01*
X172422842Y-66865000D01*
X172152003Y-66593688D01*
X179363103Y-66593688D01*
X179445900Y-66812174D01*
X179990226Y-66924336D01*
X180536039Y-66819655D01*
X180554100Y-66812174D01*
X180636897Y-66593688D01*
X180000000Y-65956791D01*
X179363103Y-66593688D01*
X172152003Y-66593688D01*
X172025199Y-66466663D01*
X171360281Y-66190565D01*
X170640318Y-66189937D01*
X169974918Y-66464874D01*
X169465383Y-66973521D01*
X169189285Y-67638439D01*
X169188657Y-68358402D01*
X169463594Y-69023802D01*
X169972241Y-69533337D01*
X170637159Y-69809435D01*
X171357122Y-69810063D01*
X172022522Y-69535126D01*
X172423347Y-69135000D01*
X177529868Y-69135000D01*
X178614807Y-70219939D01*
X178614760Y-70274285D01*
X178825169Y-70783515D01*
X178865000Y-70823415D01*
X178865000Y-76173000D01*
X170887174Y-76173000D01*
X171066372Y-76098957D01*
X171597093Y-75569161D01*
X171884672Y-74876595D01*
X171885326Y-74126695D01*
X171598957Y-73433628D01*
X171069161Y-72902907D01*
X170376595Y-72615328D01*
X169626695Y-72614674D01*
X168933628Y-72901043D01*
X168402907Y-73430839D01*
X168115328Y-74123405D01*
X168114674Y-74873305D01*
X168401043Y-75566372D01*
X168930839Y-76097093D01*
X169113643Y-76173000D01*
X147827000Y-76173000D01*
X147827000Y-69398823D01*
X150056728Y-69398823D01*
X150192234Y-69659608D01*
X150888732Y-69841922D01*
X151601980Y-69743820D01*
X151805286Y-69659608D01*
X151940792Y-69398823D01*
X155055448Y-69398823D01*
X155190954Y-69659608D01*
X155887452Y-69841922D01*
X156600700Y-69743820D01*
X156804006Y-69659608D01*
X156939512Y-69398823D01*
X155997480Y-68456791D01*
X155055448Y-69398823D01*
X151940792Y-69398823D01*
X150998760Y-68456791D01*
X150056728Y-69398823D01*
X147827000Y-69398823D01*
X147827000Y-67889972D01*
X149156838Y-67889972D01*
X149254940Y-68603220D01*
X149339152Y-68806526D01*
X149599937Y-68942032D01*
X150541969Y-68000000D01*
X151455551Y-68000000D01*
X152397583Y-68942032D01*
X152658368Y-68806526D01*
X152840682Y-68110028D01*
X152810415Y-67889972D01*
X154155558Y-67889972D01*
X154253660Y-68603220D01*
X154337872Y-68806526D01*
X154598657Y-68942032D01*
X155540689Y-68000000D01*
X156454271Y-68000000D01*
X157396303Y-68942032D01*
X157657088Y-68806526D01*
X157774388Y-68358402D01*
X164189937Y-68358402D01*
X164464874Y-69023802D01*
X164973521Y-69533337D01*
X165638439Y-69809435D01*
X166358402Y-69810063D01*
X167023802Y-69535126D01*
X167533337Y-69026479D01*
X167809435Y-68361561D01*
X167810063Y-67641598D01*
X167535126Y-66976198D01*
X167026479Y-66466663D01*
X166361561Y-66190565D01*
X165641598Y-66189937D01*
X164976198Y-66464874D01*
X164466663Y-66973521D01*
X164190565Y-67638439D01*
X164189937Y-68358402D01*
X157774388Y-68358402D01*
X157839402Y-68110028D01*
X157741300Y-67396780D01*
X157657088Y-67193474D01*
X157396303Y-67057968D01*
X156454271Y-68000000D01*
X155540689Y-68000000D01*
X154598657Y-67057968D01*
X154337872Y-67193474D01*
X154155558Y-67889972D01*
X152810415Y-67889972D01*
X152742580Y-67396780D01*
X152658368Y-67193474D01*
X152397583Y-67057968D01*
X151455551Y-68000000D01*
X150541969Y-68000000D01*
X149599937Y-67057968D01*
X149339152Y-67193474D01*
X149156838Y-67889972D01*
X147827000Y-67889972D01*
X147827000Y-66601177D01*
X150056728Y-66601177D01*
X150998760Y-67543209D01*
X151940792Y-66601177D01*
X155055448Y-66601177D01*
X155997480Y-67543209D01*
X156939512Y-66601177D01*
X156804006Y-66340392D01*
X156107508Y-66158078D01*
X155394260Y-66256180D01*
X155190954Y-66340392D01*
X155055448Y-66601177D01*
X151940792Y-66601177D01*
X151805286Y-66340392D01*
X151108788Y-66158078D01*
X150395540Y-66256180D01*
X150192234Y-66340392D01*
X150056728Y-66601177D01*
X147827000Y-66601177D01*
X147827000Y-65490226D01*
X178575664Y-65490226D01*
X178680345Y-66036039D01*
X178687826Y-66054100D01*
X178906312Y-66136897D01*
X179543209Y-65500000D01*
X180456791Y-65500000D01*
X181093688Y-66136897D01*
X181312174Y-66054100D01*
X181424336Y-65509774D01*
X181319655Y-64963961D01*
X181312174Y-64945900D01*
X181093688Y-64863103D01*
X180456791Y-65500000D01*
X179543209Y-65500000D01*
X178906312Y-64863103D01*
X178687826Y-64945900D01*
X178575664Y-65490226D01*
X147827000Y-65490226D01*
X147827000Y-64406312D01*
X179363103Y-64406312D01*
X180000000Y-65043209D01*
X180636897Y-64406312D01*
X180554100Y-64187826D01*
X180009774Y-64075664D01*
X179463961Y-64180345D01*
X179445900Y-64187826D01*
X179363103Y-64406312D01*
X147827000Y-64406312D01*
X147827000Y-63685000D01*
X148249995Y-63685000D01*
X148250000Y-63685001D01*
X148532484Y-63628810D01*
X148588675Y-63617633D01*
X148875790Y-63425790D01*
X149174580Y-63127000D01*
X178991433Y-63127000D01*
X179143537Y-63279370D01*
G36*
X176873000Y-98000000D02*
X176883006Y-98049410D01*
X176911447Y-98091035D01*
X176953841Y-98118315D01*
X177000000Y-98127000D01*
X186815000Y-98127000D01*
X186815000Y-112373000D01*
X174500000Y-112373000D01*
X174453841Y-112381685D01*
X174411447Y-112408965D01*
X174383006Y-112450590D01*
X174373000Y-112500000D01*
X174373000Y-127500000D01*
X174381685Y-127546159D01*
X174408965Y-127588553D01*
X174450590Y-127616994D01*
X174500000Y-127627000D01*
X175373000Y-127627000D01*
X175373000Y-133640947D01*
X175328162Y-133866363D01*
X175328162Y-133933830D01*
X175315000Y-134000000D01*
X175315000Y-149315000D01*
X153735000Y-149315000D01*
X153735000Y-149185750D01*
X153576250Y-149027000D01*
X151827000Y-149027000D01*
X151827000Y-149047000D01*
X151573000Y-149047000D01*
X151573000Y-149027000D01*
X149823750Y-149027000D01*
X149665000Y-149185750D01*
X149665000Y-149315000D01*
X120685000Y-149315000D01*
X120685000Y-132873305D01*
X124114674Y-132873305D01*
X124401043Y-133566372D01*
X124930839Y-134097093D01*
X125623405Y-134384672D01*
X126373305Y-134385326D01*
X127066372Y-134098957D01*
X127597093Y-133569161D01*
X127884672Y-132876595D01*
X127885326Y-132126695D01*
X127598957Y-131433628D01*
X127069161Y-130902907D01*
X126376595Y-130615328D01*
X125626695Y-130614674D01*
X124933628Y-130901043D01*
X124402907Y-131430839D01*
X124115328Y-132123405D01*
X124114674Y-132873305D01*
X120685000Y-132873305D01*
X120685000Y-124123691D01*
X125715000Y-124123691D01*
X125715000Y-124714250D01*
X125873750Y-124873000D01*
X126873000Y-124873000D01*
X126873000Y-123773750D01*
X127127000Y-123773750D01*
X127127000Y-124873000D01*
X128126250Y-124873000D01*
X128285000Y-124714250D01*
X128285000Y-124123691D01*
X129965000Y-124123691D01*
X129965000Y-124714250D01*
X130123750Y-124873000D01*
X131123000Y-124873000D01*
X131123000Y-123773750D01*
X130964250Y-123615000D01*
X130473690Y-123615000D01*
X130240301Y-123711673D01*
X130061673Y-123890302D01*
X129965000Y-124123691D01*
X128285000Y-124123691D01*
X128188327Y-123890302D01*
X128009699Y-123711673D01*
X127776310Y-123615000D01*
X127285750Y-123615000D01*
X127127000Y-123773750D01*
X126873000Y-123773750D01*
X126714250Y-123615000D01*
X126223690Y-123615000D01*
X125990301Y-123711673D01*
X125811673Y-123890302D01*
X125715000Y-124123691D01*
X120685000Y-124123691D01*
X120685000Y-115450499D01*
X120743341Y-115474724D01*
X121373893Y-115475275D01*
X121956657Y-115234481D01*
X122330261Y-114861529D01*
X122700997Y-115232914D01*
X123283341Y-115474724D01*
X123913893Y-115475275D01*
X123927905Y-115469485D01*
X132106733Y-123648312D01*
X132026310Y-123615000D01*
X131535750Y-123615000D01*
X131377000Y-123773750D01*
X131377000Y-124873000D01*
X132376250Y-124873000D01*
X132535000Y-124714250D01*
X132535000Y-124123691D01*
X132501687Y-124043266D01*
X134115000Y-125656579D01*
X134115000Y-133422452D01*
X134108407Y-133429044D01*
X133880623Y-133429044D01*
X128297440Y-127845860D01*
X128297440Y-126950000D01*
X129952560Y-126950000D01*
X129952560Y-128450000D01*
X129996838Y-128685317D01*
X130135910Y-128901441D01*
X130348110Y-129046431D01*
X130365000Y-129049851D01*
X130365000Y-129249995D01*
X130364999Y-129250000D01*
X130421190Y-129532484D01*
X130432367Y-129588675D01*
X130455785Y-129623722D01*
X130624210Y-129875790D01*
X131018965Y-130270545D01*
X131143264Y-130571372D01*
X131427134Y-130855737D01*
X131798217Y-131009824D01*
X132200020Y-131010175D01*
X132571372Y-130856736D01*
X132855737Y-130572866D01*
X133009824Y-130201783D01*
X133010175Y-129799980D01*
X132856736Y-129428628D01*
X132572866Y-129144263D01*
X132270140Y-129018560D01*
X132238406Y-128986826D01*
X132351441Y-128914090D01*
X132496431Y-128701890D01*
X132547440Y-128450000D01*
X132547440Y-126950000D01*
X132503162Y-126714683D01*
X132364090Y-126498559D01*
X132151890Y-126353569D01*
X132118510Y-126346809D01*
X132259699Y-126288327D01*
X132438327Y-126109698D01*
X132535000Y-125876309D01*
X132535000Y-125285750D01*
X132376250Y-125127000D01*
X131377000Y-125127000D01*
X131377000Y-125147000D01*
X131123000Y-125147000D01*
X131123000Y-125127000D01*
X130123750Y-125127000D01*
X129965000Y-125285750D01*
X129965000Y-125876309D01*
X130061673Y-126109698D01*
X130240301Y-126288327D01*
X130376287Y-126344654D01*
X130364683Y-126346838D01*
X130148559Y-126485910D01*
X130003569Y-126698110D01*
X129952560Y-126950000D01*
X128297440Y-126950000D01*
X128253162Y-126714683D01*
X128114090Y-126498559D01*
X127901890Y-126353569D01*
X127868510Y-126346809D01*
X128009699Y-126288327D01*
X128188327Y-126109698D01*
X128285000Y-125876309D01*
X128285000Y-125285750D01*
X128126250Y-125127000D01*
X127127000Y-125127000D01*
X127127000Y-125147000D01*
X126873000Y-125147000D01*
X126873000Y-125127000D01*
X125873750Y-125127000D01*
X125715000Y-125285750D01*
X125715000Y-125876309D01*
X125811673Y-126109698D01*
X125990301Y-126288327D01*
X126126287Y-126344654D01*
X126114683Y-126346838D01*
X125898559Y-126485910D01*
X125753569Y-126698110D01*
X125702560Y-126950000D01*
X125702560Y-128450000D01*
X125746838Y-128685317D01*
X125885910Y-128901441D01*
X126098110Y-129046431D01*
X126350000Y-129097440D01*
X127045860Y-129097440D01*
X132888252Y-134939831D01*
X132888254Y-134939834D01*
X133014976Y-135024506D01*
X133014976Y-143364973D01*
X133014975Y-143364978D01*
X133056595Y-143574211D01*
X133082343Y-143703653D01*
X133203515Y-143885001D01*
X133274186Y-143990768D01*
X136434206Y-147150787D01*
X136434208Y-147150790D01*
X136721323Y-147342633D01*
X136777514Y-147353810D01*
X137059998Y-147410001D01*
X137060003Y-147410000D01*
X139069995Y-147410000D01*
X139070000Y-147410001D01*
X139352484Y-147353810D01*
X139408675Y-147342633D01*
X139695790Y-147150790D01*
X140174139Y-146672440D01*
X140630000Y-146672440D01*
X140865317Y-146628162D01*
X141081441Y-146489090D01*
X141226431Y-146276890D01*
X141277440Y-146025000D01*
X141277440Y-145635000D01*
X142360982Y-145635000D01*
X142435910Y-145751441D01*
X142648110Y-145896431D01*
X142900000Y-145947440D01*
X145700000Y-145947440D01*
X145935317Y-145903162D01*
X146151441Y-145764090D01*
X146296431Y-145551890D01*
X146342621Y-145323795D01*
X146364716Y-145323795D01*
X146613106Y-145924943D01*
X147072637Y-146385278D01*
X147673352Y-146634716D01*
X148323795Y-146635284D01*
X148924943Y-146386894D01*
X149385278Y-145927363D01*
X149634716Y-145326648D01*
X149635284Y-144676205D01*
X149386894Y-144075057D01*
X148927363Y-143614722D01*
X148326648Y-143365284D01*
X147676205Y-143364716D01*
X147075057Y-143613106D01*
X146614722Y-144072637D01*
X146365284Y-144673352D01*
X146364716Y-145323795D01*
X146342621Y-145323795D01*
X146347440Y-145300000D01*
X146347440Y-143100000D01*
X146303162Y-142864683D01*
X146164090Y-142648559D01*
X145951890Y-142503569D01*
X145700000Y-142452560D01*
X142900000Y-142452560D01*
X142702920Y-142489643D01*
X142625790Y-142374210D01*
X142338675Y-142182367D01*
X142000000Y-142115000D01*
X139781580Y-142115000D01*
X140024139Y-141872440D01*
X140480000Y-141872440D01*
X140715317Y-141828162D01*
X140931441Y-141689090D01*
X141076431Y-141476890D01*
X141127440Y-141225000D01*
X141127440Y-140835000D01*
X146783420Y-140835000D01*
X150300981Y-144352560D01*
X150300000Y-144352560D01*
X150064683Y-144396838D01*
X149848559Y-144535910D01*
X149703569Y-144748110D01*
X149652560Y-145000000D01*
X149652560Y-147200000D01*
X149696838Y-147435317D01*
X149737539Y-147498568D01*
X149665000Y-147673691D01*
X149665000Y-148614250D01*
X149823750Y-148773000D01*
X151573000Y-148773000D01*
X151573000Y-148753000D01*
X151827000Y-148753000D01*
X151827000Y-148773000D01*
X153576250Y-148773000D01*
X153735000Y-148614250D01*
X153735000Y-147673691D01*
X153663245Y-147500459D01*
X153696431Y-147451890D01*
X153747440Y-147200000D01*
X153747440Y-145000000D01*
X153703162Y-144764683D01*
X153564090Y-144548559D01*
X153351890Y-144403569D01*
X153100000Y-144352560D01*
X152555673Y-144352560D01*
X152517633Y-144161326D01*
X152517633Y-144161325D01*
X152325790Y-143874210D01*
X152325787Y-143874208D01*
X148086657Y-139635077D01*
X148323795Y-139635284D01*
X148924943Y-139386894D01*
X149385278Y-138927363D01*
X149634716Y-138326648D01*
X149635284Y-137676205D01*
X149386894Y-137075057D01*
X148927363Y-136614722D01*
X148326648Y-136365284D01*
X147676205Y-136364716D01*
X147075057Y-136613106D01*
X146614722Y-137072637D01*
X146365284Y-137673352D01*
X146364716Y-138323795D01*
X146613106Y-138924943D01*
X146752918Y-139065000D01*
X144135000Y-139065000D01*
X144135000Y-135600000D01*
X149652560Y-135600000D01*
X149652560Y-137800000D01*
X149696838Y-138035317D01*
X149835910Y-138251441D01*
X150048110Y-138396431D01*
X150300000Y-138447440D01*
X150860600Y-138447440D01*
X150897434Y-138502566D01*
X152114807Y-139719939D01*
X152114760Y-139774285D01*
X152325169Y-140283515D01*
X152714436Y-140673461D01*
X153223298Y-140884759D01*
X153774285Y-140885240D01*
X154283515Y-140674831D01*
X154673461Y-140285564D01*
X154884759Y-139776702D01*
X154885240Y-139225715D01*
X154674831Y-138716485D01*
X154285564Y-138326539D01*
X153776702Y-138115241D01*
X153720324Y-138115192D01*
X153680434Y-138075302D01*
X153696431Y-138051890D01*
X153747440Y-137800000D01*
X153747440Y-135600000D01*
X153703162Y-135364683D01*
X153620196Y-135235750D01*
X154215000Y-135235750D01*
X154215000Y-135826309D01*
X154311673Y-136059698D01*
X154490301Y-136238327D01*
X154723690Y-136335000D01*
X155214250Y-136335000D01*
X155373000Y-136176250D01*
X155373000Y-135077000D01*
X155627000Y-135077000D01*
X155627000Y-136176250D01*
X155785750Y-136335000D01*
X156276310Y-136335000D01*
X156509699Y-136238327D01*
X156688327Y-136059698D01*
X156750000Y-135910806D01*
X156811673Y-136059698D01*
X156990301Y-136238327D01*
X157223690Y-136335000D01*
X157714250Y-136335000D01*
X157873000Y-136176250D01*
X157873000Y-135077000D01*
X158127000Y-135077000D01*
X158127000Y-136176250D01*
X158285750Y-136335000D01*
X158776310Y-136335000D01*
X159009699Y-136238327D01*
X159188327Y-136059698D01*
X159250000Y-135910806D01*
X159311673Y-136059698D01*
X159490301Y-136238327D01*
X159723690Y-136335000D01*
X160214250Y-136335000D01*
X160373000Y-136176250D01*
X160373000Y-135077000D01*
X160627000Y-135077000D01*
X160627000Y-136176250D01*
X160785750Y-136335000D01*
X161276310Y-136335000D01*
X161509699Y-136238327D01*
X161688327Y-136059698D01*
X161750000Y-135910806D01*
X161811673Y-136059698D01*
X161990301Y-136238327D01*
X162223690Y-136335000D01*
X162714250Y-136335000D01*
X162873000Y-136176250D01*
X162873000Y-135077000D01*
X163127000Y-135077000D01*
X163127000Y-136176250D01*
X163285750Y-136335000D01*
X163776310Y-136335000D01*
X164009699Y-136238327D01*
X164188327Y-136059698D01*
X164285000Y-135826309D01*
X164285000Y-135235750D01*
X164465000Y-135235750D01*
X164465000Y-135826309D01*
X164561673Y-136059698D01*
X164740301Y-136238327D01*
X164973690Y-136335000D01*
X165464250Y-136335000D01*
X165623000Y-136176250D01*
X165623000Y-135077000D01*
X165877000Y-135077000D01*
X165877000Y-136176250D01*
X166035750Y-136335000D01*
X166526310Y-136335000D01*
X166759699Y-136238327D01*
X166938327Y-136059698D01*
X167035000Y-135826309D01*
X167035000Y-135235750D01*
X166876250Y-135077000D01*
X165877000Y-135077000D01*
X165623000Y-135077000D01*
X164623750Y-135077000D01*
X164465000Y-135235750D01*
X164285000Y-135235750D01*
X164126250Y-135077000D01*
X163127000Y-135077000D01*
X162873000Y-135077000D01*
X161873750Y-135077000D01*
X161750000Y-135200750D01*
X161626250Y-135077000D01*
X160627000Y-135077000D01*
X160373000Y-135077000D01*
X159373750Y-135077000D01*
X159250000Y-135200750D01*
X159126250Y-135077000D01*
X158127000Y-135077000D01*
X157873000Y-135077000D01*
X156873750Y-135077000D01*
X156750000Y-135200750D01*
X156626250Y-135077000D01*
X155627000Y-135077000D01*
X155373000Y-135077000D01*
X154373750Y-135077000D01*
X154215000Y-135235750D01*
X153620196Y-135235750D01*
X153564090Y-135148559D01*
X153351890Y-135003569D01*
X153100000Y-134952560D01*
X150300000Y-134952560D01*
X150064683Y-134996838D01*
X149848559Y-135135910D01*
X149703569Y-135348110D01*
X149652560Y-135600000D01*
X144135000Y-135600000D01*
X144135000Y-125366580D01*
X147874999Y-121626580D01*
X147998033Y-121749829D01*
X148323190Y-121884846D01*
X148675265Y-121885153D01*
X149000364Y-121750825D01*
X149300709Y-121875539D01*
X150691172Y-123266002D01*
X150937733Y-123430749D01*
X150985987Y-123440347D01*
X151228573Y-123488601D01*
X156650278Y-123488601D01*
X156624489Y-123550709D01*
X154962599Y-125212599D01*
X154797852Y-125459161D01*
X154740000Y-125750000D01*
X154740000Y-130873258D01*
X154614683Y-130896838D01*
X154398559Y-131035910D01*
X154253569Y-131248110D01*
X154202560Y-131500000D01*
X154202560Y-133000000D01*
X154246838Y-133235317D01*
X154385910Y-133451441D01*
X154598110Y-133596431D01*
X154631490Y-133603191D01*
X154490301Y-133661673D01*
X154311673Y-133840302D01*
X154215000Y-134073691D01*
X154215000Y-134664250D01*
X154373750Y-134823000D01*
X155373000Y-134823000D01*
X155373000Y-134803000D01*
X155627000Y-134803000D01*
X155627000Y-134823000D01*
X156626250Y-134823000D01*
X156750000Y-134699250D01*
X156873750Y-134823000D01*
X157873000Y-134823000D01*
X157873000Y-134803000D01*
X158127000Y-134803000D01*
X158127000Y-134823000D01*
X159126250Y-134823000D01*
X159250000Y-134699250D01*
X159373750Y-134823000D01*
X160373000Y-134823000D01*
X160373000Y-134803000D01*
X160627000Y-134803000D01*
X160627000Y-134823000D01*
X161626250Y-134823000D01*
X161750000Y-134699250D01*
X161873750Y-134823000D01*
X162873000Y-134823000D01*
X162873000Y-134803000D01*
X163127000Y-134803000D01*
X163127000Y-134823000D01*
X164126250Y-134823000D01*
X164285000Y-134664250D01*
X164285000Y-134073691D01*
X164188327Y-133840302D01*
X164009699Y-133661673D01*
X163873713Y-133605346D01*
X163885317Y-133603162D01*
X164101441Y-133464090D01*
X164246431Y-133251890D01*
X164297440Y-133000000D01*
X164297440Y-131927362D01*
X164452560Y-131772242D01*
X164452560Y-133000000D01*
X164496838Y-133235317D01*
X164635910Y-133451441D01*
X164848110Y-133596431D01*
X164881490Y-133603191D01*
X164740301Y-133661673D01*
X164561673Y-133840302D01*
X164465000Y-134073691D01*
X164465000Y-134664250D01*
X164623750Y-134823000D01*
X165623000Y-134823000D01*
X165623000Y-134803000D01*
X165877000Y-134803000D01*
X165877000Y-134823000D01*
X166876250Y-134823000D01*
X167035000Y-134664250D01*
X167035000Y-134073691D01*
X166938327Y-133840302D01*
X166759699Y-133661673D01*
X166623713Y-133605346D01*
X166635317Y-133603162D01*
X166851441Y-133464090D01*
X166996431Y-133251890D01*
X167047440Y-133000000D01*
X167047440Y-132873305D01*
X168114674Y-132873305D01*
X168401043Y-133566372D01*
X168930839Y-134097093D01*
X169623405Y-134384672D01*
X170373305Y-134385326D01*
X171066372Y-134098957D01*
X171597093Y-133569161D01*
X171884672Y-132876595D01*
X171885326Y-132126695D01*
X171598957Y-131433628D01*
X171069161Y-130902907D01*
X170376595Y-130615328D01*
X169626695Y-130614674D01*
X168933628Y-130901043D01*
X168402907Y-131430839D01*
X168115328Y-132123405D01*
X168114674Y-132873305D01*
X167047440Y-132873305D01*
X167047440Y-131500000D01*
X167003162Y-131264683D01*
X166864090Y-131048559D01*
X166651890Y-130903569D01*
X166510000Y-130874836D01*
X166510000Y-119210000D01*
X166467837Y-118998033D01*
X166452148Y-118919160D01*
X166287401Y-118672599D01*
X164433158Y-116818356D01*
X164498600Y-116489359D01*
X164498600Y-116430641D01*
X164384526Y-115857152D01*
X164059670Y-115370971D01*
X163788839Y-115190008D01*
X164206821Y-114808490D01*
X164454968Y-114279027D01*
X164334469Y-114047000D01*
X163127000Y-114047000D01*
X163127000Y-114067000D01*
X162873000Y-114067000D01*
X162873000Y-114047000D01*
X162853000Y-114047000D01*
X162853000Y-113793000D01*
X162873000Y-113793000D01*
X162873000Y-112586183D01*
X163127000Y-112586183D01*
X163127000Y-113793000D01*
X164334469Y-113793000D01*
X164454968Y-113560973D01*
X164206821Y-113031510D01*
X163774947Y-112637312D01*
X163359026Y-112465042D01*
X163127000Y-112586183D01*
X162873000Y-112586183D01*
X162640974Y-112465042D01*
X162225053Y-112637312D01*
X161940973Y-112896609D01*
X161926762Y-112821083D01*
X161885000Y-112756183D01*
X161885000Y-111131844D01*
X161951441Y-111089090D01*
X161997969Y-111020994D01*
X162140302Y-111163327D01*
X162373691Y-111260000D01*
X162714250Y-111260000D01*
X162873000Y-111101250D01*
X162873000Y-110127000D01*
X163127000Y-110127000D01*
X163127000Y-111101250D01*
X163285750Y-111260000D01*
X163626309Y-111260000D01*
X163859698Y-111163327D01*
X164038327Y-110984699D01*
X164135000Y-110751310D01*
X164135000Y-110285750D01*
X163976250Y-110127000D01*
X163127000Y-110127000D01*
X162873000Y-110127000D01*
X162853000Y-110127000D01*
X162853000Y-109873000D01*
X162873000Y-109873000D01*
X162873000Y-109853000D01*
X163127000Y-109853000D01*
X163127000Y-109873000D01*
X163976250Y-109873000D01*
X164039251Y-109809999D01*
X172649900Y-109809999D01*
X172661325Y-109817633D01*
X172944709Y-109874002D01*
X172946838Y-109885317D01*
X173085910Y-110101441D01*
X173298110Y-110246431D01*
X173550000Y-110297440D01*
X175050000Y-110297440D01*
X175285317Y-110253162D01*
X175501441Y-110114090D01*
X175646431Y-109901890D01*
X175649081Y-109888803D01*
X175785910Y-110101441D01*
X175998110Y-110246431D01*
X176250000Y-110297440D01*
X177750000Y-110297440D01*
X177985317Y-110253162D01*
X178201441Y-110114090D01*
X178346431Y-109901890D01*
X178349851Y-109885000D01*
X183989327Y-109885000D01*
X183998293Y-109890991D01*
X184470907Y-109985000D01*
X185029093Y-109985000D01*
X185501707Y-109890991D01*
X185902370Y-109623277D01*
X186170084Y-109222614D01*
X186264093Y-108750000D01*
X186170084Y-108277386D01*
X185902370Y-107876723D01*
X185712715Y-107750000D01*
X185902370Y-107623277D01*
X186170084Y-107222614D01*
X186264093Y-106750000D01*
X186170084Y-106277386D01*
X185902370Y-105876723D01*
X185712715Y-105750000D01*
X185902370Y-105623277D01*
X186170084Y-105222614D01*
X186264093Y-104750000D01*
X186170084Y-104277386D01*
X185917926Y-103900004D01*
X186051441Y-103814090D01*
X186196431Y-103601890D01*
X186247440Y-103350000D01*
X186247440Y-102150000D01*
X186203162Y-101914683D01*
X186064090Y-101698559D01*
X185851890Y-101553569D01*
X185600000Y-101502560D01*
X183900000Y-101502560D01*
X183664683Y-101546838D01*
X183448559Y-101685910D01*
X183303569Y-101898110D01*
X183252560Y-102150000D01*
X183252560Y-103350000D01*
X183296838Y-103585317D01*
X183435910Y-103801441D01*
X183528932Y-103865000D01*
X181250005Y-103865000D01*
X181250000Y-103864999D01*
X180967516Y-103921190D01*
X180911325Y-103932367D01*
X180624210Y-104124210D01*
X180624208Y-104124213D01*
X179633420Y-105115000D01*
X178353222Y-105115000D01*
X178353162Y-105114683D01*
X178214090Y-104898559D01*
X178001890Y-104753569D01*
X177750000Y-104702560D01*
X176250000Y-104702560D01*
X176014683Y-104746838D01*
X175798559Y-104885910D01*
X175653569Y-105098110D01*
X175646809Y-105131490D01*
X175588327Y-104990301D01*
X175409698Y-104811673D01*
X175176309Y-104715000D01*
X174585750Y-104715000D01*
X174427000Y-104873750D01*
X174427000Y-105873000D01*
X174447000Y-105873000D01*
X174447000Y-106127000D01*
X174427000Y-106127000D01*
X174427000Y-106147000D01*
X174173000Y-106147000D01*
X174173000Y-106127000D01*
X173073750Y-106127000D01*
X172915000Y-106285750D01*
X172915000Y-106615000D01*
X163366579Y-106615000D01*
X160624885Y-103873305D01*
X168114674Y-103873305D01*
X168401043Y-104566372D01*
X168930839Y-105097093D01*
X169623405Y-105384672D01*
X170373305Y-105385326D01*
X170764494Y-105223690D01*
X172915000Y-105223690D01*
X172915000Y-105714250D01*
X173073750Y-105873000D01*
X174173000Y-105873000D01*
X174173000Y-104873750D01*
X174014250Y-104715000D01*
X173423691Y-104715000D01*
X173190302Y-104811673D01*
X173011673Y-104990301D01*
X172915000Y-105223690D01*
X170764494Y-105223690D01*
X171066372Y-105098957D01*
X171597093Y-104569161D01*
X171884672Y-103876595D01*
X171885326Y-103126695D01*
X171598957Y-102433628D01*
X171069161Y-101902907D01*
X170376595Y-101615328D01*
X169626695Y-101614674D01*
X168933628Y-101901043D01*
X168402907Y-102430839D01*
X168115328Y-103123405D01*
X168114674Y-103873305D01*
X160624885Y-103873305D01*
X157743705Y-100992125D01*
X158071372Y-100856736D01*
X158355737Y-100572866D01*
X158509824Y-100201783D01*
X158510175Y-99799980D01*
X158385000Y-99497032D01*
X158385000Y-91768207D01*
X158385001Y-91768202D01*
X158317633Y-91429528D01*
X158317633Y-91429527D01*
X158125790Y-91142412D01*
X158125787Y-91142410D01*
X157826877Y-90843500D01*
X158361686Y-90622522D01*
X158898039Y-90087105D01*
X159188668Y-89387190D01*
X159189330Y-88629335D01*
X158899922Y-87928914D01*
X158364505Y-87392561D01*
X157664590Y-87101932D01*
X156906735Y-87101270D01*
X156206314Y-87390678D01*
X155669961Y-87926095D01*
X155446831Y-88463454D01*
X152110378Y-85127000D01*
X176873000Y-85127000D01*
X176873000Y-98000000D01*
X176873000Y-98000000D01*
G37*
X176873000Y-98000000D02*
X176883006Y-98049410D01*
X176911447Y-98091035D01*
X176953841Y-98118315D01*
X177000000Y-98127000D01*
X186815000Y-98127000D01*
X186815000Y-112373000D01*
X174500000Y-112373000D01*
X174453841Y-112381685D01*
X174411447Y-112408965D01*
X174383006Y-112450590D01*
X174373000Y-112500000D01*
X174373000Y-127500000D01*
X174381685Y-127546159D01*
X174408965Y-127588553D01*
X174450590Y-127616994D01*
X174500000Y-127627000D01*
X175373000Y-127627000D01*
X175373000Y-133640947D01*
X175328162Y-133866363D01*
X175328162Y-133933830D01*
X175315000Y-134000000D01*
X175315000Y-149315000D01*
X153735000Y-149315000D01*
X153735000Y-149185750D01*
X153576250Y-149027000D01*
X151827000Y-149027000D01*
X151827000Y-149047000D01*
X151573000Y-149047000D01*
X151573000Y-149027000D01*
X149823750Y-149027000D01*
X149665000Y-149185750D01*
X149665000Y-149315000D01*
X120685000Y-149315000D01*
X120685000Y-132873305D01*
X124114674Y-132873305D01*
X124401043Y-133566372D01*
X124930839Y-134097093D01*
X125623405Y-134384672D01*
X126373305Y-134385326D01*
X127066372Y-134098957D01*
X127597093Y-133569161D01*
X127884672Y-132876595D01*
X127885326Y-132126695D01*
X127598957Y-131433628D01*
X127069161Y-130902907D01*
X126376595Y-130615328D01*
X125626695Y-130614674D01*
X124933628Y-130901043D01*
X124402907Y-131430839D01*
X124115328Y-132123405D01*
X124114674Y-132873305D01*
X120685000Y-132873305D01*
X120685000Y-124123691D01*
X125715000Y-124123691D01*
X125715000Y-124714250D01*
X125873750Y-124873000D01*
X126873000Y-124873000D01*
X126873000Y-123773750D01*
X127127000Y-123773750D01*
X127127000Y-124873000D01*
X128126250Y-124873000D01*
X128285000Y-124714250D01*
X128285000Y-124123691D01*
X129965000Y-124123691D01*
X129965000Y-124714250D01*
X130123750Y-124873000D01*
X131123000Y-124873000D01*
X131123000Y-123773750D01*
X130964250Y-123615000D01*
X130473690Y-123615000D01*
X130240301Y-123711673D01*
X130061673Y-123890302D01*
X129965000Y-124123691D01*
X128285000Y-124123691D01*
X128188327Y-123890302D01*
X128009699Y-123711673D01*
X127776310Y-123615000D01*
X127285750Y-123615000D01*
X127127000Y-123773750D01*
X126873000Y-123773750D01*
X126714250Y-123615000D01*
X126223690Y-123615000D01*
X125990301Y-123711673D01*
X125811673Y-123890302D01*
X125715000Y-124123691D01*
X120685000Y-124123691D01*
X120685000Y-115450499D01*
X120743341Y-115474724D01*
X121373893Y-115475275D01*
X121956657Y-115234481D01*
X122330261Y-114861529D01*
X122700997Y-115232914D01*
X123283341Y-115474724D01*
X123913893Y-115475275D01*
X123927905Y-115469485D01*
X132106733Y-123648312D01*
X132026310Y-123615000D01*
X131535750Y-123615000D01*
X131377000Y-123773750D01*
X131377000Y-124873000D01*
X132376250Y-124873000D01*
X132535000Y-124714250D01*
X132535000Y-124123691D01*
X132501687Y-124043266D01*
X134115000Y-125656579D01*
X134115000Y-133422452D01*
X134108407Y-133429044D01*
X133880623Y-133429044D01*
X128297440Y-127845860D01*
X128297440Y-126950000D01*
X129952560Y-126950000D01*
X129952560Y-128450000D01*
X129996838Y-128685317D01*
X130135910Y-128901441D01*
X130348110Y-129046431D01*
X130365000Y-129049851D01*
X130365000Y-129249995D01*
X130364999Y-129250000D01*
X130421190Y-129532484D01*
X130432367Y-129588675D01*
X130455785Y-129623722D01*
X130624210Y-129875790D01*
X131018965Y-130270545D01*
X131143264Y-130571372D01*
X131427134Y-130855737D01*
X131798217Y-131009824D01*
X132200020Y-131010175D01*
X132571372Y-130856736D01*
X132855737Y-130572866D01*
X133009824Y-130201783D01*
X133010175Y-129799980D01*
X132856736Y-129428628D01*
X132572866Y-129144263D01*
X132270140Y-129018560D01*
X132238406Y-128986826D01*
X132351441Y-128914090D01*
X132496431Y-128701890D01*
X132547440Y-128450000D01*
X132547440Y-126950000D01*
X132503162Y-126714683D01*
X132364090Y-126498559D01*
X132151890Y-126353569D01*
X132118510Y-126346809D01*
X132259699Y-126288327D01*
X132438327Y-126109698D01*
X132535000Y-125876309D01*
X132535000Y-125285750D01*
X132376250Y-125127000D01*
X131377000Y-125127000D01*
X131377000Y-125147000D01*
X131123000Y-125147000D01*
X131123000Y-125127000D01*
X130123750Y-125127000D01*
X129965000Y-125285750D01*
X129965000Y-125876309D01*
X130061673Y-126109698D01*
X130240301Y-126288327D01*
X130376287Y-126344654D01*
X130364683Y-126346838D01*
X130148559Y-126485910D01*
X130003569Y-126698110D01*
X129952560Y-126950000D01*
X128297440Y-126950000D01*
X128253162Y-126714683D01*
X128114090Y-126498559D01*
X127901890Y-126353569D01*
X127868510Y-126346809D01*
X128009699Y-126288327D01*
X128188327Y-126109698D01*
X128285000Y-125876309D01*
X128285000Y-125285750D01*
X128126250Y-125127000D01*
X127127000Y-125127000D01*
X127127000Y-125147000D01*
X126873000Y-125147000D01*
X126873000Y-125127000D01*
X125873750Y-125127000D01*
X125715000Y-125285750D01*
X125715000Y-125876309D01*
X125811673Y-126109698D01*
X125990301Y-126288327D01*
X126126287Y-126344654D01*
X126114683Y-126346838D01*
X125898559Y-126485910D01*
X125753569Y-126698110D01*
X125702560Y-126950000D01*
X125702560Y-128450000D01*
X125746838Y-128685317D01*
X125885910Y-128901441D01*
X126098110Y-129046431D01*
X126350000Y-129097440D01*
X127045860Y-129097440D01*
X132888252Y-134939831D01*
X132888254Y-134939834D01*
X133014976Y-135024506D01*
X133014976Y-143364973D01*
X133014975Y-143364978D01*
X133056595Y-143574211D01*
X133082343Y-143703653D01*
X133203515Y-143885001D01*
X133274186Y-143990768D01*
X136434206Y-147150787D01*
X136434208Y-147150790D01*
X136721323Y-147342633D01*
X136777514Y-147353810D01*
X137059998Y-147410001D01*
X137060003Y-147410000D01*
X139069995Y-147410000D01*
X139070000Y-147410001D01*
X139352484Y-147353810D01*
X139408675Y-147342633D01*
X139695790Y-147150790D01*
X140174139Y-146672440D01*
X140630000Y-146672440D01*
X140865317Y-146628162D01*
X141081441Y-146489090D01*
X141226431Y-146276890D01*
X141277440Y-146025000D01*
X141277440Y-145635000D01*
X142360982Y-145635000D01*
X142435910Y-145751441D01*
X142648110Y-145896431D01*
X142900000Y-145947440D01*
X145700000Y-145947440D01*
X145935317Y-145903162D01*
X146151441Y-145764090D01*
X146296431Y-145551890D01*
X146342621Y-145323795D01*
X146364716Y-145323795D01*
X146613106Y-145924943D01*
X147072637Y-146385278D01*
X147673352Y-146634716D01*
X148323795Y-146635284D01*
X148924943Y-146386894D01*
X149385278Y-145927363D01*
X149634716Y-145326648D01*
X149635284Y-144676205D01*
X149386894Y-144075057D01*
X148927363Y-143614722D01*
X148326648Y-143365284D01*
X147676205Y-143364716D01*
X147075057Y-143613106D01*
X146614722Y-144072637D01*
X146365284Y-144673352D01*
X146364716Y-145323795D01*
X146342621Y-145323795D01*
X146347440Y-145300000D01*
X146347440Y-143100000D01*
X146303162Y-142864683D01*
X146164090Y-142648559D01*
X145951890Y-142503569D01*
X145700000Y-142452560D01*
X142900000Y-142452560D01*
X142702920Y-142489643D01*
X142625790Y-142374210D01*
X142338675Y-142182367D01*
X142000000Y-142115000D01*
X139781580Y-142115000D01*
X140024139Y-141872440D01*
X140480000Y-141872440D01*
X140715317Y-141828162D01*
X140931441Y-141689090D01*
X141076431Y-141476890D01*
X141127440Y-141225000D01*
X141127440Y-140835000D01*
X146783420Y-140835000D01*
X150300981Y-144352560D01*
X150300000Y-144352560D01*
X150064683Y-144396838D01*
X149848559Y-144535910D01*
X149703569Y-144748110D01*
X149652560Y-145000000D01*
X149652560Y-147200000D01*
X149696838Y-147435317D01*
X149737539Y-147498568D01*
X149665000Y-147673691D01*
X149665000Y-148614250D01*
X149823750Y-148773000D01*
X151573000Y-148773000D01*
X151573000Y-148753000D01*
X151827000Y-148753000D01*
X151827000Y-148773000D01*
X153576250Y-148773000D01*
X153735000Y-148614250D01*
X153735000Y-147673691D01*
X153663245Y-147500459D01*
X153696431Y-147451890D01*
X153747440Y-147200000D01*
X153747440Y-145000000D01*
X153703162Y-144764683D01*
X153564090Y-144548559D01*
X153351890Y-144403569D01*
X153100000Y-144352560D01*
X152555673Y-144352560D01*
X152517633Y-144161326D01*
X152517633Y-144161325D01*
X152325790Y-143874210D01*
X152325787Y-143874208D01*
X148086657Y-139635077D01*
X148323795Y-139635284D01*
X148924943Y-139386894D01*
X149385278Y-138927363D01*
X149634716Y-138326648D01*
X149635284Y-137676205D01*
X149386894Y-137075057D01*
X148927363Y-136614722D01*
X148326648Y-136365284D01*
X147676205Y-136364716D01*
X147075057Y-136613106D01*
X146614722Y-137072637D01*
X146365284Y-137673352D01*
X146364716Y-138323795D01*
X146613106Y-138924943D01*
X146752918Y-139065000D01*
X144135000Y-139065000D01*
X144135000Y-135600000D01*
X149652560Y-135600000D01*
X149652560Y-137800000D01*
X149696838Y-138035317D01*
X149835910Y-138251441D01*
X150048110Y-138396431D01*
X150300000Y-138447440D01*
X150860600Y-138447440D01*
X150897434Y-138502566D01*
X152114807Y-139719939D01*
X152114760Y-139774285D01*
X152325169Y-140283515D01*
X152714436Y-140673461D01*
X153223298Y-140884759D01*
X153774285Y-140885240D01*
X154283515Y-140674831D01*
X154673461Y-140285564D01*
X154884759Y-139776702D01*
X154885240Y-139225715D01*
X154674831Y-138716485D01*
X154285564Y-138326539D01*
X153776702Y-138115241D01*
X153720324Y-138115192D01*
X153680434Y-138075302D01*
X153696431Y-138051890D01*
X153747440Y-137800000D01*
X153747440Y-135600000D01*
X153703162Y-135364683D01*
X153620196Y-135235750D01*
X154215000Y-135235750D01*
X154215000Y-135826309D01*
X154311673Y-136059698D01*
X154490301Y-136238327D01*
X154723690Y-136335000D01*
X155214250Y-136335000D01*
X155373000Y-136176250D01*
X155373000Y-135077000D01*
X155627000Y-135077000D01*
X155627000Y-136176250D01*
X155785750Y-136335000D01*
X156276310Y-136335000D01*
X156509699Y-136238327D01*
X156688327Y-136059698D01*
X156750000Y-135910806D01*
X156811673Y-136059698D01*
X156990301Y-136238327D01*
X157223690Y-136335000D01*
X157714250Y-136335000D01*
X157873000Y-136176250D01*
X157873000Y-135077000D01*
X158127000Y-135077000D01*
X158127000Y-136176250D01*
X158285750Y-136335000D01*
X158776310Y-136335000D01*
X159009699Y-136238327D01*
X159188327Y-136059698D01*
X159250000Y-135910806D01*
X159311673Y-136059698D01*
X159490301Y-136238327D01*
X159723690Y-136335000D01*
X160214250Y-136335000D01*
X160373000Y-136176250D01*
X160373000Y-135077000D01*
X160627000Y-135077000D01*
X160627000Y-136176250D01*
X160785750Y-136335000D01*
X161276310Y-136335000D01*
X161509699Y-136238327D01*
X161688327Y-136059698D01*
X161750000Y-135910806D01*
X161811673Y-136059698D01*
X161990301Y-136238327D01*
X162223690Y-136335000D01*
X162714250Y-136335000D01*
X162873000Y-136176250D01*
X162873000Y-135077000D01*
X163127000Y-135077000D01*
X163127000Y-136176250D01*
X163285750Y-136335000D01*
X163776310Y-136335000D01*
X164009699Y-136238327D01*
X164188327Y-136059698D01*
X164285000Y-135826309D01*
X164285000Y-135235750D01*
X164465000Y-135235750D01*
X164465000Y-135826309D01*
X164561673Y-136059698D01*
X164740301Y-136238327D01*
X164973690Y-136335000D01*
X165464250Y-136335000D01*
X165623000Y-136176250D01*
X165623000Y-135077000D01*
X165877000Y-135077000D01*
X165877000Y-136176250D01*
X166035750Y-136335000D01*
X166526310Y-136335000D01*
X166759699Y-136238327D01*
X166938327Y-136059698D01*
X167035000Y-135826309D01*
X167035000Y-135235750D01*
X166876250Y-135077000D01*
X165877000Y-135077000D01*
X165623000Y-135077000D01*
X164623750Y-135077000D01*
X164465000Y-135235750D01*
X164285000Y-135235750D01*
X164126250Y-135077000D01*
X163127000Y-135077000D01*
X162873000Y-135077000D01*
X161873750Y-135077000D01*
X161750000Y-135200750D01*
X161626250Y-135077000D01*
X160627000Y-135077000D01*
X160373000Y-135077000D01*
X159373750Y-135077000D01*
X159250000Y-135200750D01*
X159126250Y-135077000D01*
X158127000Y-135077000D01*
X157873000Y-135077000D01*
X156873750Y-135077000D01*
X156750000Y-135200750D01*
X156626250Y-135077000D01*
X155627000Y-135077000D01*
X155373000Y-135077000D01*
X154373750Y-135077000D01*
X154215000Y-135235750D01*
X153620196Y-135235750D01*
X153564090Y-135148559D01*
X153351890Y-135003569D01*
X153100000Y-134952560D01*
X150300000Y-134952560D01*
X150064683Y-134996838D01*
X149848559Y-135135910D01*
X149703569Y-135348110D01*
X149652560Y-135600000D01*
X144135000Y-135600000D01*
X144135000Y-125366580D01*
X147874999Y-121626580D01*
X147998033Y-121749829D01*
X148323190Y-121884846D01*
X148675265Y-121885153D01*
X149000364Y-121750825D01*
X149300709Y-121875539D01*
X150691172Y-123266002D01*
X150937733Y-123430749D01*
X150985987Y-123440347D01*
X151228573Y-123488601D01*
X156650278Y-123488601D01*
X156624489Y-123550709D01*
X154962599Y-125212599D01*
X154797852Y-125459161D01*
X154740000Y-125750000D01*
X154740000Y-130873258D01*
X154614683Y-130896838D01*
X154398559Y-131035910D01*
X154253569Y-131248110D01*
X154202560Y-131500000D01*
X154202560Y-133000000D01*
X154246838Y-133235317D01*
X154385910Y-133451441D01*
X154598110Y-133596431D01*
X154631490Y-133603191D01*
X154490301Y-133661673D01*
X154311673Y-133840302D01*
X154215000Y-134073691D01*
X154215000Y-134664250D01*
X154373750Y-134823000D01*
X155373000Y-134823000D01*
X155373000Y-134803000D01*
X155627000Y-134803000D01*
X155627000Y-134823000D01*
X156626250Y-134823000D01*
X156750000Y-134699250D01*
X156873750Y-134823000D01*
X157873000Y-134823000D01*
X157873000Y-134803000D01*
X158127000Y-134803000D01*
X158127000Y-134823000D01*
X159126250Y-134823000D01*
X159250000Y-134699250D01*
X159373750Y-134823000D01*
X160373000Y-134823000D01*
X160373000Y-134803000D01*
X160627000Y-134803000D01*
X160627000Y-134823000D01*
X161626250Y-134823000D01*
X161750000Y-134699250D01*
X161873750Y-134823000D01*
X162873000Y-134823000D01*
X162873000Y-134803000D01*
X163127000Y-134803000D01*
X163127000Y-134823000D01*
X164126250Y-134823000D01*
X164285000Y-134664250D01*
X164285000Y-134073691D01*
X164188327Y-133840302D01*
X164009699Y-133661673D01*
X163873713Y-133605346D01*
X163885317Y-133603162D01*
X164101441Y-133464090D01*
X164246431Y-133251890D01*
X164297440Y-133000000D01*
X164297440Y-131927362D01*
X164452560Y-131772242D01*
X164452560Y-133000000D01*
X164496838Y-133235317D01*
X164635910Y-133451441D01*
X164848110Y-133596431D01*
X164881490Y-133603191D01*
X164740301Y-133661673D01*
X164561673Y-133840302D01*
X164465000Y-134073691D01*
X164465000Y-134664250D01*
X164623750Y-134823000D01*
X165623000Y-134823000D01*
X165623000Y-134803000D01*
X165877000Y-134803000D01*
X165877000Y-134823000D01*
X166876250Y-134823000D01*
X167035000Y-134664250D01*
X167035000Y-134073691D01*
X166938327Y-133840302D01*
X166759699Y-133661673D01*
X166623713Y-133605346D01*
X166635317Y-133603162D01*
X166851441Y-133464090D01*
X166996431Y-133251890D01*
X167047440Y-133000000D01*
X167047440Y-132873305D01*
X168114674Y-132873305D01*
X168401043Y-133566372D01*
X168930839Y-134097093D01*
X169623405Y-134384672D01*
X170373305Y-134385326D01*
X171066372Y-134098957D01*
X171597093Y-133569161D01*
X171884672Y-132876595D01*
X171885326Y-132126695D01*
X171598957Y-131433628D01*
X171069161Y-130902907D01*
X170376595Y-130615328D01*
X169626695Y-130614674D01*
X168933628Y-130901043D01*
X168402907Y-131430839D01*
X168115328Y-132123405D01*
X168114674Y-132873305D01*
X167047440Y-132873305D01*
X167047440Y-131500000D01*
X167003162Y-131264683D01*
X166864090Y-131048559D01*
X166651890Y-130903569D01*
X166510000Y-130874836D01*
X166510000Y-119210000D01*
X166467837Y-118998033D01*
X166452148Y-118919160D01*
X166287401Y-118672599D01*
X164433158Y-116818356D01*
X164498600Y-116489359D01*
X164498600Y-116430641D01*
X164384526Y-115857152D01*
X164059670Y-115370971D01*
X163788839Y-115190008D01*
X164206821Y-114808490D01*
X164454968Y-114279027D01*
X164334469Y-114047000D01*
X163127000Y-114047000D01*
X163127000Y-114067000D01*
X162873000Y-114067000D01*
X162873000Y-114047000D01*
X162853000Y-114047000D01*
X162853000Y-113793000D01*
X162873000Y-113793000D01*
X162873000Y-112586183D01*
X163127000Y-112586183D01*
X163127000Y-113793000D01*
X164334469Y-113793000D01*
X164454968Y-113560973D01*
X164206821Y-113031510D01*
X163774947Y-112637312D01*
X163359026Y-112465042D01*
X163127000Y-112586183D01*
X162873000Y-112586183D01*
X162640974Y-112465042D01*
X162225053Y-112637312D01*
X161940973Y-112896609D01*
X161926762Y-112821083D01*
X161885000Y-112756183D01*
X161885000Y-111131844D01*
X161951441Y-111089090D01*
X161997969Y-111020994D01*
X162140302Y-111163327D01*
X162373691Y-111260000D01*
X162714250Y-111260000D01*
X162873000Y-111101250D01*
X162873000Y-110127000D01*
X163127000Y-110127000D01*
X163127000Y-111101250D01*
X163285750Y-111260000D01*
X163626309Y-111260000D01*
X163859698Y-111163327D01*
X164038327Y-110984699D01*
X164135000Y-110751310D01*
X164135000Y-110285750D01*
X163976250Y-110127000D01*
X163127000Y-110127000D01*
X162873000Y-110127000D01*
X162853000Y-110127000D01*
X162853000Y-109873000D01*
X162873000Y-109873000D01*
X162873000Y-109853000D01*
X163127000Y-109853000D01*
X163127000Y-109873000D01*
X163976250Y-109873000D01*
X164039251Y-109809999D01*
X172649900Y-109809999D01*
X172661325Y-109817633D01*
X172944709Y-109874002D01*
X172946838Y-109885317D01*
X173085910Y-110101441D01*
X173298110Y-110246431D01*
X173550000Y-110297440D01*
X175050000Y-110297440D01*
X175285317Y-110253162D01*
X175501441Y-110114090D01*
X175646431Y-109901890D01*
X175649081Y-109888803D01*
X175785910Y-110101441D01*
X175998110Y-110246431D01*
X176250000Y-110297440D01*
X177750000Y-110297440D01*
X177985317Y-110253162D01*
X178201441Y-110114090D01*
X178346431Y-109901890D01*
X178349851Y-109885000D01*
X183989327Y-109885000D01*
X183998293Y-109890991D01*
X184470907Y-109985000D01*
X185029093Y-109985000D01*
X185501707Y-109890991D01*
X185902370Y-109623277D01*
X186170084Y-109222614D01*
X186264093Y-108750000D01*
X186170084Y-108277386D01*
X185902370Y-107876723D01*
X185712715Y-107750000D01*
X185902370Y-107623277D01*
X186170084Y-107222614D01*
X186264093Y-106750000D01*
X186170084Y-106277386D01*
X185902370Y-105876723D01*
X185712715Y-105750000D01*
X185902370Y-105623277D01*
X186170084Y-105222614D01*
X186264093Y-104750000D01*
X186170084Y-104277386D01*
X185917926Y-103900004D01*
X186051441Y-103814090D01*
X186196431Y-103601890D01*
X186247440Y-103350000D01*
X186247440Y-102150000D01*
X186203162Y-101914683D01*
X186064090Y-101698559D01*
X185851890Y-101553569D01*
X185600000Y-101502560D01*
X183900000Y-101502560D01*
X183664683Y-101546838D01*
X183448559Y-101685910D01*
X183303569Y-101898110D01*
X183252560Y-102150000D01*
X183252560Y-103350000D01*
X183296838Y-103585317D01*
X183435910Y-103801441D01*
X183528932Y-103865000D01*
X181250005Y-103865000D01*
X181250000Y-103864999D01*
X180967516Y-103921190D01*
X180911325Y-103932367D01*
X180624210Y-104124210D01*
X180624208Y-104124213D01*
X179633420Y-105115000D01*
X178353222Y-105115000D01*
X178353162Y-105114683D01*
X178214090Y-104898559D01*
X178001890Y-104753569D01*
X177750000Y-104702560D01*
X176250000Y-104702560D01*
X176014683Y-104746838D01*
X175798559Y-104885910D01*
X175653569Y-105098110D01*
X175646809Y-105131490D01*
X175588327Y-104990301D01*
X175409698Y-104811673D01*
X175176309Y-104715000D01*
X174585750Y-104715000D01*
X174427000Y-104873750D01*
X174427000Y-105873000D01*
X174447000Y-105873000D01*
X174447000Y-106127000D01*
X174427000Y-106127000D01*
X174427000Y-106147000D01*
X174173000Y-106147000D01*
X174173000Y-106127000D01*
X173073750Y-106127000D01*
X172915000Y-106285750D01*
X172915000Y-106615000D01*
X163366579Y-106615000D01*
X160624885Y-103873305D01*
X168114674Y-103873305D01*
X168401043Y-104566372D01*
X168930839Y-105097093D01*
X169623405Y-105384672D01*
X170373305Y-105385326D01*
X170764494Y-105223690D01*
X172915000Y-105223690D01*
X172915000Y-105714250D01*
X173073750Y-105873000D01*
X174173000Y-105873000D01*
X174173000Y-104873750D01*
X174014250Y-104715000D01*
X173423691Y-104715000D01*
X173190302Y-104811673D01*
X173011673Y-104990301D01*
X172915000Y-105223690D01*
X170764494Y-105223690D01*
X171066372Y-105098957D01*
X171597093Y-104569161D01*
X171884672Y-103876595D01*
X171885326Y-103126695D01*
X171598957Y-102433628D01*
X171069161Y-101902907D01*
X170376595Y-101615328D01*
X169626695Y-101614674D01*
X168933628Y-101901043D01*
X168402907Y-102430839D01*
X168115328Y-103123405D01*
X168114674Y-103873305D01*
X160624885Y-103873305D01*
X157743705Y-100992125D01*
X158071372Y-100856736D01*
X158355737Y-100572866D01*
X158509824Y-100201783D01*
X158510175Y-99799980D01*
X158385000Y-99497032D01*
X158385000Y-91768207D01*
X158385001Y-91768202D01*
X158317633Y-91429528D01*
X158317633Y-91429527D01*
X158125790Y-91142412D01*
X158125787Y-91142410D01*
X157826877Y-90843500D01*
X158361686Y-90622522D01*
X158898039Y-90087105D01*
X159188668Y-89387190D01*
X159189330Y-88629335D01*
X158899922Y-87928914D01*
X158364505Y-87392561D01*
X157664590Y-87101932D01*
X156906735Y-87101270D01*
X156206314Y-87390678D01*
X155669961Y-87926095D01*
X155446831Y-88463454D01*
X152110378Y-85127000D01*
X176873000Y-85127000D01*
X176873000Y-98000000D01*
G36*
X136042598Y-119787400D02*
X136289159Y-119952147D01*
X136579999Y-120009999D01*
X141215000Y-120009999D01*
X141215000Y-120414250D01*
X141373750Y-120573000D01*
X142373000Y-120573000D01*
X142373000Y-120553000D01*
X142627000Y-120553000D01*
X142627000Y-120573000D01*
X143626250Y-120573000D01*
X143785000Y-120414250D01*
X143785000Y-120009999D01*
X144745202Y-120009999D01*
X144624489Y-120300709D01*
X143785000Y-121140198D01*
X143785000Y-120985750D01*
X143626250Y-120827000D01*
X142627000Y-120827000D01*
X142627000Y-120847000D01*
X142373000Y-120847000D01*
X142373000Y-120827000D01*
X141373750Y-120827000D01*
X141215000Y-120985750D01*
X141215000Y-121240000D01*
X137104802Y-121240000D01*
X131339907Y-115475105D01*
X131533893Y-115475275D01*
X131672996Y-115417798D01*
X136042598Y-119787400D01*
X136042598Y-119787400D01*
G37*
X136042598Y-119787400D02*
X136289159Y-119952147D01*
X136579999Y-120009999D01*
X141215000Y-120009999D01*
X141215000Y-120414250D01*
X141373750Y-120573000D01*
X142373000Y-120573000D01*
X142373000Y-120553000D01*
X142627000Y-120553000D01*
X142627000Y-120573000D01*
X143626250Y-120573000D01*
X143785000Y-120414250D01*
X143785000Y-120009999D01*
X144745202Y-120009999D01*
X144624489Y-120300709D01*
X143785000Y-121140198D01*
X143785000Y-120985750D01*
X143626250Y-120827000D01*
X142627000Y-120827000D01*
X142627000Y-120847000D01*
X142373000Y-120847000D01*
X142373000Y-120827000D01*
X141373750Y-120827000D01*
X141215000Y-120985750D01*
X141215000Y-121240000D01*
X137104802Y-121240000D01*
X131339907Y-115475105D01*
X131533893Y-115475275D01*
X131672996Y-115417798D01*
X136042598Y-119787400D01*
G36*
X149050236Y-112301789D02*
X148622539Y-112318648D01*
X148155792Y-112511981D01*
X148063255Y-112773650D01*
X149000000Y-113710395D01*
X149014143Y-113696253D01*
X149193748Y-113875858D01*
X149179605Y-113890000D01*
X149193748Y-113904143D01*
X149014143Y-114083748D01*
X149000000Y-114069605D01*
X148063255Y-115006350D01*
X148155792Y-115268019D01*
X148747398Y-115486188D01*
X149377461Y-115461352D01*
X149844208Y-115268019D01*
X149936744Y-115006352D01*
X150051158Y-115120766D01*
X150115000Y-115056924D01*
X150115000Y-115633421D01*
X146749892Y-118998529D01*
X146501967Y-118750171D01*
X146176810Y-118615154D01*
X145824735Y-118614847D01*
X145711269Y-118661730D01*
X145540836Y-118547851D01*
X145249997Y-118489999D01*
X143797440Y-118489999D01*
X143797440Y-117677362D01*
X146042112Y-115432690D01*
X146143341Y-115474724D01*
X146773893Y-115475275D01*
X147356657Y-115234481D01*
X147796116Y-114795789D01*
X147883650Y-114826745D01*
X148820395Y-113890000D01*
X147883650Y-112953255D01*
X147795561Y-112984407D01*
X147359003Y-112547086D01*
X147345000Y-112541271D01*
X147345000Y-110596553D01*
X149050236Y-112301789D01*
X149050236Y-112301789D01*
G37*
X149050236Y-112301789D02*
X148622539Y-112318648D01*
X148155792Y-112511981D01*
X148063255Y-112773650D01*
X149000000Y-113710395D01*
X149014143Y-113696253D01*
X149193748Y-113875858D01*
X149179605Y-113890000D01*
X149193748Y-113904143D01*
X149014143Y-114083748D01*
X149000000Y-114069605D01*
X148063255Y-115006350D01*
X148155792Y-115268019D01*
X148747398Y-115486188D01*
X149377461Y-115461352D01*
X149844208Y-115268019D01*
X149936744Y-115006352D01*
X150051158Y-115120766D01*
X150115000Y-115056924D01*
X150115000Y-115633421D01*
X146749892Y-118998529D01*
X146501967Y-118750171D01*
X146176810Y-118615154D01*
X145824735Y-118614847D01*
X145711269Y-118661730D01*
X145540836Y-118547851D01*
X145249997Y-118489999D01*
X143797440Y-118489999D01*
X143797440Y-117677362D01*
X146042112Y-115432690D01*
X146143341Y-115474724D01*
X146773893Y-115475275D01*
X147356657Y-115234481D01*
X147796116Y-114795789D01*
X147883650Y-114826745D01*
X148820395Y-113890000D01*
X147883650Y-112953255D01*
X147795561Y-112984407D01*
X147359003Y-112547086D01*
X147345000Y-112541271D01*
X147345000Y-110596553D01*
X149050236Y-112301789D01*
M02*
