G04 #@! TF.FileFunction,Legend,Top*
%FSLAX46Y46*%
G04 Gerber Fmt 4.6, Leading zero omitted, Abs format (unit mm)*
G04 Created by KiCad (PCBNEW 4.0.5) date 01/03/17 14:11:24*
%MOMM*%
%LPD*%
G01*
G04 APERTURE LIST*
%ADD10C,0.100000*%
%ADD11C,0.300000*%
%ADD12C,0.150000*%
%ADD13C,0.500000*%
%ADD14C,0.010000*%
%ADD15C,0.120000*%
%ADD16C,0.160000*%
G04 APERTURE END LIST*
D10*
D11*
X154857144Y-145153571D02*
X154857144Y-143653571D01*
X155428572Y-143653571D01*
X155571430Y-143725000D01*
X155642858Y-143796429D01*
X155714287Y-143939286D01*
X155714287Y-144153571D01*
X155642858Y-144296429D01*
X155571430Y-144367857D01*
X155428572Y-144439286D01*
X154857144Y-144439286D01*
X156142858Y-143653571D02*
X157000001Y-143653571D01*
X156571430Y-145153571D02*
X156571430Y-143653571D01*
X158214287Y-145153571D02*
X157500001Y-145153571D01*
X157500001Y-143653571D01*
X158714287Y-144582143D02*
X159857144Y-144582143D01*
X160571430Y-145153571D02*
X160571430Y-143653571D01*
X161142858Y-143653571D01*
X161285716Y-143725000D01*
X161357144Y-143796429D01*
X161428573Y-143939286D01*
X161428573Y-144153571D01*
X161357144Y-144296429D01*
X161285716Y-144367857D01*
X161142858Y-144439286D01*
X160571430Y-144439286D01*
X162928573Y-145010714D02*
X162857144Y-145082143D01*
X162642858Y-145153571D01*
X162500001Y-145153571D01*
X162285716Y-145082143D01*
X162142858Y-144939286D01*
X162071430Y-144796429D01*
X162000001Y-144510714D01*
X162000001Y-144296429D01*
X162071430Y-144010714D01*
X162142858Y-143867857D01*
X162285716Y-143725000D01*
X162500001Y-143653571D01*
X162642858Y-143653571D01*
X162857144Y-143725000D01*
X162928573Y-143796429D01*
X164071430Y-144367857D02*
X164285716Y-144439286D01*
X164357144Y-144510714D01*
X164428573Y-144653571D01*
X164428573Y-144867857D01*
X164357144Y-145010714D01*
X164285716Y-145082143D01*
X164142858Y-145153571D01*
X163571430Y-145153571D01*
X163571430Y-143653571D01*
X164071430Y-143653571D01*
X164214287Y-143725000D01*
X164285716Y-143796429D01*
X164357144Y-143939286D01*
X164357144Y-144082143D01*
X164285716Y-144225000D01*
X164214287Y-144296429D01*
X164071430Y-144367857D01*
X163571430Y-144367857D01*
X165000001Y-144725000D02*
X165714287Y-144725000D01*
X164857144Y-145153571D02*
X165357144Y-143653571D01*
X165857144Y-145153571D01*
X166642858Y-143653571D02*
X166785715Y-143653571D01*
X166928572Y-143725000D01*
X167000001Y-143796429D01*
X167071430Y-143939286D01*
X167142858Y-144225000D01*
X167142858Y-144582143D01*
X167071430Y-144867857D01*
X167000001Y-145010714D01*
X166928572Y-145082143D01*
X166785715Y-145153571D01*
X166642858Y-145153571D01*
X166500001Y-145082143D01*
X166428572Y-145010714D01*
X166357144Y-144867857D01*
X166285715Y-144582143D01*
X166285715Y-144225000D01*
X166357144Y-143939286D01*
X166428572Y-143796429D01*
X166500001Y-143725000D01*
X166642858Y-143653571D01*
X168071429Y-143653571D02*
X168214286Y-143653571D01*
X168357143Y-143725000D01*
X168428572Y-143796429D01*
X168500001Y-143939286D01*
X168571429Y-144225000D01*
X168571429Y-144582143D01*
X168500001Y-144867857D01*
X168428572Y-145010714D01*
X168357143Y-145082143D01*
X168214286Y-145153571D01*
X168071429Y-145153571D01*
X167928572Y-145082143D01*
X167857143Y-145010714D01*
X167785715Y-144867857D01*
X167714286Y-144582143D01*
X167714286Y-144225000D01*
X167785715Y-143939286D01*
X167857143Y-143796429D01*
X167928572Y-143725000D01*
X168071429Y-143653571D01*
X170000000Y-145153571D02*
X169142857Y-145153571D01*
X169571429Y-145153571D02*
X169571429Y-143653571D01*
X169428572Y-143867857D01*
X169285714Y-144010714D01*
X169142857Y-144082143D01*
X170642857Y-144582143D02*
X171785714Y-144582143D01*
X172785714Y-143653571D02*
X172928571Y-143653571D01*
X173071428Y-143725000D01*
X173142857Y-143796429D01*
X173214286Y-143939286D01*
X173285714Y-144225000D01*
X173285714Y-144582143D01*
X173214286Y-144867857D01*
X173142857Y-145010714D01*
X173071428Y-145082143D01*
X172928571Y-145153571D01*
X172785714Y-145153571D01*
X172642857Y-145082143D01*
X172571428Y-145010714D01*
X172500000Y-144867857D01*
X172428571Y-144582143D01*
X172428571Y-144225000D01*
X172500000Y-143939286D01*
X172571428Y-143796429D01*
X172642857Y-143725000D01*
X172785714Y-143653571D01*
X174714285Y-145153571D02*
X173857142Y-145153571D01*
X174285714Y-145153571D02*
X174285714Y-143653571D01*
X174142857Y-143867857D01*
X173999999Y-144010714D01*
X173857142Y-144082143D01*
X158107144Y-146203571D02*
X158250001Y-146203571D01*
X158392858Y-146275000D01*
X158464287Y-146346429D01*
X158535716Y-146489286D01*
X158607144Y-146775000D01*
X158607144Y-147132143D01*
X158535716Y-147417857D01*
X158464287Y-147560714D01*
X158392858Y-147632143D01*
X158250001Y-147703571D01*
X158107144Y-147703571D01*
X157964287Y-147632143D01*
X157892858Y-147560714D01*
X157821430Y-147417857D01*
X157750001Y-147132143D01*
X157750001Y-146775000D01*
X157821430Y-146489286D01*
X157892858Y-146346429D01*
X157964287Y-146275000D01*
X158107144Y-146203571D01*
X160035715Y-147703571D02*
X159178572Y-147703571D01*
X159607144Y-147703571D02*
X159607144Y-146203571D01*
X159464287Y-146417857D01*
X159321429Y-146560714D01*
X159178572Y-146632143D01*
X161750000Y-146132143D02*
X160464286Y-148060714D01*
X162535715Y-146203571D02*
X162678572Y-146203571D01*
X162821429Y-146275000D01*
X162892858Y-146346429D01*
X162964287Y-146489286D01*
X163035715Y-146775000D01*
X163035715Y-147132143D01*
X162964287Y-147417857D01*
X162892858Y-147560714D01*
X162821429Y-147632143D01*
X162678572Y-147703571D01*
X162535715Y-147703571D01*
X162392858Y-147632143D01*
X162321429Y-147560714D01*
X162250001Y-147417857D01*
X162178572Y-147132143D01*
X162178572Y-146775000D01*
X162250001Y-146489286D01*
X162321429Y-146346429D01*
X162392858Y-146275000D01*
X162535715Y-146203571D01*
X163535715Y-146203571D02*
X164464286Y-146203571D01*
X163964286Y-146775000D01*
X164178572Y-146775000D01*
X164321429Y-146846429D01*
X164392858Y-146917857D01*
X164464286Y-147060714D01*
X164464286Y-147417857D01*
X164392858Y-147560714D01*
X164321429Y-147632143D01*
X164178572Y-147703571D01*
X163750000Y-147703571D01*
X163607143Y-147632143D01*
X163535715Y-147560714D01*
X166178571Y-146132143D02*
X164892857Y-148060714D01*
X166607143Y-146346429D02*
X166678572Y-146275000D01*
X166821429Y-146203571D01*
X167178572Y-146203571D01*
X167321429Y-146275000D01*
X167392858Y-146346429D01*
X167464286Y-146489286D01*
X167464286Y-146632143D01*
X167392858Y-146846429D01*
X166535715Y-147703571D01*
X167464286Y-147703571D01*
X168392857Y-146203571D02*
X168535714Y-146203571D01*
X168678571Y-146275000D01*
X168750000Y-146346429D01*
X168821429Y-146489286D01*
X168892857Y-146775000D01*
X168892857Y-147132143D01*
X168821429Y-147417857D01*
X168750000Y-147560714D01*
X168678571Y-147632143D01*
X168535714Y-147703571D01*
X168392857Y-147703571D01*
X168250000Y-147632143D01*
X168178571Y-147560714D01*
X168107143Y-147417857D01*
X168035714Y-147132143D01*
X168035714Y-146775000D01*
X168107143Y-146489286D01*
X168178571Y-146346429D01*
X168250000Y-146275000D01*
X168392857Y-146203571D01*
X170321428Y-147703571D02*
X169464285Y-147703571D01*
X169892857Y-147703571D02*
X169892857Y-146203571D01*
X169750000Y-146417857D01*
X169607142Y-146560714D01*
X169464285Y-146632143D01*
X170821428Y-146203571D02*
X171821428Y-146203571D01*
X171178571Y-147703571D01*
D12*
X153750000Y-35900000D02*
X153750000Y-30900000D01*
X153750000Y-30900000D02*
X170250000Y-30900000D01*
X170250000Y-30900000D02*
X170250000Y-35900000D01*
X152750000Y-55400000D02*
X171250000Y-55400000D01*
X171250000Y-55400000D02*
X171250000Y-35900000D01*
X171250000Y-35900000D02*
X152750000Y-35900000D01*
X152750000Y-35900000D02*
X152750000Y-55400000D01*
X132750000Y-35900000D02*
X132750000Y-30900000D01*
X132750000Y-30900000D02*
X149250000Y-30900000D01*
X149250000Y-30900000D02*
X149250000Y-35900000D01*
X131750000Y-55400000D02*
X150250000Y-55400000D01*
X150250000Y-55400000D02*
X150250000Y-35900000D01*
X150250000Y-35900000D02*
X131750000Y-35900000D01*
X131750000Y-35900000D02*
X131750000Y-55400000D01*
X119790000Y-115160000D02*
X116742000Y-113636000D01*
X119790000Y-94840000D02*
X116742000Y-96364000D01*
X116742000Y-96364000D02*
X116742000Y-113636000D01*
X153318000Y-115160000D02*
X119790000Y-115160000D01*
X153318000Y-94840000D02*
X119790000Y-94840000D01*
X153318000Y-109013200D02*
X153318000Y-115160000D01*
X153318000Y-100986800D02*
X153318000Y-94840000D01*
X155223000Y-100986800D02*
X153318000Y-100986800D01*
X155223000Y-109013200D02*
X153318000Y-109013200D01*
X155223000Y-100986800D02*
X155223000Y-109013200D01*
X158936000Y-112396000D02*
X158936000Y-127646000D01*
X187686000Y-112396000D02*
X158936000Y-112396000D01*
X187686000Y-127646000D02*
X187686000Y-112396000D01*
X158936000Y-127646000D02*
X187686000Y-127646000D01*
X159063000Y-115190000D02*
X159063000Y-112523000D01*
X159063000Y-112523000D02*
X161730000Y-112523000D01*
X159190000Y-120270000D02*
X159190000Y-122810000D01*
X159190000Y-122810000D02*
X161730000Y-122810000D01*
X159190000Y-115190000D02*
X161730000Y-115190000D01*
X161730000Y-115190000D02*
X161730000Y-112650000D01*
X159190000Y-120270000D02*
X159190000Y-112650000D01*
X159190000Y-112650000D02*
X164270000Y-112650000D01*
X164270000Y-112650000D02*
X164270000Y-122810000D01*
X164270000Y-122810000D02*
X161730000Y-122810000D01*
X162500000Y-109150000D02*
X161500000Y-109150000D01*
X161500000Y-110850000D02*
X162500000Y-110850000D01*
X130850000Y-67750000D02*
X130850000Y-66750000D01*
X129150000Y-66750000D02*
X129150000Y-67750000D01*
X140850000Y-70750000D02*
X140850000Y-69750000D01*
X139150000Y-69750000D02*
X139150000Y-70750000D01*
X122250000Y-51350980D02*
X122250000Y-54050980D01*
X123750000Y-51350980D02*
X123750000Y-54050980D01*
X122850000Y-52850980D02*
X123100000Y-52850980D01*
X123100000Y-52850980D02*
X122950000Y-52700980D01*
X123350000Y-52600980D02*
X122650000Y-52600980D01*
X123000000Y-52950980D02*
X123000000Y-53300980D01*
X123000000Y-52600980D02*
X123350000Y-52950980D01*
X123350000Y-52950980D02*
X122650000Y-52950980D01*
X122650000Y-52950980D02*
X123000000Y-52600980D01*
X127250000Y-51350980D02*
X127250000Y-54050980D01*
X128750000Y-51350980D02*
X128750000Y-54050980D01*
X127850000Y-52850980D02*
X128100000Y-52850980D01*
X128100000Y-52850980D02*
X127950000Y-52700980D01*
X128350000Y-52600980D02*
X127650000Y-52600980D01*
X128000000Y-52950980D02*
X128000000Y-53300980D01*
X128000000Y-52600980D02*
X128350000Y-52950980D01*
X128350000Y-52950980D02*
X127650000Y-52950980D01*
X127650000Y-52950980D02*
X128000000Y-52600980D01*
X157747540Y-68000000D02*
X164249940Y-68000000D01*
X157747540Y-71500120D02*
X157747540Y-64499880D01*
X148999780Y-64499880D02*
X157747540Y-64499880D01*
X148999780Y-71500120D02*
X157747540Y-71500120D01*
X171748020Y-65500640D02*
X172997700Y-65500640D01*
X171499100Y-70499360D02*
X172997700Y-70499360D01*
X159497600Y-65500640D02*
X171748020Y-65500640D01*
X159749060Y-70499360D02*
X171499100Y-70499360D01*
X148999780Y-65500640D02*
X159497600Y-65500640D01*
X148999780Y-70499360D02*
X159749060Y-70499360D01*
X148999780Y-70499360D02*
X148999780Y-65500640D01*
X147999020Y-71500120D02*
X148999780Y-71500120D01*
X147999020Y-71500120D02*
X147999020Y-64499880D01*
X147999020Y-64499880D02*
X148999780Y-64499880D01*
X172997700Y-70499360D02*
X172997700Y-65500640D01*
X164249940Y-71500120D02*
X173998460Y-71500120D01*
X173998460Y-71500120D02*
X173998460Y-64499880D01*
X164249940Y-64499880D02*
X173998460Y-64499880D01*
X164249940Y-71500120D02*
X164249940Y-64499880D01*
D13*
X149800000Y-149500000D02*
X149800000Y-151000000D01*
X149800000Y-151000000D02*
X146200000Y-151000000D01*
X146200000Y-151000000D02*
X146200000Y-149500000D01*
X145000000Y-149500000D02*
X145000000Y-145700000D01*
X151000000Y-134000000D02*
X151000000Y-135200000D01*
X151000000Y-144500000D02*
X151000000Y-138300000D01*
X145000000Y-134000000D02*
X151000000Y-134000000D01*
X145000000Y-142700000D02*
X145000000Y-134000000D01*
X145000000Y-149500000D02*
X149800000Y-149500000D01*
D12*
X182500000Y-56250000D02*
X177000000Y-56250000D01*
X182500000Y-58500000D02*
X182500000Y-56250000D01*
X185500000Y-58500000D02*
X182500000Y-58500000D01*
X185500000Y-65500000D02*
X185500000Y-58500000D01*
X182500000Y-65500000D02*
X185500000Y-65500000D01*
X182500000Y-67750000D02*
X182500000Y-65500000D01*
X177000000Y-67750000D02*
X182500000Y-67750000D01*
X177000000Y-56250000D02*
X177000000Y-67750000D01*
X134250000Y-75500000D02*
X134250000Y-81000000D01*
X134750000Y-75500000D02*
X134250000Y-75500000D01*
X134750000Y-72500000D02*
X134750000Y-75500000D01*
X141750000Y-72500000D02*
X134750000Y-72500000D01*
X141750000Y-75500000D02*
X141750000Y-72500000D01*
X142250000Y-75500000D02*
X141750000Y-75500000D01*
X142250000Y-81000000D02*
X142250000Y-75500000D01*
X134250000Y-81000000D02*
X142250000Y-81000000D01*
D14*
G36*
X126555814Y-143468931D02*
X126639635Y-143913555D01*
X126948920Y-144041053D01*
X127258206Y-144168551D01*
X127629246Y-143916246D01*
X127733157Y-143845996D01*
X127827087Y-143783272D01*
X127906652Y-143730938D01*
X127967470Y-143691857D01*
X128005157Y-143668893D01*
X128015421Y-143663942D01*
X128033910Y-143676676D01*
X128073420Y-143711882D01*
X128129522Y-143765062D01*
X128197787Y-143831718D01*
X128273786Y-143907354D01*
X128353092Y-143987472D01*
X128431275Y-144067574D01*
X128503907Y-144143164D01*
X128566559Y-144209745D01*
X128614803Y-144262818D01*
X128644210Y-144297887D01*
X128651241Y-144309623D01*
X128641123Y-144331260D01*
X128612759Y-144378662D01*
X128569129Y-144447193D01*
X128513218Y-144532215D01*
X128448006Y-144629093D01*
X128410219Y-144684350D01*
X128341343Y-144785248D01*
X128280140Y-144876299D01*
X128229578Y-144952970D01*
X128192628Y-145010728D01*
X128172258Y-145045043D01*
X128169197Y-145052254D01*
X128176136Y-145072748D01*
X128195051Y-145120513D01*
X128223087Y-145188832D01*
X128257391Y-145270989D01*
X128295109Y-145360270D01*
X128333387Y-145449958D01*
X128369370Y-145533338D01*
X128400206Y-145603694D01*
X128423039Y-145654310D01*
X128435017Y-145678471D01*
X128435724Y-145679422D01*
X128454531Y-145684036D01*
X128504618Y-145694328D01*
X128580793Y-145709287D01*
X128677865Y-145727901D01*
X128790643Y-145749159D01*
X128856442Y-145761418D01*
X128976950Y-145784362D01*
X129085797Y-145806195D01*
X129177476Y-145825722D01*
X129246481Y-145841748D01*
X129287304Y-145853079D01*
X129295511Y-145856674D01*
X129303548Y-145881006D01*
X129310033Y-145935959D01*
X129314970Y-146015108D01*
X129318364Y-146112026D01*
X129320218Y-146220287D01*
X129320538Y-146333465D01*
X129319327Y-146445135D01*
X129316590Y-146548868D01*
X129312331Y-146638241D01*
X129306555Y-146706826D01*
X129299267Y-146748197D01*
X129294895Y-146756810D01*
X129268764Y-146767133D01*
X129213393Y-146781892D01*
X129136107Y-146799352D01*
X129044230Y-146817780D01*
X129012158Y-146823741D01*
X128857524Y-146852066D01*
X128735375Y-146874876D01*
X128641673Y-146893080D01*
X128572384Y-146907583D01*
X128523471Y-146919292D01*
X128490897Y-146929115D01*
X128470628Y-146937956D01*
X128458626Y-146946724D01*
X128456947Y-146948457D01*
X128440184Y-146976371D01*
X128414614Y-147030695D01*
X128382788Y-147104777D01*
X128347260Y-147191965D01*
X128310583Y-147285608D01*
X128275311Y-147379052D01*
X128243996Y-147465647D01*
X128219193Y-147538740D01*
X128203454Y-147591678D01*
X128199332Y-147617811D01*
X128199676Y-147618726D01*
X128213641Y-147640086D01*
X128245322Y-147687084D01*
X128291391Y-147754827D01*
X128348518Y-147838423D01*
X128413373Y-147932982D01*
X128431843Y-147959854D01*
X128497699Y-148057275D01*
X128555650Y-148146163D01*
X128602538Y-148221412D01*
X128635207Y-148277920D01*
X128650500Y-148310581D01*
X128651241Y-148314593D01*
X128638392Y-148335684D01*
X128602888Y-148377464D01*
X128549293Y-148435445D01*
X128482171Y-148505135D01*
X128406087Y-148582045D01*
X128325604Y-148661683D01*
X128245287Y-148739561D01*
X128169699Y-148811186D01*
X128103405Y-148872070D01*
X128050969Y-148917721D01*
X128016955Y-148943650D01*
X128007545Y-148947883D01*
X127985643Y-148937912D01*
X127940800Y-148911020D01*
X127880321Y-148871736D01*
X127833789Y-148840117D01*
X127749475Y-148782098D01*
X127649626Y-148713784D01*
X127549473Y-148645579D01*
X127495627Y-148609075D01*
X127313371Y-148485800D01*
X127160381Y-148568520D01*
X127090682Y-148604759D01*
X127031414Y-148632926D01*
X126991311Y-148648991D01*
X126981103Y-148651226D01*
X126968829Y-148634722D01*
X126944613Y-148588082D01*
X126910263Y-148515609D01*
X126867588Y-148421606D01*
X126818394Y-148310374D01*
X126764490Y-148186215D01*
X126707684Y-148053432D01*
X126649782Y-147916327D01*
X126592593Y-147779202D01*
X126537924Y-147646358D01*
X126487584Y-147522098D01*
X126443380Y-147410725D01*
X126407119Y-147316539D01*
X126380609Y-147243844D01*
X126365658Y-147196941D01*
X126363254Y-147180833D01*
X126382311Y-147160286D01*
X126424036Y-147126933D01*
X126479706Y-147087702D01*
X126484378Y-147084599D01*
X126628264Y-146969423D01*
X126744283Y-146835053D01*
X126831430Y-146685784D01*
X126888699Y-146525913D01*
X126915086Y-146359737D01*
X126909585Y-146191552D01*
X126871190Y-146025655D01*
X126798895Y-145866342D01*
X126777626Y-145831487D01*
X126666996Y-145690737D01*
X126536302Y-145577714D01*
X126390064Y-145493003D01*
X126232808Y-145437194D01*
X126069057Y-145410874D01*
X125903333Y-145414630D01*
X125740162Y-145449050D01*
X125584065Y-145514723D01*
X125439567Y-145612235D01*
X125394869Y-145651813D01*
X125281112Y-145775703D01*
X125198218Y-145906124D01*
X125141356Y-146052315D01*
X125109687Y-146197088D01*
X125101869Y-146359860D01*
X125127938Y-146523440D01*
X125185245Y-146682298D01*
X125271144Y-146830906D01*
X125382986Y-146963735D01*
X125518123Y-147075256D01*
X125535883Y-147087011D01*
X125592150Y-147125508D01*
X125634923Y-147158863D01*
X125655372Y-147180160D01*
X125655669Y-147180833D01*
X125651279Y-147203871D01*
X125633876Y-147256157D01*
X125605268Y-147333390D01*
X125567265Y-147431268D01*
X125521674Y-147545491D01*
X125470303Y-147671758D01*
X125414962Y-147805767D01*
X125357458Y-147943218D01*
X125299601Y-148079808D01*
X125243198Y-148211237D01*
X125190058Y-148333205D01*
X125141990Y-148441409D01*
X125100801Y-148531549D01*
X125068301Y-148599323D01*
X125046297Y-148640430D01*
X125037436Y-148651226D01*
X125010360Y-148642819D01*
X124959697Y-148620272D01*
X124894183Y-148587613D01*
X124858159Y-148568520D01*
X124705168Y-148485800D01*
X124522912Y-148609075D01*
X124429875Y-148672228D01*
X124328015Y-148741727D01*
X124232562Y-148807165D01*
X124184750Y-148840117D01*
X124117505Y-148885273D01*
X124060564Y-148921057D01*
X124021354Y-148942938D01*
X124008619Y-148947563D01*
X123990083Y-148935085D01*
X123949059Y-148900252D01*
X123889525Y-148846678D01*
X123815458Y-148777983D01*
X123730835Y-148697781D01*
X123677315Y-148646286D01*
X123583681Y-148554286D01*
X123502759Y-148471999D01*
X123437823Y-148402945D01*
X123392142Y-148350644D01*
X123368989Y-148318616D01*
X123366768Y-148312116D01*
X123377076Y-148287394D01*
X123405561Y-148237405D01*
X123449063Y-148167212D01*
X123504423Y-148081875D01*
X123568480Y-147986456D01*
X123586697Y-147959854D01*
X123653073Y-147863167D01*
X123712622Y-147776117D01*
X123762016Y-147703595D01*
X123797925Y-147650493D01*
X123817019Y-147621703D01*
X123818864Y-147618726D01*
X123816105Y-147595782D01*
X123801462Y-147545336D01*
X123777487Y-147474041D01*
X123746734Y-147388547D01*
X123711756Y-147295507D01*
X123675107Y-147201574D01*
X123639339Y-147113399D01*
X123607006Y-147037634D01*
X123580662Y-146980931D01*
X123562858Y-146949943D01*
X123561593Y-146948457D01*
X123550706Y-146939601D01*
X123532318Y-146930843D01*
X123502394Y-146921277D01*
X123456897Y-146909996D01*
X123391791Y-146896093D01*
X123303039Y-146878663D01*
X123186607Y-146856798D01*
X123038458Y-146829591D01*
X123006382Y-146823741D01*
X122911314Y-146805374D01*
X122828435Y-146787405D01*
X122765070Y-146771569D01*
X122728542Y-146759600D01*
X122723644Y-146756810D01*
X122715573Y-146732072D01*
X122709013Y-146676790D01*
X122703967Y-146597389D01*
X122700441Y-146500296D01*
X122698439Y-146391938D01*
X122697964Y-146278740D01*
X122699023Y-146167128D01*
X122701618Y-146063529D01*
X122705754Y-145974368D01*
X122711437Y-145906072D01*
X122718669Y-145865066D01*
X122723029Y-145856674D01*
X122747302Y-145848208D01*
X122802574Y-145834435D01*
X122883338Y-145816550D01*
X122984088Y-145795748D01*
X123099317Y-145773223D01*
X123162098Y-145761418D01*
X123281213Y-145739151D01*
X123387435Y-145718979D01*
X123475573Y-145701915D01*
X123540434Y-145688969D01*
X123576826Y-145681155D01*
X123582816Y-145679422D01*
X123592939Y-145659890D01*
X123614338Y-145612843D01*
X123644161Y-145545003D01*
X123679555Y-145463091D01*
X123717668Y-145373828D01*
X123755647Y-145283935D01*
X123790640Y-145200135D01*
X123819794Y-145129147D01*
X123840257Y-145077694D01*
X123849177Y-145052497D01*
X123849343Y-145051396D01*
X123839231Y-145031519D01*
X123810883Y-144985777D01*
X123767277Y-144918717D01*
X123711394Y-144834884D01*
X123646213Y-144738826D01*
X123608321Y-144683650D01*
X123539275Y-144582481D01*
X123477950Y-144490630D01*
X123427337Y-144412744D01*
X123390429Y-144353469D01*
X123370218Y-144317451D01*
X123367299Y-144309377D01*
X123379847Y-144290584D01*
X123414537Y-144250457D01*
X123466937Y-144193493D01*
X123532616Y-144124185D01*
X123607144Y-144047031D01*
X123686087Y-143966525D01*
X123765017Y-143887163D01*
X123839500Y-143813440D01*
X123905106Y-143749852D01*
X123957404Y-143700894D01*
X123991961Y-143671061D01*
X124003522Y-143663942D01*
X124022346Y-143673953D01*
X124067369Y-143702078D01*
X124134213Y-143745454D01*
X124218501Y-143801218D01*
X124315856Y-143866506D01*
X124389293Y-143916246D01*
X124760333Y-144168551D01*
X125378905Y-143913555D01*
X125462725Y-143468931D01*
X125546546Y-143024307D01*
X126471994Y-143024307D01*
X126555814Y-143468931D01*
X126555814Y-143468931D01*
G37*
X126555814Y-143468931D02*
X126639635Y-143913555D01*
X126948920Y-144041053D01*
X127258206Y-144168551D01*
X127629246Y-143916246D01*
X127733157Y-143845996D01*
X127827087Y-143783272D01*
X127906652Y-143730938D01*
X127967470Y-143691857D01*
X128005157Y-143668893D01*
X128015421Y-143663942D01*
X128033910Y-143676676D01*
X128073420Y-143711882D01*
X128129522Y-143765062D01*
X128197787Y-143831718D01*
X128273786Y-143907354D01*
X128353092Y-143987472D01*
X128431275Y-144067574D01*
X128503907Y-144143164D01*
X128566559Y-144209745D01*
X128614803Y-144262818D01*
X128644210Y-144297887D01*
X128651241Y-144309623D01*
X128641123Y-144331260D01*
X128612759Y-144378662D01*
X128569129Y-144447193D01*
X128513218Y-144532215D01*
X128448006Y-144629093D01*
X128410219Y-144684350D01*
X128341343Y-144785248D01*
X128280140Y-144876299D01*
X128229578Y-144952970D01*
X128192628Y-145010728D01*
X128172258Y-145045043D01*
X128169197Y-145052254D01*
X128176136Y-145072748D01*
X128195051Y-145120513D01*
X128223087Y-145188832D01*
X128257391Y-145270989D01*
X128295109Y-145360270D01*
X128333387Y-145449958D01*
X128369370Y-145533338D01*
X128400206Y-145603694D01*
X128423039Y-145654310D01*
X128435017Y-145678471D01*
X128435724Y-145679422D01*
X128454531Y-145684036D01*
X128504618Y-145694328D01*
X128580793Y-145709287D01*
X128677865Y-145727901D01*
X128790643Y-145749159D01*
X128856442Y-145761418D01*
X128976950Y-145784362D01*
X129085797Y-145806195D01*
X129177476Y-145825722D01*
X129246481Y-145841748D01*
X129287304Y-145853079D01*
X129295511Y-145856674D01*
X129303548Y-145881006D01*
X129310033Y-145935959D01*
X129314970Y-146015108D01*
X129318364Y-146112026D01*
X129320218Y-146220287D01*
X129320538Y-146333465D01*
X129319327Y-146445135D01*
X129316590Y-146548868D01*
X129312331Y-146638241D01*
X129306555Y-146706826D01*
X129299267Y-146748197D01*
X129294895Y-146756810D01*
X129268764Y-146767133D01*
X129213393Y-146781892D01*
X129136107Y-146799352D01*
X129044230Y-146817780D01*
X129012158Y-146823741D01*
X128857524Y-146852066D01*
X128735375Y-146874876D01*
X128641673Y-146893080D01*
X128572384Y-146907583D01*
X128523471Y-146919292D01*
X128490897Y-146929115D01*
X128470628Y-146937956D01*
X128458626Y-146946724D01*
X128456947Y-146948457D01*
X128440184Y-146976371D01*
X128414614Y-147030695D01*
X128382788Y-147104777D01*
X128347260Y-147191965D01*
X128310583Y-147285608D01*
X128275311Y-147379052D01*
X128243996Y-147465647D01*
X128219193Y-147538740D01*
X128203454Y-147591678D01*
X128199332Y-147617811D01*
X128199676Y-147618726D01*
X128213641Y-147640086D01*
X128245322Y-147687084D01*
X128291391Y-147754827D01*
X128348518Y-147838423D01*
X128413373Y-147932982D01*
X128431843Y-147959854D01*
X128497699Y-148057275D01*
X128555650Y-148146163D01*
X128602538Y-148221412D01*
X128635207Y-148277920D01*
X128650500Y-148310581D01*
X128651241Y-148314593D01*
X128638392Y-148335684D01*
X128602888Y-148377464D01*
X128549293Y-148435445D01*
X128482171Y-148505135D01*
X128406087Y-148582045D01*
X128325604Y-148661683D01*
X128245287Y-148739561D01*
X128169699Y-148811186D01*
X128103405Y-148872070D01*
X128050969Y-148917721D01*
X128016955Y-148943650D01*
X128007545Y-148947883D01*
X127985643Y-148937912D01*
X127940800Y-148911020D01*
X127880321Y-148871736D01*
X127833789Y-148840117D01*
X127749475Y-148782098D01*
X127649626Y-148713784D01*
X127549473Y-148645579D01*
X127495627Y-148609075D01*
X127313371Y-148485800D01*
X127160381Y-148568520D01*
X127090682Y-148604759D01*
X127031414Y-148632926D01*
X126991311Y-148648991D01*
X126981103Y-148651226D01*
X126968829Y-148634722D01*
X126944613Y-148588082D01*
X126910263Y-148515609D01*
X126867588Y-148421606D01*
X126818394Y-148310374D01*
X126764490Y-148186215D01*
X126707684Y-148053432D01*
X126649782Y-147916327D01*
X126592593Y-147779202D01*
X126537924Y-147646358D01*
X126487584Y-147522098D01*
X126443380Y-147410725D01*
X126407119Y-147316539D01*
X126380609Y-147243844D01*
X126365658Y-147196941D01*
X126363254Y-147180833D01*
X126382311Y-147160286D01*
X126424036Y-147126933D01*
X126479706Y-147087702D01*
X126484378Y-147084599D01*
X126628264Y-146969423D01*
X126744283Y-146835053D01*
X126831430Y-146685784D01*
X126888699Y-146525913D01*
X126915086Y-146359737D01*
X126909585Y-146191552D01*
X126871190Y-146025655D01*
X126798895Y-145866342D01*
X126777626Y-145831487D01*
X126666996Y-145690737D01*
X126536302Y-145577714D01*
X126390064Y-145493003D01*
X126232808Y-145437194D01*
X126069057Y-145410874D01*
X125903333Y-145414630D01*
X125740162Y-145449050D01*
X125584065Y-145514723D01*
X125439567Y-145612235D01*
X125394869Y-145651813D01*
X125281112Y-145775703D01*
X125198218Y-145906124D01*
X125141356Y-146052315D01*
X125109687Y-146197088D01*
X125101869Y-146359860D01*
X125127938Y-146523440D01*
X125185245Y-146682298D01*
X125271144Y-146830906D01*
X125382986Y-146963735D01*
X125518123Y-147075256D01*
X125535883Y-147087011D01*
X125592150Y-147125508D01*
X125634923Y-147158863D01*
X125655372Y-147180160D01*
X125655669Y-147180833D01*
X125651279Y-147203871D01*
X125633876Y-147256157D01*
X125605268Y-147333390D01*
X125567265Y-147431268D01*
X125521674Y-147545491D01*
X125470303Y-147671758D01*
X125414962Y-147805767D01*
X125357458Y-147943218D01*
X125299601Y-148079808D01*
X125243198Y-148211237D01*
X125190058Y-148333205D01*
X125141990Y-148441409D01*
X125100801Y-148531549D01*
X125068301Y-148599323D01*
X125046297Y-148640430D01*
X125037436Y-148651226D01*
X125010360Y-148642819D01*
X124959697Y-148620272D01*
X124894183Y-148587613D01*
X124858159Y-148568520D01*
X124705168Y-148485800D01*
X124522912Y-148609075D01*
X124429875Y-148672228D01*
X124328015Y-148741727D01*
X124232562Y-148807165D01*
X124184750Y-148840117D01*
X124117505Y-148885273D01*
X124060564Y-148921057D01*
X124021354Y-148942938D01*
X124008619Y-148947563D01*
X123990083Y-148935085D01*
X123949059Y-148900252D01*
X123889525Y-148846678D01*
X123815458Y-148777983D01*
X123730835Y-148697781D01*
X123677315Y-148646286D01*
X123583681Y-148554286D01*
X123502759Y-148471999D01*
X123437823Y-148402945D01*
X123392142Y-148350644D01*
X123368989Y-148318616D01*
X123366768Y-148312116D01*
X123377076Y-148287394D01*
X123405561Y-148237405D01*
X123449063Y-148167212D01*
X123504423Y-148081875D01*
X123568480Y-147986456D01*
X123586697Y-147959854D01*
X123653073Y-147863167D01*
X123712622Y-147776117D01*
X123762016Y-147703595D01*
X123797925Y-147650493D01*
X123817019Y-147621703D01*
X123818864Y-147618726D01*
X123816105Y-147595782D01*
X123801462Y-147545336D01*
X123777487Y-147474041D01*
X123746734Y-147388547D01*
X123711756Y-147295507D01*
X123675107Y-147201574D01*
X123639339Y-147113399D01*
X123607006Y-147037634D01*
X123580662Y-146980931D01*
X123562858Y-146949943D01*
X123561593Y-146948457D01*
X123550706Y-146939601D01*
X123532318Y-146930843D01*
X123502394Y-146921277D01*
X123456897Y-146909996D01*
X123391791Y-146896093D01*
X123303039Y-146878663D01*
X123186607Y-146856798D01*
X123038458Y-146829591D01*
X123006382Y-146823741D01*
X122911314Y-146805374D01*
X122828435Y-146787405D01*
X122765070Y-146771569D01*
X122728542Y-146759600D01*
X122723644Y-146756810D01*
X122715573Y-146732072D01*
X122709013Y-146676790D01*
X122703967Y-146597389D01*
X122700441Y-146500296D01*
X122698439Y-146391938D01*
X122697964Y-146278740D01*
X122699023Y-146167128D01*
X122701618Y-146063529D01*
X122705754Y-145974368D01*
X122711437Y-145906072D01*
X122718669Y-145865066D01*
X122723029Y-145856674D01*
X122747302Y-145848208D01*
X122802574Y-145834435D01*
X122883338Y-145816550D01*
X122984088Y-145795748D01*
X123099317Y-145773223D01*
X123162098Y-145761418D01*
X123281213Y-145739151D01*
X123387435Y-145718979D01*
X123475573Y-145701915D01*
X123540434Y-145688969D01*
X123576826Y-145681155D01*
X123582816Y-145679422D01*
X123592939Y-145659890D01*
X123614338Y-145612843D01*
X123644161Y-145545003D01*
X123679555Y-145463091D01*
X123717668Y-145373828D01*
X123755647Y-145283935D01*
X123790640Y-145200135D01*
X123819794Y-145129147D01*
X123840257Y-145077694D01*
X123849177Y-145052497D01*
X123849343Y-145051396D01*
X123839231Y-145031519D01*
X123810883Y-144985777D01*
X123767277Y-144918717D01*
X123711394Y-144834884D01*
X123646213Y-144738826D01*
X123608321Y-144683650D01*
X123539275Y-144582481D01*
X123477950Y-144490630D01*
X123427337Y-144412744D01*
X123390429Y-144353469D01*
X123370218Y-144317451D01*
X123367299Y-144309377D01*
X123379847Y-144290584D01*
X123414537Y-144250457D01*
X123466937Y-144193493D01*
X123532616Y-144124185D01*
X123607144Y-144047031D01*
X123686087Y-143966525D01*
X123765017Y-143887163D01*
X123839500Y-143813440D01*
X123905106Y-143749852D01*
X123957404Y-143700894D01*
X123991961Y-143671061D01*
X124003522Y-143663942D01*
X124022346Y-143673953D01*
X124067369Y-143702078D01*
X124134213Y-143745454D01*
X124218501Y-143801218D01*
X124315856Y-143866506D01*
X124389293Y-143916246D01*
X124760333Y-144168551D01*
X125378905Y-143913555D01*
X125462725Y-143468931D01*
X125546546Y-143024307D01*
X126471994Y-143024307D01*
X126555814Y-143468931D01*
D12*
X182430000Y-89540000D02*
X180525000Y-89540000D01*
X180525000Y-89540000D02*
X180525000Y-90810000D01*
X182430000Y-94620000D02*
X180525000Y-94620000D01*
X180525000Y-94620000D02*
X180525000Y-92715000D01*
X186240000Y-83190000D02*
X186240000Y-76840000D01*
X186240000Y-76840000D02*
X155760000Y-76840000D01*
X155760000Y-76840000D02*
X155760000Y-97160000D01*
X155760000Y-97160000D02*
X186240000Y-97160000D01*
X186240000Y-97160000D02*
X186240000Y-87000000D01*
X186240000Y-87000000D02*
X186240000Y-83190000D01*
X141625000Y-119950000D02*
X141625000Y-118750000D01*
X143375000Y-118750000D02*
X143375000Y-119950000D01*
X176250000Y-106875000D02*
X175050000Y-106875000D01*
X175050000Y-105125000D02*
X176250000Y-105125000D01*
X175050000Y-108125000D02*
X176250000Y-108125000D01*
X176250000Y-109875000D02*
X175050000Y-109875000D01*
X123875000Y-59050000D02*
X123875000Y-60250000D01*
X122125000Y-60250000D02*
X122125000Y-59050000D01*
X128875000Y-59050000D02*
X128875000Y-60250000D01*
X127125000Y-60250000D02*
X127125000Y-59050000D01*
X181950000Y-100800000D02*
X186450000Y-100800000D01*
X186450000Y-100800000D02*
X186450000Y-110700000D01*
X186450000Y-110700000D02*
X181950000Y-110700000D01*
X181950000Y-110700000D02*
X181950000Y-100800000D01*
X186450000Y-103250000D02*
X185950000Y-103250000D01*
X185950000Y-103250000D02*
X185950000Y-101300000D01*
X185950000Y-101300000D02*
X182450000Y-101300000D01*
X182450000Y-101300000D02*
X182450000Y-110200000D01*
X182450000Y-110200000D02*
X185950000Y-110200000D01*
X185950000Y-110200000D02*
X185950000Y-108250000D01*
X185950000Y-108250000D02*
X186450000Y-108250000D01*
X185250000Y-100800000D02*
X185250000Y-101300000D01*
X183950000Y-100800000D02*
X183950000Y-101300000D01*
X185250000Y-110200000D02*
X185250000Y-110700000D01*
X183950000Y-110200000D02*
X183950000Y-110700000D01*
X186450000Y-102450000D02*
X186650000Y-102450000D01*
X186650000Y-102450000D02*
X186650000Y-102150000D01*
X186650000Y-102150000D02*
X186450000Y-102150000D01*
X186550000Y-102450000D02*
X186550000Y-102150000D01*
X182450000Y-103650000D02*
X182950000Y-103650000D01*
X182950000Y-103650000D02*
X182950000Y-103850000D01*
X182950000Y-103850000D02*
X182450000Y-103850000D01*
X182450000Y-103750000D02*
X182950000Y-103750000D01*
X182450000Y-105650000D02*
X182950000Y-105650000D01*
X182950000Y-105650000D02*
X182950000Y-105850000D01*
X182950000Y-105850000D02*
X182450000Y-105850000D01*
X182450000Y-105750000D02*
X182950000Y-105750000D01*
X182450000Y-107650000D02*
X182950000Y-107650000D01*
X182950000Y-107650000D02*
X182950000Y-107850000D01*
X182950000Y-107850000D02*
X182450000Y-107850000D01*
X182450000Y-107750000D02*
X182950000Y-107750000D01*
X129157000Y-35760000D02*
X121860000Y-35760000D01*
X121860000Y-35760000D02*
X121860000Y-33190000D01*
X127760000Y-31460000D02*
X123260000Y-31460000D01*
X129157000Y-35760000D02*
X129157000Y-33190000D01*
D15*
X139750000Y-138340000D02*
X137950000Y-138340000D01*
X137950000Y-141560000D02*
X140400000Y-141560000D01*
X139900000Y-143140000D02*
X138100000Y-143140000D01*
X138100000Y-146360000D02*
X140550000Y-146360000D01*
X135260000Y-69080000D02*
X135260000Y-68150000D01*
X135260000Y-65920000D02*
X135260000Y-66850000D01*
X135260000Y-65920000D02*
X133100000Y-65920000D01*
X135260000Y-69080000D02*
X133800000Y-69080000D01*
X144760000Y-71580000D02*
X144760000Y-70650000D01*
X144760000Y-68420000D02*
X144760000Y-69350000D01*
X144760000Y-68420000D02*
X142600000Y-68420000D01*
X144760000Y-71580000D02*
X143300000Y-71580000D01*
D12*
X126125000Y-126950000D02*
X126125000Y-125750000D01*
X127875000Y-125750000D02*
X127875000Y-126950000D01*
X130375000Y-126950000D02*
X130375000Y-125750000D01*
X132125000Y-125750000D02*
X132125000Y-126950000D01*
X161375000Y-133000000D02*
X161375000Y-134200000D01*
X159625000Y-134200000D02*
X159625000Y-133000000D01*
X158875000Y-133000000D02*
X158875000Y-134200000D01*
X157125000Y-134200000D02*
X157125000Y-133000000D01*
X163875000Y-133000000D02*
X163875000Y-134200000D01*
X162125000Y-134200000D02*
X162125000Y-133000000D01*
X156375000Y-133000000D02*
X156375000Y-134200000D01*
X154625000Y-134200000D02*
X154625000Y-133000000D01*
X166625000Y-133000000D02*
X166625000Y-134200000D01*
X164875000Y-134200000D02*
X164875000Y-133000000D01*
X162238095Y-60452381D02*
X162238095Y-61261905D01*
X162285714Y-61357143D01*
X162333333Y-61404762D01*
X162428571Y-61452381D01*
X162619048Y-61452381D01*
X162714286Y-61404762D01*
X162761905Y-61357143D01*
X162809524Y-61261905D01*
X162809524Y-60452381D01*
X163428571Y-60880952D02*
X163333333Y-60833333D01*
X163285714Y-60785714D01*
X163238095Y-60690476D01*
X163238095Y-60642857D01*
X163285714Y-60547619D01*
X163333333Y-60500000D01*
X163428571Y-60452381D01*
X163619048Y-60452381D01*
X163714286Y-60500000D01*
X163761905Y-60547619D01*
X163809524Y-60642857D01*
X163809524Y-60690476D01*
X163761905Y-60785714D01*
X163714286Y-60833333D01*
X163619048Y-60880952D01*
X163428571Y-60880952D01*
X163333333Y-60928571D01*
X163285714Y-60976190D01*
X163238095Y-61071429D01*
X163238095Y-61261905D01*
X163285714Y-61357143D01*
X163333333Y-61404762D01*
X163428571Y-61452381D01*
X163619048Y-61452381D01*
X163714286Y-61404762D01*
X163761905Y-61357143D01*
X163809524Y-61261905D01*
X163809524Y-61071429D01*
X163761905Y-60976190D01*
X163714286Y-60928571D01*
X163619048Y-60880952D01*
X158428571Y-45804762D02*
X158571428Y-45852381D01*
X158809524Y-45852381D01*
X158904762Y-45804762D01*
X158952381Y-45757143D01*
X159000000Y-45661905D01*
X159000000Y-45566667D01*
X158952381Y-45471429D01*
X158904762Y-45423810D01*
X158809524Y-45376190D01*
X158619047Y-45328571D01*
X158523809Y-45280952D01*
X158476190Y-45233333D01*
X158428571Y-45138095D01*
X158428571Y-45042857D01*
X158476190Y-44947619D01*
X158523809Y-44900000D01*
X158619047Y-44852381D01*
X158857143Y-44852381D01*
X159000000Y-44900000D01*
X159380952Y-44947619D02*
X159428571Y-44900000D01*
X159523809Y-44852381D01*
X159761905Y-44852381D01*
X159857143Y-44900000D01*
X159904762Y-44947619D01*
X159952381Y-45042857D01*
X159952381Y-45138095D01*
X159904762Y-45280952D01*
X159333333Y-45852381D01*
X159952381Y-45852381D01*
X160904762Y-45852381D02*
X160333333Y-45852381D01*
X160619047Y-45852381D02*
X160619047Y-44852381D01*
X160523809Y-44995238D01*
X160428571Y-45090476D01*
X160333333Y-45138095D01*
X161761905Y-44852381D02*
X161571428Y-44852381D01*
X161476190Y-44900000D01*
X161428571Y-44947619D01*
X161333333Y-45090476D01*
X161285714Y-45280952D01*
X161285714Y-45661905D01*
X161333333Y-45757143D01*
X161380952Y-45804762D01*
X161476190Y-45852381D01*
X161666667Y-45852381D01*
X161761905Y-45804762D01*
X161809524Y-45757143D01*
X161857143Y-45661905D01*
X161857143Y-45423810D01*
X161809524Y-45328571D01*
X161761905Y-45280952D01*
X161666667Y-45233333D01*
X161476190Y-45233333D01*
X161380952Y-45280952D01*
X161333333Y-45328571D01*
X161285714Y-45423810D01*
X162238095Y-45804762D02*
X162380952Y-45852381D01*
X162619048Y-45852381D01*
X162714286Y-45804762D01*
X162761905Y-45757143D01*
X162809524Y-45661905D01*
X162809524Y-45566667D01*
X162761905Y-45471429D01*
X162714286Y-45423810D01*
X162619048Y-45376190D01*
X162428571Y-45328571D01*
X162333333Y-45280952D01*
X162285714Y-45233333D01*
X162238095Y-45138095D01*
X162238095Y-45042857D01*
X162285714Y-44947619D01*
X162333333Y-44900000D01*
X162428571Y-44852381D01*
X162666667Y-44852381D01*
X162809524Y-44900000D01*
X163428571Y-44852381D02*
X163523810Y-44852381D01*
X163619048Y-44900000D01*
X163666667Y-44947619D01*
X163714286Y-45042857D01*
X163761905Y-45233333D01*
X163761905Y-45471429D01*
X163714286Y-45661905D01*
X163666667Y-45757143D01*
X163619048Y-45804762D01*
X163523810Y-45852381D01*
X163428571Y-45852381D01*
X163333333Y-45804762D01*
X163285714Y-45757143D01*
X163238095Y-45661905D01*
X163190476Y-45471429D01*
X163190476Y-45233333D01*
X163238095Y-45042857D01*
X163285714Y-44947619D01*
X163333333Y-44900000D01*
X163428571Y-44852381D01*
X164142857Y-44947619D02*
X164190476Y-44900000D01*
X164285714Y-44852381D01*
X164523810Y-44852381D01*
X164619048Y-44900000D01*
X164666667Y-44947619D01*
X164714286Y-45042857D01*
X164714286Y-45138095D01*
X164666667Y-45280952D01*
X164095238Y-45852381D01*
X164714286Y-45852381D01*
X165476191Y-45328571D02*
X165142857Y-45328571D01*
X165142857Y-45852381D02*
X165142857Y-44852381D01*
X165619048Y-44852381D01*
X141238095Y-60452381D02*
X141238095Y-61261905D01*
X141285714Y-61357143D01*
X141333333Y-61404762D01*
X141428571Y-61452381D01*
X141619048Y-61452381D01*
X141714286Y-61404762D01*
X141761905Y-61357143D01*
X141809524Y-61261905D01*
X141809524Y-60452381D01*
X142190476Y-60452381D02*
X142857143Y-60452381D01*
X142428571Y-61452381D01*
X137428571Y-45804762D02*
X137571428Y-45852381D01*
X137809524Y-45852381D01*
X137904762Y-45804762D01*
X137952381Y-45757143D01*
X138000000Y-45661905D01*
X138000000Y-45566667D01*
X137952381Y-45471429D01*
X137904762Y-45423810D01*
X137809524Y-45376190D01*
X137619047Y-45328571D01*
X137523809Y-45280952D01*
X137476190Y-45233333D01*
X137428571Y-45138095D01*
X137428571Y-45042857D01*
X137476190Y-44947619D01*
X137523809Y-44900000D01*
X137619047Y-44852381D01*
X137857143Y-44852381D01*
X138000000Y-44900000D01*
X138380952Y-44947619D02*
X138428571Y-44900000D01*
X138523809Y-44852381D01*
X138761905Y-44852381D01*
X138857143Y-44900000D01*
X138904762Y-44947619D01*
X138952381Y-45042857D01*
X138952381Y-45138095D01*
X138904762Y-45280952D01*
X138333333Y-45852381D01*
X138952381Y-45852381D01*
X139904762Y-45852381D02*
X139333333Y-45852381D01*
X139619047Y-45852381D02*
X139619047Y-44852381D01*
X139523809Y-44995238D01*
X139428571Y-45090476D01*
X139333333Y-45138095D01*
X140761905Y-44852381D02*
X140571428Y-44852381D01*
X140476190Y-44900000D01*
X140428571Y-44947619D01*
X140333333Y-45090476D01*
X140285714Y-45280952D01*
X140285714Y-45661905D01*
X140333333Y-45757143D01*
X140380952Y-45804762D01*
X140476190Y-45852381D01*
X140666667Y-45852381D01*
X140761905Y-45804762D01*
X140809524Y-45757143D01*
X140857143Y-45661905D01*
X140857143Y-45423810D01*
X140809524Y-45328571D01*
X140761905Y-45280952D01*
X140666667Y-45233333D01*
X140476190Y-45233333D01*
X140380952Y-45280952D01*
X140333333Y-45328571D01*
X140285714Y-45423810D01*
X141238095Y-45804762D02*
X141380952Y-45852381D01*
X141619048Y-45852381D01*
X141714286Y-45804762D01*
X141761905Y-45757143D01*
X141809524Y-45661905D01*
X141809524Y-45566667D01*
X141761905Y-45471429D01*
X141714286Y-45423810D01*
X141619048Y-45376190D01*
X141428571Y-45328571D01*
X141333333Y-45280952D01*
X141285714Y-45233333D01*
X141238095Y-45138095D01*
X141238095Y-45042857D01*
X141285714Y-44947619D01*
X141333333Y-44900000D01*
X141428571Y-44852381D01*
X141666667Y-44852381D01*
X141809524Y-44900000D01*
X142428571Y-44852381D02*
X142523810Y-44852381D01*
X142619048Y-44900000D01*
X142666667Y-44947619D01*
X142714286Y-45042857D01*
X142761905Y-45233333D01*
X142761905Y-45471429D01*
X142714286Y-45661905D01*
X142666667Y-45757143D01*
X142619048Y-45804762D01*
X142523810Y-45852381D01*
X142428571Y-45852381D01*
X142333333Y-45804762D01*
X142285714Y-45757143D01*
X142238095Y-45661905D01*
X142190476Y-45471429D01*
X142190476Y-45233333D01*
X142238095Y-45042857D01*
X142285714Y-44947619D01*
X142333333Y-44900000D01*
X142428571Y-44852381D01*
X143142857Y-44947619D02*
X143190476Y-44900000D01*
X143285714Y-44852381D01*
X143523810Y-44852381D01*
X143619048Y-44900000D01*
X143666667Y-44947619D01*
X143714286Y-45042857D01*
X143714286Y-45138095D01*
X143666667Y-45280952D01*
X143095238Y-45852381D01*
X143714286Y-45852381D01*
X144476191Y-45328571D02*
X144142857Y-45328571D01*
X144142857Y-45852381D02*
X144142857Y-44852381D01*
X144619048Y-44852381D01*
X135238095Y-92452381D02*
X135238095Y-93261905D01*
X135285714Y-93357143D01*
X135333333Y-93404762D01*
X135428571Y-93452381D01*
X135619048Y-93452381D01*
X135714286Y-93404762D01*
X135761905Y-93357143D01*
X135809524Y-93261905D01*
X135809524Y-92452381D01*
X136190476Y-92452381D02*
X136809524Y-92452381D01*
X136476190Y-92833333D01*
X136619048Y-92833333D01*
X136714286Y-92880952D01*
X136761905Y-92928571D01*
X136809524Y-93023810D01*
X136809524Y-93261905D01*
X136761905Y-93357143D01*
X136714286Y-93404762D01*
X136619048Y-93452381D01*
X136333333Y-93452381D01*
X136238095Y-93404762D01*
X136190476Y-93357143D01*
X139476190Y-93452381D02*
X139476190Y-92452381D01*
X139857143Y-92452381D01*
X139952381Y-92500000D01*
X140000000Y-92547619D01*
X140047619Y-92642857D01*
X140047619Y-92785714D01*
X140000000Y-92880952D01*
X139952381Y-92928571D01*
X139857143Y-92976190D01*
X139476190Y-92976190D01*
X140428571Y-93166667D02*
X140904762Y-93166667D01*
X140333333Y-93452381D02*
X140666666Y-92452381D01*
X141000000Y-93452381D01*
X141904762Y-93452381D02*
X141571428Y-92976190D01*
X141333333Y-93452381D02*
X141333333Y-92452381D01*
X141714286Y-92452381D01*
X141809524Y-92500000D01*
X141857143Y-92547619D01*
X141904762Y-92642857D01*
X141904762Y-92785714D01*
X141857143Y-92880952D01*
X141809524Y-92928571D01*
X141714286Y-92976190D01*
X141333333Y-92976190D01*
X142190476Y-92452381D02*
X142761905Y-92452381D01*
X142476190Y-93452381D02*
X142476190Y-92452381D01*
X143095238Y-93452381D02*
X143095238Y-92452381D01*
X144142857Y-93357143D02*
X144095238Y-93404762D01*
X143952381Y-93452381D01*
X143857143Y-93452381D01*
X143714285Y-93404762D01*
X143619047Y-93309524D01*
X143571428Y-93214286D01*
X143523809Y-93023810D01*
X143523809Y-92880952D01*
X143571428Y-92690476D01*
X143619047Y-92595238D01*
X143714285Y-92500000D01*
X143857143Y-92452381D01*
X143952381Y-92452381D01*
X144095238Y-92500000D01*
X144142857Y-92547619D01*
X145047619Y-93452381D02*
X144571428Y-93452381D01*
X144571428Y-92452381D01*
X145380952Y-92928571D02*
X145714286Y-92928571D01*
X145857143Y-93452381D02*
X145380952Y-93452381D01*
X145380952Y-92452381D01*
X145857143Y-92452381D01*
X146047619Y-93547619D02*
X146809524Y-93547619D01*
X147047619Y-93452381D02*
X147047619Y-92452381D01*
X147428572Y-92452381D01*
X147523810Y-92500000D01*
X147571429Y-92547619D01*
X147619048Y-92642857D01*
X147619048Y-92785714D01*
X147571429Y-92880952D01*
X147523810Y-92928571D01*
X147428572Y-92976190D01*
X147047619Y-92976190D01*
X148047619Y-93452381D02*
X148047619Y-92452381D01*
X148047619Y-92928571D02*
X148619048Y-92928571D01*
X148619048Y-93452381D02*
X148619048Y-92452381D01*
X149285714Y-92452381D02*
X149476191Y-92452381D01*
X149571429Y-92500000D01*
X149666667Y-92595238D01*
X149714286Y-92785714D01*
X149714286Y-93119048D01*
X149666667Y-93309524D01*
X149571429Y-93404762D01*
X149476191Y-93452381D01*
X149285714Y-93452381D01*
X149190476Y-93404762D01*
X149095238Y-93309524D01*
X149047619Y-93119048D01*
X149047619Y-92785714D01*
X149095238Y-92595238D01*
X149190476Y-92500000D01*
X149285714Y-92452381D01*
X150000000Y-92452381D02*
X150571429Y-92452381D01*
X150285714Y-93452381D02*
X150285714Y-92452381D01*
X151095238Y-92452381D02*
X151285715Y-92452381D01*
X151380953Y-92500000D01*
X151476191Y-92595238D01*
X151523810Y-92785714D01*
X151523810Y-93119048D01*
X151476191Y-93309524D01*
X151380953Y-93404762D01*
X151285715Y-93452381D01*
X151095238Y-93452381D01*
X151000000Y-93404762D01*
X150904762Y-93309524D01*
X150857143Y-93119048D01*
X150857143Y-92785714D01*
X150904762Y-92595238D01*
X151000000Y-92500000D01*
X151095238Y-92452381D01*
X151952381Y-93452381D02*
X151952381Y-92452381D01*
X152523810Y-93452381D01*
X152523810Y-92452381D01*
D16*
X157310476Y-126561905D02*
X157310476Y-127209524D01*
X157348571Y-127285714D01*
X157386667Y-127323810D01*
X157462857Y-127361905D01*
X157615238Y-127361905D01*
X157691429Y-127323810D01*
X157729524Y-127285714D01*
X157767619Y-127209524D01*
X157767619Y-126561905D01*
X158491428Y-126828571D02*
X158491428Y-127361905D01*
X158300952Y-126523810D02*
X158110476Y-127095238D01*
X158605714Y-127095238D01*
X162104762Y-128861905D02*
X162104762Y-128061905D01*
X162561905Y-128861905D01*
X162561905Y-128061905D01*
X163400000Y-128861905D02*
X163133333Y-128480952D01*
X162942857Y-128861905D02*
X162942857Y-128061905D01*
X163247619Y-128061905D01*
X163323810Y-128100000D01*
X163361905Y-128138095D01*
X163400000Y-128214286D01*
X163400000Y-128328571D01*
X163361905Y-128404762D01*
X163323810Y-128442857D01*
X163247619Y-128480952D01*
X162942857Y-128480952D01*
X164009524Y-128442857D02*
X163742857Y-128442857D01*
X163742857Y-128861905D02*
X163742857Y-128061905D01*
X164123810Y-128061905D01*
X164390476Y-128138095D02*
X164428571Y-128100000D01*
X164504762Y-128061905D01*
X164695238Y-128061905D01*
X164771428Y-128100000D01*
X164809524Y-128138095D01*
X164847619Y-128214286D01*
X164847619Y-128290476D01*
X164809524Y-128404762D01*
X164352381Y-128861905D01*
X164847619Y-128861905D01*
X165533333Y-128328571D02*
X165533333Y-128861905D01*
X165342857Y-128023810D02*
X165152381Y-128595238D01*
X165647619Y-128595238D01*
X166333334Y-128861905D02*
X165952381Y-128861905D01*
X165952381Y-128061905D01*
X166752381Y-128061905D02*
X166828572Y-128061905D01*
X166904762Y-128100000D01*
X166942857Y-128138095D01*
X166980953Y-128214286D01*
X167019048Y-128366667D01*
X167019048Y-128557143D01*
X166980953Y-128709524D01*
X166942857Y-128785714D01*
X166904762Y-128823810D01*
X166828572Y-128861905D01*
X166752381Y-128861905D01*
X166676191Y-128823810D01*
X166638095Y-128785714D01*
X166600000Y-128709524D01*
X166561905Y-128557143D01*
X166561905Y-128366667D01*
X166600000Y-128214286D01*
X166638095Y-128138095D01*
X166676191Y-128100000D01*
X166752381Y-128061905D01*
X167780953Y-128861905D02*
X167323810Y-128861905D01*
X167552381Y-128861905D02*
X167552381Y-128061905D01*
X167476191Y-128176190D01*
X167400000Y-128252381D01*
X167323810Y-128290476D01*
X168123810Y-128557143D02*
X168733334Y-128557143D01*
X168428572Y-128861905D02*
X168428572Y-128252381D01*
X168923810Y-128938095D02*
X169533334Y-128938095D01*
X169723810Y-128861905D02*
X169723810Y-128061905D01*
X169990477Y-128633333D01*
X170257144Y-128061905D01*
X170257144Y-128861905D01*
X170790477Y-128061905D02*
X170942858Y-128061905D01*
X171019049Y-128100000D01*
X171095239Y-128176190D01*
X171133334Y-128328571D01*
X171133334Y-128595238D01*
X171095239Y-128747619D01*
X171019049Y-128823810D01*
X170942858Y-128861905D01*
X170790477Y-128861905D01*
X170714287Y-128823810D01*
X170638096Y-128747619D01*
X170600001Y-128595238D01*
X170600001Y-128328571D01*
X170638096Y-128176190D01*
X170714287Y-128100000D01*
X170790477Y-128061905D01*
X171476191Y-128861905D02*
X171476191Y-128061905D01*
X171666667Y-128061905D01*
X171780953Y-128100000D01*
X171857144Y-128176190D01*
X171895239Y-128252381D01*
X171933334Y-128404762D01*
X171933334Y-128519048D01*
X171895239Y-128671429D01*
X171857144Y-128747619D01*
X171780953Y-128823810D01*
X171666667Y-128861905D01*
X171476191Y-128861905D01*
D12*
X158833334Y-110357143D02*
X158785715Y-110404762D01*
X158642858Y-110452381D01*
X158547620Y-110452381D01*
X158404762Y-110404762D01*
X158309524Y-110309524D01*
X158261905Y-110214286D01*
X158214286Y-110023810D01*
X158214286Y-109880952D01*
X158261905Y-109690476D01*
X158309524Y-109595238D01*
X158404762Y-109500000D01*
X158547620Y-109452381D01*
X158642858Y-109452381D01*
X158785715Y-109500000D01*
X158833334Y-109547619D01*
X159785715Y-110452381D02*
X159214286Y-110452381D01*
X159500000Y-110452381D02*
X159500000Y-109452381D01*
X159404762Y-109595238D01*
X159309524Y-109690476D01*
X159214286Y-109738095D01*
X164928572Y-110452381D02*
X164357143Y-110452381D01*
X164642857Y-110452381D02*
X164642857Y-109452381D01*
X164547619Y-109595238D01*
X164452381Y-109690476D01*
X164357143Y-109738095D01*
X165547619Y-109452381D02*
X165642858Y-109452381D01*
X165738096Y-109500000D01*
X165785715Y-109547619D01*
X165833334Y-109642857D01*
X165880953Y-109833333D01*
X165880953Y-110071429D01*
X165833334Y-110261905D01*
X165785715Y-110357143D01*
X165738096Y-110404762D01*
X165642858Y-110452381D01*
X165547619Y-110452381D01*
X165452381Y-110404762D01*
X165404762Y-110357143D01*
X165357143Y-110261905D01*
X165309524Y-110071429D01*
X165309524Y-109833333D01*
X165357143Y-109642857D01*
X165404762Y-109547619D01*
X165452381Y-109500000D01*
X165547619Y-109452381D01*
X166309524Y-109785714D02*
X166309524Y-110452381D01*
X166309524Y-109880952D02*
X166357143Y-109833333D01*
X166452381Y-109785714D01*
X166595239Y-109785714D01*
X166690477Y-109833333D01*
X166738096Y-109928571D01*
X166738096Y-110452381D01*
X167547620Y-109928571D02*
X167214286Y-109928571D01*
X167214286Y-110452381D02*
X167214286Y-109452381D01*
X167690477Y-109452381D01*
X129833334Y-64357143D02*
X129785715Y-64404762D01*
X129642858Y-64452381D01*
X129547620Y-64452381D01*
X129404762Y-64404762D01*
X129309524Y-64309524D01*
X129261905Y-64214286D01*
X129214286Y-64023810D01*
X129214286Y-63880952D01*
X129261905Y-63690476D01*
X129309524Y-63595238D01*
X129404762Y-63500000D01*
X129547620Y-63452381D01*
X129642858Y-63452381D01*
X129785715Y-63500000D01*
X129833334Y-63547619D01*
X130214286Y-63547619D02*
X130261905Y-63500000D01*
X130357143Y-63452381D01*
X130595239Y-63452381D01*
X130690477Y-63500000D01*
X130738096Y-63547619D01*
X130785715Y-63642857D01*
X130785715Y-63738095D01*
X130738096Y-63880952D01*
X130166667Y-64452381D01*
X130785715Y-64452381D01*
X128357143Y-69952381D02*
X128452382Y-69952381D01*
X128547620Y-70000000D01*
X128595239Y-70047619D01*
X128642858Y-70142857D01*
X128690477Y-70333333D01*
X128690477Y-70571429D01*
X128642858Y-70761905D01*
X128595239Y-70857143D01*
X128547620Y-70904762D01*
X128452382Y-70952381D01*
X128357143Y-70952381D01*
X128261905Y-70904762D01*
X128214286Y-70857143D01*
X128166667Y-70761905D01*
X128119048Y-70571429D01*
X128119048Y-70333333D01*
X128166667Y-70142857D01*
X128214286Y-70047619D01*
X128261905Y-70000000D01*
X128357143Y-69952381D01*
X129119048Y-70857143D02*
X129166667Y-70904762D01*
X129119048Y-70952381D01*
X129071429Y-70904762D01*
X129119048Y-70857143D01*
X129119048Y-70952381D01*
X130119048Y-70952381D02*
X129547619Y-70952381D01*
X129833333Y-70952381D02*
X129833333Y-69952381D01*
X129738095Y-70095238D01*
X129642857Y-70190476D01*
X129547619Y-70238095D01*
X130976191Y-70285714D02*
X130976191Y-70952381D01*
X130547619Y-70285714D02*
X130547619Y-70809524D01*
X130595238Y-70904762D01*
X130690476Y-70952381D01*
X130833334Y-70952381D01*
X130928572Y-70904762D01*
X130976191Y-70857143D01*
X131785715Y-70428571D02*
X131452381Y-70428571D01*
X131452381Y-70952381D02*
X131452381Y-69952381D01*
X131928572Y-69952381D01*
X139833334Y-67357143D02*
X139785715Y-67404762D01*
X139642858Y-67452381D01*
X139547620Y-67452381D01*
X139404762Y-67404762D01*
X139309524Y-67309524D01*
X139261905Y-67214286D01*
X139214286Y-67023810D01*
X139214286Y-66880952D01*
X139261905Y-66690476D01*
X139309524Y-66595238D01*
X139404762Y-66500000D01*
X139547620Y-66452381D01*
X139642858Y-66452381D01*
X139785715Y-66500000D01*
X139833334Y-66547619D01*
X140166667Y-66452381D02*
X140785715Y-66452381D01*
X140452381Y-66833333D01*
X140595239Y-66833333D01*
X140690477Y-66880952D01*
X140738096Y-66928571D01*
X140785715Y-67023810D01*
X140785715Y-67261905D01*
X140738096Y-67357143D01*
X140690477Y-67404762D01*
X140595239Y-67452381D01*
X140309524Y-67452381D01*
X140214286Y-67404762D01*
X140166667Y-67357143D01*
X138357143Y-72452381D02*
X138452382Y-72452381D01*
X138547620Y-72500000D01*
X138595239Y-72547619D01*
X138642858Y-72642857D01*
X138690477Y-72833333D01*
X138690477Y-73071429D01*
X138642858Y-73261905D01*
X138595239Y-73357143D01*
X138547620Y-73404762D01*
X138452382Y-73452381D01*
X138357143Y-73452381D01*
X138261905Y-73404762D01*
X138214286Y-73357143D01*
X138166667Y-73261905D01*
X138119048Y-73071429D01*
X138119048Y-72833333D01*
X138166667Y-72642857D01*
X138214286Y-72547619D01*
X138261905Y-72500000D01*
X138357143Y-72452381D01*
X139119048Y-73357143D02*
X139166667Y-73404762D01*
X139119048Y-73452381D01*
X139071429Y-73404762D01*
X139119048Y-73357143D01*
X139119048Y-73452381D01*
X140119048Y-73452381D02*
X139547619Y-73452381D01*
X139833333Y-73452381D02*
X139833333Y-72452381D01*
X139738095Y-72595238D01*
X139642857Y-72690476D01*
X139547619Y-72738095D01*
X140976191Y-72785714D02*
X140976191Y-73452381D01*
X140547619Y-72785714D02*
X140547619Y-73309524D01*
X140595238Y-73404762D01*
X140690476Y-73452381D01*
X140833334Y-73452381D01*
X140928572Y-73404762D01*
X140976191Y-73357143D01*
X141785715Y-72928571D02*
X141452381Y-72928571D01*
X141452381Y-73452381D02*
X141452381Y-72452381D01*
X141928572Y-72452381D01*
X122261905Y-49952381D02*
X122261905Y-48952381D01*
X122500000Y-48952381D01*
X122642858Y-49000000D01*
X122738096Y-49095238D01*
X122785715Y-49190476D01*
X122833334Y-49380952D01*
X122833334Y-49523810D01*
X122785715Y-49714286D01*
X122738096Y-49809524D01*
X122642858Y-49904762D01*
X122500000Y-49952381D01*
X122261905Y-49952381D01*
X123785715Y-49952381D02*
X123214286Y-49952381D01*
X123500000Y-49952381D02*
X123500000Y-48952381D01*
X123404762Y-49095238D01*
X123309524Y-49190476D01*
X123214286Y-49238095D01*
X127261905Y-49903361D02*
X127261905Y-48903361D01*
X127500000Y-48903361D01*
X127642858Y-48950980D01*
X127738096Y-49046218D01*
X127785715Y-49141456D01*
X127833334Y-49331932D01*
X127833334Y-49474790D01*
X127785715Y-49665266D01*
X127738096Y-49760504D01*
X127642858Y-49855742D01*
X127500000Y-49903361D01*
X127261905Y-49903361D01*
X128214286Y-48998599D02*
X128261905Y-48950980D01*
X128357143Y-48903361D01*
X128595239Y-48903361D01*
X128690477Y-48950980D01*
X128738096Y-48998599D01*
X128785715Y-49093837D01*
X128785715Y-49189075D01*
X128738096Y-49331932D01*
X128166667Y-49903361D01*
X128785715Y-49903361D01*
X162666667Y-71928571D02*
X162333333Y-71928571D01*
X162333333Y-72452381D02*
X162333333Y-71452381D01*
X162809524Y-71452381D01*
X163714286Y-72452381D02*
X163142857Y-72452381D01*
X163428571Y-72452381D02*
X163428571Y-71452381D01*
X163333333Y-71595238D01*
X163238095Y-71690476D01*
X163142857Y-71738095D01*
X155690477Y-72928571D02*
X155357143Y-72928571D01*
X155357143Y-73452381D02*
X155357143Y-72452381D01*
X155833334Y-72452381D01*
X156214286Y-72452381D02*
X156214286Y-73261905D01*
X156261905Y-73357143D01*
X156309524Y-73404762D01*
X156404762Y-73452381D01*
X156595239Y-73452381D01*
X156690477Y-73404762D01*
X156738096Y-73357143D01*
X156785715Y-73261905D01*
X156785715Y-72452381D01*
X157214286Y-73404762D02*
X157357143Y-73452381D01*
X157595239Y-73452381D01*
X157690477Y-73404762D01*
X157738096Y-73357143D01*
X157785715Y-73261905D01*
X157785715Y-73166667D01*
X157738096Y-73071429D01*
X157690477Y-73023810D01*
X157595239Y-72976190D01*
X157404762Y-72928571D01*
X157309524Y-72880952D01*
X157261905Y-72833333D01*
X157214286Y-72738095D01*
X157214286Y-72642857D01*
X157261905Y-72547619D01*
X157309524Y-72500000D01*
X157404762Y-72452381D01*
X157642858Y-72452381D01*
X157785715Y-72500000D01*
X158214286Y-72928571D02*
X158547620Y-72928571D01*
X158690477Y-73452381D02*
X158214286Y-73452381D01*
X158214286Y-72452381D01*
X158690477Y-72452381D01*
X147666667Y-131452381D02*
X147666667Y-132166667D01*
X147619047Y-132309524D01*
X147523809Y-132404762D01*
X147380952Y-132452381D01*
X147285714Y-132452381D01*
X148666667Y-132452381D02*
X148095238Y-132452381D01*
X148380952Y-132452381D02*
X148380952Y-131452381D01*
X148285714Y-131595238D01*
X148190476Y-131690476D01*
X148095238Y-131738095D01*
X152285714Y-142404762D02*
X152428571Y-142452381D01*
X152666667Y-142452381D01*
X152761905Y-142404762D01*
X152809524Y-142357143D01*
X152857143Y-142261905D01*
X152857143Y-142166667D01*
X152809524Y-142071429D01*
X152761905Y-142023810D01*
X152666667Y-141976190D01*
X152476190Y-141928571D01*
X152380952Y-141880952D01*
X152333333Y-141833333D01*
X152285714Y-141738095D01*
X152285714Y-141642857D01*
X152333333Y-141547619D01*
X152380952Y-141500000D01*
X152476190Y-141452381D01*
X152714286Y-141452381D01*
X152857143Y-141500000D01*
X153571429Y-141452381D02*
X153571429Y-142166667D01*
X153523809Y-142309524D01*
X153428571Y-142404762D01*
X153285714Y-142452381D01*
X153190476Y-142452381D01*
X154047619Y-142071429D02*
X154809524Y-142071429D01*
X155714286Y-141785714D02*
X155714286Y-142452381D01*
X155476190Y-141404762D02*
X155238095Y-142119048D01*
X155857143Y-142119048D01*
X156142857Y-141452381D02*
X156761905Y-141452381D01*
X156428571Y-141833333D01*
X156571429Y-141833333D01*
X156666667Y-141880952D01*
X156714286Y-141928571D01*
X156761905Y-142023810D01*
X156761905Y-142261905D01*
X156714286Y-142357143D01*
X156666667Y-142404762D01*
X156571429Y-142452381D01*
X156285714Y-142452381D01*
X156190476Y-142404762D01*
X156142857Y-142357143D01*
X157666667Y-141452381D02*
X157190476Y-141452381D01*
X157142857Y-141928571D01*
X157190476Y-141880952D01*
X157285714Y-141833333D01*
X157523810Y-141833333D01*
X157619048Y-141880952D01*
X157666667Y-141928571D01*
X157714286Y-142023810D01*
X157714286Y-142261905D01*
X157666667Y-142357143D01*
X157619048Y-142404762D01*
X157523810Y-142452381D01*
X157285714Y-142452381D01*
X157190476Y-142404762D01*
X157142857Y-142357143D01*
X158666667Y-142452381D02*
X158095238Y-142452381D01*
X158380952Y-142452381D02*
X158380952Y-141452381D01*
X158285714Y-141595238D01*
X158190476Y-141690476D01*
X158095238Y-141738095D01*
X159523810Y-141785714D02*
X159523810Y-142452381D01*
X159285714Y-141404762D02*
X159047619Y-142119048D01*
X159666667Y-142119048D01*
X160047619Y-142071429D02*
X160809524Y-142071429D01*
X161238095Y-142404762D02*
X161380952Y-142452381D01*
X161619048Y-142452381D01*
X161714286Y-142404762D01*
X161761905Y-142357143D01*
X161809524Y-142261905D01*
X161809524Y-142166667D01*
X161761905Y-142071429D01*
X161714286Y-142023810D01*
X161619048Y-141976190D01*
X161428571Y-141928571D01*
X161333333Y-141880952D01*
X161285714Y-141833333D01*
X161238095Y-141738095D01*
X161238095Y-141642857D01*
X161285714Y-141547619D01*
X161333333Y-141500000D01*
X161428571Y-141452381D01*
X161666667Y-141452381D01*
X161809524Y-141500000D01*
X162238095Y-142452381D02*
X162238095Y-141452381D01*
X162571429Y-142166667D01*
X162904762Y-141452381D01*
X162904762Y-142452381D01*
X163238095Y-141452381D02*
X163809524Y-141452381D01*
X163523809Y-142452381D02*
X163523809Y-141452381D01*
X175166667Y-61452381D02*
X175166667Y-62166667D01*
X175119047Y-62309524D01*
X175023809Y-62404762D01*
X174880952Y-62452381D01*
X174785714Y-62452381D01*
X175595238Y-61547619D02*
X175642857Y-61500000D01*
X175738095Y-61452381D01*
X175976191Y-61452381D01*
X176071429Y-61500000D01*
X176119048Y-61547619D01*
X176166667Y-61642857D01*
X176166667Y-61738095D01*
X176119048Y-61880952D01*
X175547619Y-62452381D01*
X176166667Y-62452381D01*
X137916667Y-81952381D02*
X137916667Y-82666667D01*
X137869047Y-82809524D01*
X137773809Y-82904762D01*
X137630952Y-82952381D01*
X137535714Y-82952381D01*
X138297619Y-81952381D02*
X138916667Y-81952381D01*
X138583333Y-82333333D01*
X138726191Y-82333333D01*
X138821429Y-82380952D01*
X138869048Y-82428571D01*
X138916667Y-82523810D01*
X138916667Y-82761905D01*
X138869048Y-82857143D01*
X138821429Y-82904762D01*
X138726191Y-82952381D01*
X138440476Y-82952381D01*
X138345238Y-82904762D01*
X138297619Y-82857143D01*
X173380952Y-75452381D02*
X173380952Y-74452381D01*
X173761905Y-74452381D01*
X173857143Y-74500000D01*
X173904762Y-74547619D01*
X173952381Y-74642857D01*
X173952381Y-74785714D01*
X173904762Y-74880952D01*
X173857143Y-74928571D01*
X173761905Y-74976190D01*
X173380952Y-74976190D01*
X174285714Y-74452381D02*
X174523809Y-75452381D01*
X174714286Y-74738095D01*
X174904762Y-75452381D01*
X175142857Y-74452381D01*
X176095238Y-75452381D02*
X175761904Y-74976190D01*
X175523809Y-75452381D02*
X175523809Y-74452381D01*
X175904762Y-74452381D01*
X176000000Y-74500000D01*
X176047619Y-74547619D01*
X176095238Y-74642857D01*
X176095238Y-74785714D01*
X176047619Y-74880952D01*
X176000000Y-74928571D01*
X175904762Y-74976190D01*
X175523809Y-74976190D01*
X176476190Y-75404762D02*
X176619047Y-75452381D01*
X176857143Y-75452381D01*
X176952381Y-75404762D01*
X177000000Y-75357143D01*
X177047619Y-75261905D01*
X177047619Y-75166667D01*
X177000000Y-75071429D01*
X176952381Y-75023810D01*
X176857143Y-74976190D01*
X176666666Y-74928571D01*
X176571428Y-74880952D01*
X176523809Y-74833333D01*
X176476190Y-74738095D01*
X176476190Y-74642857D01*
X176523809Y-74547619D01*
X176571428Y-74500000D01*
X176666666Y-74452381D01*
X176904762Y-74452381D01*
X177047619Y-74500000D01*
X177476190Y-75452381D02*
X177476190Y-74452381D01*
X177857143Y-74452381D01*
X177952381Y-74500000D01*
X178000000Y-74547619D01*
X178047619Y-74642857D01*
X178047619Y-74785714D01*
X178000000Y-74880952D01*
X177952381Y-74928571D01*
X177857143Y-74976190D01*
X177476190Y-74976190D01*
X178952381Y-75452381D02*
X178476190Y-75452381D01*
X178476190Y-74452381D01*
X179476190Y-74976190D02*
X179476190Y-75452381D01*
X179142857Y-74452381D02*
X179476190Y-74976190D01*
X179809524Y-74452381D01*
X180666667Y-75452381D02*
X180095238Y-75452381D01*
X180380952Y-75452381D02*
X180380952Y-74452381D01*
X180285714Y-74595238D01*
X180190476Y-74690476D01*
X180095238Y-74738095D01*
X168357143Y-98834762D02*
X168500000Y-98882381D01*
X168738096Y-98882381D01*
X168833334Y-98834762D01*
X168880953Y-98787143D01*
X168928572Y-98691905D01*
X168928572Y-98596667D01*
X168880953Y-98501429D01*
X168833334Y-98453810D01*
X168738096Y-98406190D01*
X168547619Y-98358571D01*
X168452381Y-98310952D01*
X168404762Y-98263333D01*
X168357143Y-98168095D01*
X168357143Y-98072857D01*
X168404762Y-97977619D01*
X168452381Y-97930000D01*
X168547619Y-97882381D01*
X168785715Y-97882381D01*
X168928572Y-97930000D01*
X169357143Y-97882381D02*
X169357143Y-98691905D01*
X169404762Y-98787143D01*
X169452381Y-98834762D01*
X169547619Y-98882381D01*
X169738096Y-98882381D01*
X169833334Y-98834762D01*
X169880953Y-98787143D01*
X169928572Y-98691905D01*
X169928572Y-97882381D01*
X170404762Y-98882381D02*
X170404762Y-97882381D01*
X170785715Y-97882381D01*
X170880953Y-97930000D01*
X170928572Y-97977619D01*
X170976191Y-98072857D01*
X170976191Y-98215714D01*
X170928572Y-98310952D01*
X170880953Y-98358571D01*
X170785715Y-98406190D01*
X170404762Y-98406190D01*
X171404762Y-98882381D02*
X171404762Y-97882381D01*
X171785715Y-97882381D01*
X171880953Y-97930000D01*
X171928572Y-97977619D01*
X171976191Y-98072857D01*
X171976191Y-98215714D01*
X171928572Y-98310952D01*
X171880953Y-98358571D01*
X171785715Y-98406190D01*
X171404762Y-98406190D01*
X172880953Y-98882381D02*
X172404762Y-98882381D01*
X172404762Y-97882381D01*
X173404762Y-98406190D02*
X173404762Y-98882381D01*
X173071429Y-97882381D02*
X173404762Y-98406190D01*
X173738096Y-97882381D01*
X179786905Y-91611667D02*
X180263096Y-91611667D01*
X179691667Y-91897381D02*
X180025000Y-90897381D01*
X180358334Y-91897381D01*
X181263096Y-91802143D02*
X181215477Y-91849762D01*
X181072620Y-91897381D01*
X180977382Y-91897381D01*
X180834524Y-91849762D01*
X180739286Y-91754524D01*
X180691667Y-91659286D01*
X180644048Y-91468810D01*
X180644048Y-91325952D01*
X180691667Y-91135476D01*
X180739286Y-91040238D01*
X180834524Y-90945000D01*
X180977382Y-90897381D01*
X181072620Y-90897381D01*
X181215477Y-90945000D01*
X181263096Y-90992619D01*
X153619048Y-79071429D02*
X154380953Y-79071429D01*
X154000001Y-79452381D02*
X154000001Y-78690476D01*
X153619048Y-89071429D02*
X154380953Y-89071429D01*
X142333334Y-116952381D02*
X142000000Y-116476190D01*
X141761905Y-116952381D02*
X141761905Y-115952381D01*
X142142858Y-115952381D01*
X142238096Y-116000000D01*
X142285715Y-116047619D01*
X142333334Y-116142857D01*
X142333334Y-116285714D01*
X142285715Y-116380952D01*
X142238096Y-116428571D01*
X142142858Y-116476190D01*
X141761905Y-116476190D01*
X143285715Y-116952381D02*
X142714286Y-116952381D01*
X143000000Y-116952381D02*
X143000000Y-115952381D01*
X142904762Y-116095238D01*
X142809524Y-116190476D01*
X142714286Y-116238095D01*
X141333334Y-122952381D02*
X140761905Y-122952381D01*
X141047619Y-122952381D02*
X141047619Y-121952381D01*
X140952381Y-122095238D01*
X140857143Y-122190476D01*
X140761905Y-122238095D01*
X141952381Y-121952381D02*
X142047620Y-121952381D01*
X142142858Y-122000000D01*
X142190477Y-122047619D01*
X142238096Y-122142857D01*
X142285715Y-122333333D01*
X142285715Y-122571429D01*
X142238096Y-122761905D01*
X142190477Y-122857143D01*
X142142858Y-122904762D01*
X142047620Y-122952381D01*
X141952381Y-122952381D01*
X141857143Y-122904762D01*
X141809524Y-122857143D01*
X141761905Y-122761905D01*
X141714286Y-122571429D01*
X141714286Y-122333333D01*
X141761905Y-122142857D01*
X141809524Y-122047619D01*
X141857143Y-122000000D01*
X141952381Y-121952381D01*
X142904762Y-121952381D02*
X143000001Y-121952381D01*
X143095239Y-122000000D01*
X143142858Y-122047619D01*
X143190477Y-122142857D01*
X143238096Y-122333333D01*
X143238096Y-122571429D01*
X143190477Y-122761905D01*
X143142858Y-122857143D01*
X143095239Y-122904762D01*
X143000001Y-122952381D01*
X142904762Y-122952381D01*
X142809524Y-122904762D01*
X142761905Y-122857143D01*
X142714286Y-122761905D01*
X142666667Y-122571429D01*
X142666667Y-122333333D01*
X142714286Y-122142857D01*
X142761905Y-122047619D01*
X142809524Y-122000000D01*
X142904762Y-121952381D01*
X143666667Y-122952381D02*
X143666667Y-121952381D01*
X144238096Y-122952381D02*
X143809524Y-122380952D01*
X144238096Y-121952381D02*
X143666667Y-122523810D01*
X171833334Y-106452381D02*
X171500000Y-105976190D01*
X171261905Y-106452381D02*
X171261905Y-105452381D01*
X171642858Y-105452381D01*
X171738096Y-105500000D01*
X171785715Y-105547619D01*
X171833334Y-105642857D01*
X171833334Y-105785714D01*
X171785715Y-105880952D01*
X171738096Y-105928571D01*
X171642858Y-105976190D01*
X171261905Y-105976190D01*
X172214286Y-105547619D02*
X172261905Y-105500000D01*
X172357143Y-105452381D01*
X172595239Y-105452381D01*
X172690477Y-105500000D01*
X172738096Y-105547619D01*
X172785715Y-105642857D01*
X172785715Y-105738095D01*
X172738096Y-105880952D01*
X172166667Y-106452381D01*
X172785715Y-106452381D01*
X174483334Y-104452381D02*
X173911905Y-104452381D01*
X174197619Y-104452381D02*
X174197619Y-103452381D01*
X174102381Y-103595238D01*
X174007143Y-103690476D01*
X173911905Y-103738095D01*
X175102381Y-103452381D02*
X175197620Y-103452381D01*
X175292858Y-103500000D01*
X175340477Y-103547619D01*
X175388096Y-103642857D01*
X175435715Y-103833333D01*
X175435715Y-104071429D01*
X175388096Y-104261905D01*
X175340477Y-104357143D01*
X175292858Y-104404762D01*
X175197620Y-104452381D01*
X175102381Y-104452381D01*
X175007143Y-104404762D01*
X174959524Y-104357143D01*
X174911905Y-104261905D01*
X174864286Y-104071429D01*
X174864286Y-103833333D01*
X174911905Y-103642857D01*
X174959524Y-103547619D01*
X175007143Y-103500000D01*
X175102381Y-103452381D01*
X176054762Y-103452381D02*
X176150001Y-103452381D01*
X176245239Y-103500000D01*
X176292858Y-103547619D01*
X176340477Y-103642857D01*
X176388096Y-103833333D01*
X176388096Y-104071429D01*
X176340477Y-104261905D01*
X176292858Y-104357143D01*
X176245239Y-104404762D01*
X176150001Y-104452381D01*
X176054762Y-104452381D01*
X175959524Y-104404762D01*
X175911905Y-104357143D01*
X175864286Y-104261905D01*
X175816667Y-104071429D01*
X175816667Y-103833333D01*
X175864286Y-103642857D01*
X175911905Y-103547619D01*
X175959524Y-103500000D01*
X176054762Y-103452381D01*
X176816667Y-104452381D02*
X176816667Y-103452381D01*
X177388096Y-104452381D02*
X176959524Y-103880952D01*
X177388096Y-103452381D02*
X176816667Y-104023810D01*
X171833334Y-109452381D02*
X171500000Y-108976190D01*
X171261905Y-109452381D02*
X171261905Y-108452381D01*
X171642858Y-108452381D01*
X171738096Y-108500000D01*
X171785715Y-108547619D01*
X171833334Y-108642857D01*
X171833334Y-108785714D01*
X171785715Y-108880952D01*
X171738096Y-108928571D01*
X171642858Y-108976190D01*
X171261905Y-108976190D01*
X172166667Y-108452381D02*
X172785715Y-108452381D01*
X172452381Y-108833333D01*
X172595239Y-108833333D01*
X172690477Y-108880952D01*
X172738096Y-108928571D01*
X172785715Y-109023810D01*
X172785715Y-109261905D01*
X172738096Y-109357143D01*
X172690477Y-109404762D01*
X172595239Y-109452381D01*
X172309524Y-109452381D01*
X172214286Y-109404762D01*
X172166667Y-109357143D01*
X174364286Y-110452381D02*
X174983334Y-110452381D01*
X174650000Y-110833333D01*
X174792858Y-110833333D01*
X174888096Y-110880952D01*
X174935715Y-110928571D01*
X174983334Y-111023810D01*
X174983334Y-111261905D01*
X174935715Y-111357143D01*
X174888096Y-111404762D01*
X174792858Y-111452381D01*
X174507143Y-111452381D01*
X174411905Y-111404762D01*
X174364286Y-111357143D01*
X175316667Y-110452381D02*
X175935715Y-110452381D01*
X175602381Y-110833333D01*
X175745239Y-110833333D01*
X175840477Y-110880952D01*
X175888096Y-110928571D01*
X175935715Y-111023810D01*
X175935715Y-111261905D01*
X175888096Y-111357143D01*
X175840477Y-111404762D01*
X175745239Y-111452381D01*
X175459524Y-111452381D01*
X175364286Y-111404762D01*
X175316667Y-111357143D01*
X176554762Y-110452381D02*
X176650001Y-110452381D01*
X176745239Y-110500000D01*
X176792858Y-110547619D01*
X176840477Y-110642857D01*
X176888096Y-110833333D01*
X176888096Y-111071429D01*
X176840477Y-111261905D01*
X176792858Y-111357143D01*
X176745239Y-111404762D01*
X176650001Y-111452381D01*
X176554762Y-111452381D01*
X176459524Y-111404762D01*
X176411905Y-111357143D01*
X176364286Y-111261905D01*
X176316667Y-111071429D01*
X176316667Y-110833333D01*
X176364286Y-110642857D01*
X176411905Y-110547619D01*
X176459524Y-110500000D01*
X176554762Y-110452381D01*
X122833334Y-63452381D02*
X122500000Y-62976190D01*
X122261905Y-63452381D02*
X122261905Y-62452381D01*
X122642858Y-62452381D01*
X122738096Y-62500000D01*
X122785715Y-62547619D01*
X122833334Y-62642857D01*
X122833334Y-62785714D01*
X122785715Y-62880952D01*
X122738096Y-62928571D01*
X122642858Y-62976190D01*
X122261905Y-62976190D01*
X123690477Y-62785714D02*
X123690477Y-63452381D01*
X123452381Y-62404762D02*
X123214286Y-63119048D01*
X123833334Y-63119048D01*
X121714286Y-55452381D02*
X122333334Y-55452381D01*
X122000000Y-55833333D01*
X122142858Y-55833333D01*
X122238096Y-55880952D01*
X122285715Y-55928571D01*
X122333334Y-56023810D01*
X122333334Y-56261905D01*
X122285715Y-56357143D01*
X122238096Y-56404762D01*
X122142858Y-56452381D01*
X121857143Y-56452381D01*
X121761905Y-56404762D01*
X121714286Y-56357143D01*
X122666667Y-55452381D02*
X123285715Y-55452381D01*
X122952381Y-55833333D01*
X123095239Y-55833333D01*
X123190477Y-55880952D01*
X123238096Y-55928571D01*
X123285715Y-56023810D01*
X123285715Y-56261905D01*
X123238096Y-56357143D01*
X123190477Y-56404762D01*
X123095239Y-56452381D01*
X122809524Y-56452381D01*
X122714286Y-56404762D01*
X122666667Y-56357143D01*
X123904762Y-55452381D02*
X124000001Y-55452381D01*
X124095239Y-55500000D01*
X124142858Y-55547619D01*
X124190477Y-55642857D01*
X124238096Y-55833333D01*
X124238096Y-56071429D01*
X124190477Y-56261905D01*
X124142858Y-56357143D01*
X124095239Y-56404762D01*
X124000001Y-56452381D01*
X123904762Y-56452381D01*
X123809524Y-56404762D01*
X123761905Y-56357143D01*
X123714286Y-56261905D01*
X123666667Y-56071429D01*
X123666667Y-55833333D01*
X123714286Y-55642857D01*
X123761905Y-55547619D01*
X123809524Y-55500000D01*
X123904762Y-55452381D01*
X127833334Y-63452381D02*
X127500000Y-62976190D01*
X127261905Y-63452381D02*
X127261905Y-62452381D01*
X127642858Y-62452381D01*
X127738096Y-62500000D01*
X127785715Y-62547619D01*
X127833334Y-62642857D01*
X127833334Y-62785714D01*
X127785715Y-62880952D01*
X127738096Y-62928571D01*
X127642858Y-62976190D01*
X127261905Y-62976190D01*
X128738096Y-62452381D02*
X128261905Y-62452381D01*
X128214286Y-62928571D01*
X128261905Y-62880952D01*
X128357143Y-62833333D01*
X128595239Y-62833333D01*
X128690477Y-62880952D01*
X128738096Y-62928571D01*
X128785715Y-63023810D01*
X128785715Y-63261905D01*
X128738096Y-63357143D01*
X128690477Y-63404762D01*
X128595239Y-63452381D01*
X128357143Y-63452381D01*
X128261905Y-63404762D01*
X128214286Y-63357143D01*
X126714286Y-55452381D02*
X127333334Y-55452381D01*
X127000000Y-55833333D01*
X127142858Y-55833333D01*
X127238096Y-55880952D01*
X127285715Y-55928571D01*
X127333334Y-56023810D01*
X127333334Y-56261905D01*
X127285715Y-56357143D01*
X127238096Y-56404762D01*
X127142858Y-56452381D01*
X126857143Y-56452381D01*
X126761905Y-56404762D01*
X126714286Y-56357143D01*
X127666667Y-55452381D02*
X128285715Y-55452381D01*
X127952381Y-55833333D01*
X128095239Y-55833333D01*
X128190477Y-55880952D01*
X128238096Y-55928571D01*
X128285715Y-56023810D01*
X128285715Y-56261905D01*
X128238096Y-56357143D01*
X128190477Y-56404762D01*
X128095239Y-56452381D01*
X127809524Y-56452381D01*
X127714286Y-56404762D01*
X127666667Y-56357143D01*
X128904762Y-55452381D02*
X129000001Y-55452381D01*
X129095239Y-55500000D01*
X129142858Y-55547619D01*
X129190477Y-55642857D01*
X129238096Y-55833333D01*
X129238096Y-56071429D01*
X129190477Y-56261905D01*
X129142858Y-56357143D01*
X129095239Y-56404762D01*
X129000001Y-56452381D01*
X128904762Y-56452381D01*
X128809524Y-56404762D01*
X128761905Y-56357143D01*
X128714286Y-56261905D01*
X128666667Y-56071429D01*
X128666667Y-55833333D01*
X128714286Y-55642857D01*
X128761905Y-55547619D01*
X128809524Y-55500000D01*
X128904762Y-55452381D01*
X178666667Y-102404762D02*
X178809524Y-102452381D01*
X179047620Y-102452381D01*
X179142858Y-102404762D01*
X179190477Y-102357143D01*
X179238096Y-102261905D01*
X179238096Y-102166667D01*
X179190477Y-102071429D01*
X179142858Y-102023810D01*
X179047620Y-101976190D01*
X178857143Y-101928571D01*
X178761905Y-101880952D01*
X178714286Y-101833333D01*
X178666667Y-101738095D01*
X178666667Y-101642857D01*
X178714286Y-101547619D01*
X178761905Y-101500000D01*
X178857143Y-101452381D01*
X179095239Y-101452381D01*
X179238096Y-101500000D01*
X179571429Y-101452381D02*
X179809524Y-102452381D01*
X180000001Y-101738095D01*
X180190477Y-102452381D01*
X180428572Y-101452381D01*
X181333334Y-102452381D02*
X180761905Y-102452381D01*
X181047619Y-102452381D02*
X181047619Y-101452381D01*
X180952381Y-101595238D01*
X180857143Y-101690476D01*
X180761905Y-101738095D01*
X123926667Y-37404762D02*
X124069524Y-37452381D01*
X124307620Y-37452381D01*
X124402858Y-37404762D01*
X124450477Y-37357143D01*
X124498096Y-37261905D01*
X124498096Y-37166667D01*
X124450477Y-37071429D01*
X124402858Y-37023810D01*
X124307620Y-36976190D01*
X124117143Y-36928571D01*
X124021905Y-36880952D01*
X123974286Y-36833333D01*
X123926667Y-36738095D01*
X123926667Y-36642857D01*
X123974286Y-36547619D01*
X124021905Y-36500000D01*
X124117143Y-36452381D01*
X124355239Y-36452381D01*
X124498096Y-36500000D01*
X124831429Y-36452381D02*
X125069524Y-37452381D01*
X125260001Y-36738095D01*
X125450477Y-37452381D01*
X125688572Y-36452381D01*
X126021905Y-36547619D02*
X126069524Y-36500000D01*
X126164762Y-36452381D01*
X126402858Y-36452381D01*
X126498096Y-36500000D01*
X126545715Y-36547619D01*
X126593334Y-36642857D01*
X126593334Y-36738095D01*
X126545715Y-36880952D01*
X125974286Y-37452381D01*
X126593334Y-37452381D01*
X121238096Y-39452381D02*
X120666667Y-39452381D01*
X120952381Y-39452381D02*
X120952381Y-38452381D01*
X120857143Y-38595238D01*
X120761905Y-38690476D01*
X120666667Y-38738095D01*
X121666667Y-39071429D02*
X122428572Y-39071429D01*
X123428572Y-39452381D02*
X122857143Y-39452381D01*
X123142857Y-39452381D02*
X123142857Y-38452381D01*
X123047619Y-38595238D01*
X122952381Y-38690476D01*
X122857143Y-38738095D01*
X124000000Y-38880952D02*
X123904762Y-38833333D01*
X123857143Y-38785714D01*
X123809524Y-38690476D01*
X123809524Y-38642857D01*
X123857143Y-38547619D01*
X123904762Y-38500000D01*
X124000000Y-38452381D01*
X124190477Y-38452381D01*
X124285715Y-38500000D01*
X124333334Y-38547619D01*
X124380953Y-38642857D01*
X124380953Y-38690476D01*
X124333334Y-38785714D01*
X124285715Y-38833333D01*
X124190477Y-38880952D01*
X124000000Y-38880952D01*
X123904762Y-38928571D01*
X123857143Y-38976190D01*
X123809524Y-39071429D01*
X123809524Y-39261905D01*
X123857143Y-39357143D01*
X123904762Y-39404762D01*
X124000000Y-39452381D01*
X124190477Y-39452381D01*
X124285715Y-39404762D01*
X124333334Y-39357143D01*
X124380953Y-39261905D01*
X124380953Y-39071429D01*
X124333334Y-38976190D01*
X124285715Y-38928571D01*
X124190477Y-38880952D01*
X124761905Y-38547619D02*
X124809524Y-38500000D01*
X124904762Y-38452381D01*
X125142858Y-38452381D01*
X125238096Y-38500000D01*
X125285715Y-38547619D01*
X125333334Y-38642857D01*
X125333334Y-38738095D01*
X125285715Y-38880952D01*
X124714286Y-39452381D01*
X125333334Y-39452381D01*
X126238096Y-38452381D02*
X125761905Y-38452381D01*
X125714286Y-38928571D01*
X125761905Y-38880952D01*
X125857143Y-38833333D01*
X126095239Y-38833333D01*
X126190477Y-38880952D01*
X126238096Y-38928571D01*
X126285715Y-39023810D01*
X126285715Y-39261905D01*
X126238096Y-39357143D01*
X126190477Y-39404762D01*
X126095239Y-39452381D01*
X125857143Y-39452381D01*
X125761905Y-39404762D01*
X125714286Y-39357143D01*
X126904762Y-38452381D02*
X127000001Y-38452381D01*
X127095239Y-38500000D01*
X127142858Y-38547619D01*
X127190477Y-38642857D01*
X127238096Y-38833333D01*
X127238096Y-39071429D01*
X127190477Y-39261905D01*
X127142858Y-39357143D01*
X127095239Y-39404762D01*
X127000001Y-39452381D01*
X126904762Y-39452381D01*
X126809524Y-39404762D01*
X126761905Y-39357143D01*
X126714286Y-39261905D01*
X126666667Y-39071429D01*
X126666667Y-38833333D01*
X126714286Y-38642857D01*
X126761905Y-38547619D01*
X126809524Y-38500000D01*
X126904762Y-38452381D01*
X127619048Y-38547619D02*
X127666667Y-38500000D01*
X127761905Y-38452381D01*
X128000001Y-38452381D01*
X128095239Y-38500000D01*
X128142858Y-38547619D01*
X128190477Y-38642857D01*
X128190477Y-38738095D01*
X128142858Y-38880952D01*
X127571429Y-39452381D01*
X128190477Y-39452381D01*
X128523810Y-38452381D02*
X129190477Y-38452381D01*
X128761905Y-39452381D01*
X129571429Y-39071429D02*
X130333334Y-39071429D01*
X131333334Y-39452381D02*
X130761905Y-39452381D01*
X131047619Y-39452381D02*
X131047619Y-38452381D01*
X130952381Y-38595238D01*
X130857143Y-38690476D01*
X130761905Y-38738095D01*
X134988095Y-139202381D02*
X134988095Y-140011905D01*
X135035714Y-140107143D01*
X135083333Y-140154762D01*
X135178571Y-140202381D01*
X135369048Y-140202381D01*
X135464286Y-140154762D01*
X135511905Y-140107143D01*
X135559524Y-140011905D01*
X135559524Y-139202381D01*
X136559524Y-140202381D02*
X135988095Y-140202381D01*
X136273809Y-140202381D02*
X136273809Y-139202381D01*
X136178571Y-139345238D01*
X136083333Y-139440476D01*
X135988095Y-139488095D01*
X134659524Y-136502381D02*
X135326191Y-136502381D01*
X134897619Y-137502381D01*
X136135715Y-136835714D02*
X136135715Y-137502381D01*
X135897619Y-136454762D02*
X135659524Y-137169048D01*
X136278572Y-137169048D01*
X136611905Y-137216667D02*
X137088096Y-137216667D01*
X136516667Y-137502381D02*
X136850000Y-136502381D01*
X137183334Y-137502381D01*
X137516667Y-136502381D02*
X137516667Y-137311905D01*
X137564286Y-137407143D01*
X137611905Y-137454762D01*
X137707143Y-137502381D01*
X137897620Y-137502381D01*
X137992858Y-137454762D01*
X138040477Y-137407143D01*
X138088096Y-137311905D01*
X138088096Y-136502381D01*
X139135715Y-137407143D02*
X139088096Y-137454762D01*
X138945239Y-137502381D01*
X138850001Y-137502381D01*
X138707143Y-137454762D01*
X138611905Y-137359524D01*
X138564286Y-137264286D01*
X138516667Y-137073810D01*
X138516667Y-136930952D01*
X138564286Y-136740476D01*
X138611905Y-136645238D01*
X138707143Y-136550000D01*
X138850001Y-136502381D01*
X138945239Y-136502381D01*
X139088096Y-136550000D01*
X139135715Y-136597619D01*
X140088096Y-137502381D02*
X139516667Y-137502381D01*
X139802381Y-137502381D02*
X139802381Y-136502381D01*
X139707143Y-136645238D01*
X139611905Y-136740476D01*
X139516667Y-136788095D01*
X141040477Y-136550000D02*
X140945239Y-136502381D01*
X140802382Y-136502381D01*
X140659524Y-136550000D01*
X140564286Y-136645238D01*
X140516667Y-136740476D01*
X140469048Y-136930952D01*
X140469048Y-137073810D01*
X140516667Y-137264286D01*
X140564286Y-137359524D01*
X140659524Y-137454762D01*
X140802382Y-137502381D01*
X140897620Y-137502381D01*
X141040477Y-137454762D01*
X141088096Y-137407143D01*
X141088096Y-137073810D01*
X140897620Y-137073810D01*
X141945239Y-136502381D02*
X141754762Y-136502381D01*
X141659524Y-136550000D01*
X141611905Y-136597619D01*
X141516667Y-136740476D01*
X141469048Y-136930952D01*
X141469048Y-137311905D01*
X141516667Y-137407143D01*
X141564286Y-137454762D01*
X141659524Y-137502381D01*
X141850001Y-137502381D01*
X141945239Y-137454762D01*
X141992858Y-137407143D01*
X142040477Y-137311905D01*
X142040477Y-137073810D01*
X141992858Y-136978571D01*
X141945239Y-136930952D01*
X141850001Y-136883333D01*
X141659524Y-136883333D01*
X141564286Y-136930952D01*
X141516667Y-136978571D01*
X141469048Y-137073810D01*
X142897620Y-136502381D02*
X142707143Y-136502381D01*
X142611905Y-136550000D01*
X142564286Y-136597619D01*
X142469048Y-136740476D01*
X142421429Y-136930952D01*
X142421429Y-137311905D01*
X142469048Y-137407143D01*
X142516667Y-137454762D01*
X142611905Y-137502381D01*
X142802382Y-137502381D01*
X142897620Y-137454762D01*
X142945239Y-137407143D01*
X142992858Y-137311905D01*
X142992858Y-137073810D01*
X142945239Y-136978571D01*
X142897620Y-136930952D01*
X142802382Y-136883333D01*
X142611905Y-136883333D01*
X142516667Y-136930952D01*
X142469048Y-136978571D01*
X142421429Y-137073810D01*
X134988095Y-144452381D02*
X134988095Y-145261905D01*
X135035714Y-145357143D01*
X135083333Y-145404762D01*
X135178571Y-145452381D01*
X135369048Y-145452381D01*
X135464286Y-145404762D01*
X135511905Y-145357143D01*
X135559524Y-145261905D01*
X135559524Y-144452381D01*
X135988095Y-144547619D02*
X136035714Y-144500000D01*
X136130952Y-144452381D01*
X136369048Y-144452381D01*
X136464286Y-144500000D01*
X136511905Y-144547619D01*
X136559524Y-144642857D01*
X136559524Y-144738095D01*
X136511905Y-144880952D01*
X135940476Y-145452381D01*
X136559524Y-145452381D01*
X134809524Y-147452381D02*
X135476191Y-147452381D01*
X135047619Y-148452381D01*
X136285715Y-147785714D02*
X136285715Y-148452381D01*
X136047619Y-147404762D02*
X135809524Y-148119048D01*
X136428572Y-148119048D01*
X136761905Y-148166667D02*
X137238096Y-148166667D01*
X136666667Y-148452381D02*
X137000000Y-147452381D01*
X137333334Y-148452381D01*
X137666667Y-147452381D02*
X137666667Y-148261905D01*
X137714286Y-148357143D01*
X137761905Y-148404762D01*
X137857143Y-148452381D01*
X138047620Y-148452381D01*
X138142858Y-148404762D01*
X138190477Y-148357143D01*
X138238096Y-148261905D01*
X138238096Y-147452381D01*
X139285715Y-148357143D02*
X139238096Y-148404762D01*
X139095239Y-148452381D01*
X139000001Y-148452381D01*
X138857143Y-148404762D01*
X138761905Y-148309524D01*
X138714286Y-148214286D01*
X138666667Y-148023810D01*
X138666667Y-147880952D01*
X138714286Y-147690476D01*
X138761905Y-147595238D01*
X138857143Y-147500000D01*
X139000001Y-147452381D01*
X139095239Y-147452381D01*
X139238096Y-147500000D01*
X139285715Y-147547619D01*
X140238096Y-148452381D02*
X139666667Y-148452381D01*
X139952381Y-148452381D02*
X139952381Y-147452381D01*
X139857143Y-147595238D01*
X139761905Y-147690476D01*
X139666667Y-147738095D01*
X141190477Y-147500000D02*
X141095239Y-147452381D01*
X140952382Y-147452381D01*
X140809524Y-147500000D01*
X140714286Y-147595238D01*
X140666667Y-147690476D01*
X140619048Y-147880952D01*
X140619048Y-148023810D01*
X140666667Y-148214286D01*
X140714286Y-148309524D01*
X140809524Y-148404762D01*
X140952382Y-148452381D01*
X141047620Y-148452381D01*
X141190477Y-148404762D01*
X141238096Y-148357143D01*
X141238096Y-148023810D01*
X141047620Y-148023810D01*
X142095239Y-147452381D02*
X141904762Y-147452381D01*
X141809524Y-147500000D01*
X141761905Y-147547619D01*
X141666667Y-147690476D01*
X141619048Y-147880952D01*
X141619048Y-148261905D01*
X141666667Y-148357143D01*
X141714286Y-148404762D01*
X141809524Y-148452381D01*
X142000001Y-148452381D01*
X142095239Y-148404762D01*
X142142858Y-148357143D01*
X142190477Y-148261905D01*
X142190477Y-148023810D01*
X142142858Y-147928571D01*
X142095239Y-147880952D01*
X142000001Y-147833333D01*
X141809524Y-147833333D01*
X141714286Y-147880952D01*
X141666667Y-147928571D01*
X141619048Y-148023810D01*
X143047620Y-147452381D02*
X142857143Y-147452381D01*
X142761905Y-147500000D01*
X142714286Y-147547619D01*
X142619048Y-147690476D01*
X142571429Y-147880952D01*
X142571429Y-148261905D01*
X142619048Y-148357143D01*
X142666667Y-148404762D01*
X142761905Y-148452381D01*
X142952382Y-148452381D01*
X143047620Y-148404762D01*
X143095239Y-148357143D01*
X143142858Y-148261905D01*
X143142858Y-148023810D01*
X143095239Y-147928571D01*
X143047620Y-147880952D01*
X142952382Y-147833333D01*
X142761905Y-147833333D01*
X142666667Y-147880952D01*
X142619048Y-147928571D01*
X142571429Y-148023810D01*
X133738095Y-64452381D02*
X133738095Y-65261905D01*
X133785714Y-65357143D01*
X133833333Y-65404762D01*
X133928571Y-65452381D01*
X134119048Y-65452381D01*
X134214286Y-65404762D01*
X134261905Y-65357143D01*
X134309524Y-65261905D01*
X134309524Y-64452381D01*
X135261905Y-64452381D02*
X134785714Y-64452381D01*
X134738095Y-64928571D01*
X134785714Y-64880952D01*
X134880952Y-64833333D01*
X135119048Y-64833333D01*
X135214286Y-64880952D01*
X135261905Y-64928571D01*
X135309524Y-65023810D01*
X135309524Y-65261905D01*
X135261905Y-65357143D01*
X135214286Y-65404762D01*
X135119048Y-65452381D01*
X134880952Y-65452381D01*
X134785714Y-65404762D01*
X134738095Y-65357143D01*
X132857143Y-70666667D02*
X133333334Y-70666667D01*
X132761905Y-70952381D02*
X133095238Y-69952381D01*
X133428572Y-70952381D01*
X134285715Y-70952381D02*
X133714286Y-70952381D01*
X134000000Y-70952381D02*
X134000000Y-69952381D01*
X133904762Y-70095238D01*
X133809524Y-70190476D01*
X133714286Y-70238095D01*
X134619048Y-69952381D02*
X135238096Y-69952381D01*
X134904762Y-70333333D01*
X135047620Y-70333333D01*
X135142858Y-70380952D01*
X135190477Y-70428571D01*
X135238096Y-70523810D01*
X135238096Y-70761905D01*
X135190477Y-70857143D01*
X135142858Y-70904762D01*
X135047620Y-70952381D01*
X134761905Y-70952381D01*
X134666667Y-70904762D01*
X134619048Y-70857143D01*
X135619048Y-70047619D02*
X135666667Y-70000000D01*
X135761905Y-69952381D01*
X136000001Y-69952381D01*
X136095239Y-70000000D01*
X136142858Y-70047619D01*
X136190477Y-70142857D01*
X136190477Y-70238095D01*
X136142858Y-70380952D01*
X135571429Y-70952381D01*
X136190477Y-70952381D01*
X137047620Y-70285714D02*
X137047620Y-70952381D01*
X136809524Y-69904762D02*
X136571429Y-70619048D01*
X137190477Y-70619048D01*
X143238095Y-66952381D02*
X143238095Y-67761905D01*
X143285714Y-67857143D01*
X143333333Y-67904762D01*
X143428571Y-67952381D01*
X143619048Y-67952381D01*
X143714286Y-67904762D01*
X143761905Y-67857143D01*
X143809524Y-67761905D01*
X143809524Y-66952381D01*
X144714286Y-66952381D02*
X144523809Y-66952381D01*
X144428571Y-67000000D01*
X144380952Y-67047619D01*
X144285714Y-67190476D01*
X144238095Y-67380952D01*
X144238095Y-67761905D01*
X144285714Y-67857143D01*
X144333333Y-67904762D01*
X144428571Y-67952381D01*
X144619048Y-67952381D01*
X144714286Y-67904762D01*
X144761905Y-67857143D01*
X144809524Y-67761905D01*
X144809524Y-67523810D01*
X144761905Y-67428571D01*
X144714286Y-67380952D01*
X144619048Y-67333333D01*
X144428571Y-67333333D01*
X144333333Y-67380952D01*
X144285714Y-67428571D01*
X144238095Y-67523810D01*
X142857143Y-73166667D02*
X143333334Y-73166667D01*
X142761905Y-73452381D02*
X143095238Y-72452381D01*
X143428572Y-73452381D01*
X144285715Y-73452381D02*
X143714286Y-73452381D01*
X144000000Y-73452381D02*
X144000000Y-72452381D01*
X143904762Y-72595238D01*
X143809524Y-72690476D01*
X143714286Y-72738095D01*
X144619048Y-72452381D02*
X145238096Y-72452381D01*
X144904762Y-72833333D01*
X145047620Y-72833333D01*
X145142858Y-72880952D01*
X145190477Y-72928571D01*
X145238096Y-73023810D01*
X145238096Y-73261905D01*
X145190477Y-73357143D01*
X145142858Y-73404762D01*
X145047620Y-73452381D01*
X144761905Y-73452381D01*
X144666667Y-73404762D01*
X144619048Y-73357143D01*
X145619048Y-72547619D02*
X145666667Y-72500000D01*
X145761905Y-72452381D01*
X146000001Y-72452381D01*
X146095239Y-72500000D01*
X146142858Y-72547619D01*
X146190477Y-72642857D01*
X146190477Y-72738095D01*
X146142858Y-72880952D01*
X145571429Y-73452381D01*
X146190477Y-73452381D01*
X147047620Y-72785714D02*
X147047620Y-73452381D01*
X146809524Y-72404762D02*
X146571429Y-73119048D01*
X147190477Y-73119048D01*
X181345238Y-69452381D02*
X181583333Y-70452381D01*
X181773810Y-69738095D01*
X181964286Y-70452381D01*
X182202381Y-69452381D01*
X183107143Y-70452381D02*
X182535714Y-70452381D01*
X182821428Y-70452381D02*
X182821428Y-69452381D01*
X182726190Y-69595238D01*
X182630952Y-69690476D01*
X182535714Y-69738095D01*
X176345239Y-70452381D02*
X175869048Y-70452381D01*
X175869048Y-69452381D01*
X176678572Y-70452381D02*
X176678572Y-69452381D01*
X177154762Y-70452381D02*
X177154762Y-69452381D01*
X177726191Y-70452381D01*
X177726191Y-69452381D01*
X178202381Y-69928571D02*
X178535715Y-69928571D01*
X178678572Y-70452381D02*
X178202381Y-70452381D01*
X178202381Y-69452381D01*
X178678572Y-69452381D01*
X181345238Y-53452381D02*
X181583333Y-54452381D01*
X181773810Y-53738095D01*
X181964286Y-54452381D01*
X182202381Y-53452381D01*
X182535714Y-53547619D02*
X182583333Y-53500000D01*
X182678571Y-53452381D01*
X182916667Y-53452381D01*
X183011905Y-53500000D01*
X183059524Y-53547619D01*
X183107143Y-53642857D01*
X183107143Y-53738095D01*
X183059524Y-53880952D01*
X182488095Y-54452381D01*
X183107143Y-54452381D01*
X172523809Y-54452381D02*
X172523809Y-53452381D01*
X173095238Y-54452381D01*
X173095238Y-53452381D01*
X173571428Y-53928571D02*
X173904762Y-53928571D01*
X174047619Y-54452381D02*
X173571428Y-54452381D01*
X173571428Y-53452381D01*
X174047619Y-53452381D01*
X174476190Y-53452381D02*
X174476190Y-54261905D01*
X174523809Y-54357143D01*
X174571428Y-54404762D01*
X174666666Y-54452381D01*
X174857143Y-54452381D01*
X174952381Y-54404762D01*
X175000000Y-54357143D01*
X175047619Y-54261905D01*
X175047619Y-53452381D01*
X175380952Y-53452381D02*
X175952381Y-53452381D01*
X175666666Y-54452381D02*
X175666666Y-53452381D01*
X176857143Y-54452381D02*
X176523809Y-53976190D01*
X176285714Y-54452381D02*
X176285714Y-53452381D01*
X176666667Y-53452381D01*
X176761905Y-53500000D01*
X176809524Y-53547619D01*
X176857143Y-53642857D01*
X176857143Y-53785714D01*
X176809524Y-53880952D01*
X176761905Y-53928571D01*
X176666667Y-53976190D01*
X176285714Y-53976190D01*
X177238095Y-54166667D02*
X177714286Y-54166667D01*
X177142857Y-54452381D02*
X177476190Y-53452381D01*
X177809524Y-54452381D01*
X178619048Y-54452381D02*
X178142857Y-54452381D01*
X178142857Y-53452381D01*
X133095238Y-118452381D02*
X133333333Y-119452381D01*
X133523810Y-118738095D01*
X133714286Y-119452381D01*
X133952381Y-118452381D01*
X134238095Y-118452381D02*
X134857143Y-118452381D01*
X134523809Y-118833333D01*
X134666667Y-118833333D01*
X134761905Y-118880952D01*
X134809524Y-118928571D01*
X134857143Y-119023810D01*
X134857143Y-119261905D01*
X134809524Y-119357143D01*
X134761905Y-119404762D01*
X134666667Y-119452381D01*
X134380952Y-119452381D01*
X134285714Y-119404762D01*
X134238095Y-119357143D01*
X135261905Y-121452381D02*
X135261905Y-120452381D01*
X135500000Y-120452381D01*
X135642858Y-120500000D01*
X135738096Y-120595238D01*
X135785715Y-120690476D01*
X135833334Y-120880952D01*
X135833334Y-121023810D01*
X135785715Y-121214286D01*
X135738096Y-121309524D01*
X135642858Y-121404762D01*
X135500000Y-121452381D01*
X135261905Y-121452381D01*
X136738096Y-120452381D02*
X136261905Y-120452381D01*
X136214286Y-120928571D01*
X136261905Y-120880952D01*
X136357143Y-120833333D01*
X136595239Y-120833333D01*
X136690477Y-120880952D01*
X136738096Y-120928571D01*
X136785715Y-121023810D01*
X136785715Y-121261905D01*
X136738096Y-121357143D01*
X136690477Y-121404762D01*
X136595239Y-121452381D01*
X136357143Y-121452381D01*
X136261905Y-121404762D01*
X136214286Y-121357143D01*
X121095238Y-87952381D02*
X121333333Y-88952381D01*
X121523810Y-88238095D01*
X121714286Y-88952381D01*
X121952381Y-87952381D01*
X122761905Y-88285714D02*
X122761905Y-88952381D01*
X122523809Y-87904762D02*
X122285714Y-88619048D01*
X122904762Y-88619048D01*
X123928572Y-90857143D02*
X123880953Y-90904762D01*
X123738096Y-90952381D01*
X123642858Y-90952381D01*
X123500000Y-90904762D01*
X123404762Y-90809524D01*
X123357143Y-90714286D01*
X123309524Y-90523810D01*
X123309524Y-90380952D01*
X123357143Y-90190476D01*
X123404762Y-90095238D01*
X123500000Y-90000000D01*
X123642858Y-89952381D01*
X123738096Y-89952381D01*
X123880953Y-90000000D01*
X123928572Y-90047619D01*
X124928572Y-90952381D02*
X124595238Y-90476190D01*
X124357143Y-90952381D02*
X124357143Y-89952381D01*
X124738096Y-89952381D01*
X124833334Y-90000000D01*
X124880953Y-90047619D01*
X124928572Y-90142857D01*
X124928572Y-90285714D01*
X124880953Y-90380952D01*
X124833334Y-90428571D01*
X124738096Y-90476190D01*
X124357143Y-90476190D01*
X125357143Y-90952381D02*
X125357143Y-89952381D01*
X125928572Y-90952381D01*
X125928572Y-89952381D01*
X126261905Y-89952381D02*
X126833334Y-89952381D01*
X126547619Y-90952381D02*
X126547619Y-89952381D01*
X127690477Y-90952381D02*
X127119048Y-90952381D01*
X127404762Y-90952381D02*
X127404762Y-89952381D01*
X127309524Y-90095238D01*
X127214286Y-90190476D01*
X127119048Y-90238095D01*
X120595238Y-91952381D02*
X120833333Y-92952381D01*
X121023810Y-92238095D01*
X121214286Y-92952381D01*
X121452381Y-91952381D01*
X122309524Y-91952381D02*
X121833333Y-91952381D01*
X121785714Y-92428571D01*
X121833333Y-92380952D01*
X121928571Y-92333333D01*
X122166667Y-92333333D01*
X122261905Y-92380952D01*
X122309524Y-92428571D01*
X122357143Y-92523810D01*
X122357143Y-92761905D01*
X122309524Y-92857143D01*
X122261905Y-92904762D01*
X122166667Y-92952381D01*
X121928571Y-92952381D01*
X121833333Y-92904762D01*
X121785714Y-92857143D01*
X125678572Y-92857143D02*
X125630953Y-92904762D01*
X125488096Y-92952381D01*
X125392858Y-92952381D01*
X125250000Y-92904762D01*
X125154762Y-92809524D01*
X125107143Y-92714286D01*
X125059524Y-92523810D01*
X125059524Y-92380952D01*
X125107143Y-92190476D01*
X125154762Y-92095238D01*
X125250000Y-92000000D01*
X125392858Y-91952381D01*
X125488096Y-91952381D01*
X125630953Y-92000000D01*
X125678572Y-92047619D01*
X126678572Y-92952381D02*
X126345238Y-92476190D01*
X126107143Y-92952381D02*
X126107143Y-91952381D01*
X126488096Y-91952381D01*
X126583334Y-92000000D01*
X126630953Y-92047619D01*
X126678572Y-92142857D01*
X126678572Y-92285714D01*
X126630953Y-92380952D01*
X126583334Y-92428571D01*
X126488096Y-92476190D01*
X126107143Y-92476190D01*
X127107143Y-92952381D02*
X127107143Y-91952381D01*
X127678572Y-92952381D01*
X127678572Y-91952381D01*
X128011905Y-91952381D02*
X128583334Y-91952381D01*
X128297619Y-92952381D02*
X128297619Y-91952381D01*
X128869048Y-92047619D02*
X128916667Y-92000000D01*
X129011905Y-91952381D01*
X129250001Y-91952381D01*
X129345239Y-92000000D01*
X129392858Y-92047619D01*
X129440477Y-92142857D01*
X129440477Y-92238095D01*
X129392858Y-92380952D01*
X128821429Y-92952381D01*
X129440477Y-92952381D01*
X126833334Y-123402381D02*
X126500000Y-122926190D01*
X126261905Y-123402381D02*
X126261905Y-122402381D01*
X126642858Y-122402381D01*
X126738096Y-122450000D01*
X126785715Y-122497619D01*
X126833334Y-122592857D01*
X126833334Y-122735714D01*
X126785715Y-122830952D01*
X126738096Y-122878571D01*
X126642858Y-122926190D01*
X126261905Y-122926190D01*
X127690477Y-122402381D02*
X127500000Y-122402381D01*
X127404762Y-122450000D01*
X127357143Y-122497619D01*
X127261905Y-122640476D01*
X127214286Y-122830952D01*
X127214286Y-123211905D01*
X127261905Y-123307143D01*
X127309524Y-123354762D01*
X127404762Y-123402381D01*
X127595239Y-123402381D01*
X127690477Y-123354762D01*
X127738096Y-123307143D01*
X127785715Y-123211905D01*
X127785715Y-122973810D01*
X127738096Y-122878571D01*
X127690477Y-122830952D01*
X127595239Y-122783333D01*
X127404762Y-122783333D01*
X127309524Y-122830952D01*
X127261905Y-122878571D01*
X127214286Y-122973810D01*
X125809524Y-129652381D02*
X125238095Y-129652381D01*
X125523809Y-129652381D02*
X125523809Y-128652381D01*
X125428571Y-128795238D01*
X125333333Y-128890476D01*
X125238095Y-128938095D01*
X126428571Y-128652381D02*
X126523810Y-128652381D01*
X126619048Y-128700000D01*
X126666667Y-128747619D01*
X126714286Y-128842857D01*
X126761905Y-129033333D01*
X126761905Y-129271429D01*
X126714286Y-129461905D01*
X126666667Y-129557143D01*
X126619048Y-129604762D01*
X126523810Y-129652381D01*
X126428571Y-129652381D01*
X126333333Y-129604762D01*
X126285714Y-129557143D01*
X126238095Y-129461905D01*
X126190476Y-129271429D01*
X126190476Y-129033333D01*
X126238095Y-128842857D01*
X126285714Y-128747619D01*
X126333333Y-128700000D01*
X126428571Y-128652381D01*
X127190476Y-129652381D02*
X127190476Y-128652381D01*
X127761905Y-129652381D02*
X127333333Y-129080952D01*
X127761905Y-128652381D02*
X127190476Y-129223810D01*
X131083334Y-123652381D02*
X130750000Y-123176190D01*
X130511905Y-123652381D02*
X130511905Y-122652381D01*
X130892858Y-122652381D01*
X130988096Y-122700000D01*
X131035715Y-122747619D01*
X131083334Y-122842857D01*
X131083334Y-122985714D01*
X131035715Y-123080952D01*
X130988096Y-123128571D01*
X130892858Y-123176190D01*
X130511905Y-123176190D01*
X131416667Y-122652381D02*
X132083334Y-122652381D01*
X131654762Y-123652381D01*
X130559524Y-129902381D02*
X129988095Y-129902381D01*
X130273809Y-129902381D02*
X130273809Y-128902381D01*
X130178571Y-129045238D01*
X130083333Y-129140476D01*
X129988095Y-129188095D01*
X131178571Y-128902381D02*
X131273810Y-128902381D01*
X131369048Y-128950000D01*
X131416667Y-128997619D01*
X131464286Y-129092857D01*
X131511905Y-129283333D01*
X131511905Y-129521429D01*
X131464286Y-129711905D01*
X131416667Y-129807143D01*
X131369048Y-129854762D01*
X131273810Y-129902381D01*
X131178571Y-129902381D01*
X131083333Y-129854762D01*
X131035714Y-129807143D01*
X130988095Y-129711905D01*
X130940476Y-129521429D01*
X130940476Y-129283333D01*
X130988095Y-129092857D01*
X131035714Y-128997619D01*
X131083333Y-128950000D01*
X131178571Y-128902381D01*
X131940476Y-129902381D02*
X131940476Y-128902381D01*
X132511905Y-129902381D02*
X132083333Y-129330952D01*
X132511905Y-128902381D02*
X131940476Y-129473810D01*
X160333334Y-130702381D02*
X160000000Y-130226190D01*
X159761905Y-130702381D02*
X159761905Y-129702381D01*
X160142858Y-129702381D01*
X160238096Y-129750000D01*
X160285715Y-129797619D01*
X160333334Y-129892857D01*
X160333334Y-130035714D01*
X160285715Y-130130952D01*
X160238096Y-130178571D01*
X160142858Y-130226190D01*
X159761905Y-130226190D01*
X160904762Y-130130952D02*
X160809524Y-130083333D01*
X160761905Y-130035714D01*
X160714286Y-129940476D01*
X160714286Y-129892857D01*
X160761905Y-129797619D01*
X160809524Y-129750000D01*
X160904762Y-129702381D01*
X161095239Y-129702381D01*
X161190477Y-129750000D01*
X161238096Y-129797619D01*
X161285715Y-129892857D01*
X161285715Y-129940476D01*
X161238096Y-130035714D01*
X161190477Y-130083333D01*
X161095239Y-130130952D01*
X160904762Y-130130952D01*
X160809524Y-130178571D01*
X160761905Y-130226190D01*
X160714286Y-130321429D01*
X160714286Y-130511905D01*
X160761905Y-130607143D01*
X160809524Y-130654762D01*
X160904762Y-130702381D01*
X161095239Y-130702381D01*
X161190477Y-130654762D01*
X161238096Y-130607143D01*
X161285715Y-130511905D01*
X161285715Y-130321429D01*
X161238096Y-130226190D01*
X161190477Y-130178571D01*
X161095239Y-130130952D01*
X161202381Y-138190476D02*
X161202381Y-138761905D01*
X161202381Y-138476191D02*
X160202381Y-138476191D01*
X160345238Y-138571429D01*
X160440476Y-138666667D01*
X160488095Y-138761905D01*
X160202381Y-137571429D02*
X160202381Y-137476190D01*
X160250000Y-137380952D01*
X160297619Y-137333333D01*
X160392857Y-137285714D01*
X160583333Y-137238095D01*
X160821429Y-137238095D01*
X161011905Y-137285714D01*
X161107143Y-137333333D01*
X161154762Y-137380952D01*
X161202381Y-137476190D01*
X161202381Y-137571429D01*
X161154762Y-137666667D01*
X161107143Y-137714286D01*
X161011905Y-137761905D01*
X160821429Y-137809524D01*
X160583333Y-137809524D01*
X160392857Y-137761905D01*
X160297619Y-137714286D01*
X160250000Y-137666667D01*
X160202381Y-137571429D01*
X161202381Y-136809524D02*
X160202381Y-136809524D01*
X161202381Y-136238095D02*
X160630952Y-136666667D01*
X160202381Y-136238095D02*
X160773810Y-136809524D01*
X157833334Y-130702381D02*
X157500000Y-130226190D01*
X157261905Y-130702381D02*
X157261905Y-129702381D01*
X157642858Y-129702381D01*
X157738096Y-129750000D01*
X157785715Y-129797619D01*
X157833334Y-129892857D01*
X157833334Y-130035714D01*
X157785715Y-130130952D01*
X157738096Y-130178571D01*
X157642858Y-130226190D01*
X157261905Y-130226190D01*
X158309524Y-130702381D02*
X158500000Y-130702381D01*
X158595239Y-130654762D01*
X158642858Y-130607143D01*
X158738096Y-130464286D01*
X158785715Y-130273810D01*
X158785715Y-129892857D01*
X158738096Y-129797619D01*
X158690477Y-129750000D01*
X158595239Y-129702381D01*
X158404762Y-129702381D01*
X158309524Y-129750000D01*
X158261905Y-129797619D01*
X158214286Y-129892857D01*
X158214286Y-130130952D01*
X158261905Y-130226190D01*
X158309524Y-130273810D01*
X158404762Y-130321429D01*
X158595239Y-130321429D01*
X158690477Y-130273810D01*
X158738096Y-130226190D01*
X158785715Y-130130952D01*
X158452381Y-138440476D02*
X158452381Y-139011905D01*
X158452381Y-138726191D02*
X157452381Y-138726191D01*
X157595238Y-138821429D01*
X157690476Y-138916667D01*
X157738095Y-139011905D01*
X157452381Y-137821429D02*
X157452381Y-137726190D01*
X157500000Y-137630952D01*
X157547619Y-137583333D01*
X157642857Y-137535714D01*
X157833333Y-137488095D01*
X158071429Y-137488095D01*
X158261905Y-137535714D01*
X158357143Y-137583333D01*
X158404762Y-137630952D01*
X158452381Y-137726190D01*
X158452381Y-137821429D01*
X158404762Y-137916667D01*
X158357143Y-137964286D01*
X158261905Y-138011905D01*
X158071429Y-138059524D01*
X157833333Y-138059524D01*
X157642857Y-138011905D01*
X157547619Y-137964286D01*
X157500000Y-137916667D01*
X157452381Y-137821429D01*
X158452381Y-137059524D02*
X157452381Y-137059524D01*
X158452381Y-136488095D02*
X157880952Y-136916667D01*
X157452381Y-136488095D02*
X158023810Y-137059524D01*
X162607143Y-130702381D02*
X162273809Y-130226190D01*
X162035714Y-130702381D02*
X162035714Y-129702381D01*
X162416667Y-129702381D01*
X162511905Y-129750000D01*
X162559524Y-129797619D01*
X162607143Y-129892857D01*
X162607143Y-130035714D01*
X162559524Y-130130952D01*
X162511905Y-130178571D01*
X162416667Y-130226190D01*
X162035714Y-130226190D01*
X163559524Y-130702381D02*
X162988095Y-130702381D01*
X163273809Y-130702381D02*
X163273809Y-129702381D01*
X163178571Y-129845238D01*
X163083333Y-129940476D01*
X162988095Y-129988095D01*
X164178571Y-129702381D02*
X164273810Y-129702381D01*
X164369048Y-129750000D01*
X164416667Y-129797619D01*
X164464286Y-129892857D01*
X164511905Y-130083333D01*
X164511905Y-130321429D01*
X164464286Y-130511905D01*
X164416667Y-130607143D01*
X164369048Y-130654762D01*
X164273810Y-130702381D01*
X164178571Y-130702381D01*
X164083333Y-130654762D01*
X164035714Y-130607143D01*
X163988095Y-130511905D01*
X163940476Y-130321429D01*
X163940476Y-130083333D01*
X163988095Y-129892857D01*
X164035714Y-129797619D01*
X164083333Y-129750000D01*
X164178571Y-129702381D01*
X163452381Y-138190476D02*
X163452381Y-138761905D01*
X163452381Y-138476191D02*
X162452381Y-138476191D01*
X162595238Y-138571429D01*
X162690476Y-138666667D01*
X162738095Y-138761905D01*
X162452381Y-137571429D02*
X162452381Y-137476190D01*
X162500000Y-137380952D01*
X162547619Y-137333333D01*
X162642857Y-137285714D01*
X162833333Y-137238095D01*
X163071429Y-137238095D01*
X163261905Y-137285714D01*
X163357143Y-137333333D01*
X163404762Y-137380952D01*
X163452381Y-137476190D01*
X163452381Y-137571429D01*
X163404762Y-137666667D01*
X163357143Y-137714286D01*
X163261905Y-137761905D01*
X163071429Y-137809524D01*
X162833333Y-137809524D01*
X162642857Y-137761905D01*
X162547619Y-137714286D01*
X162500000Y-137666667D01*
X162452381Y-137571429D01*
X163452381Y-136809524D02*
X162452381Y-136809524D01*
X163452381Y-136238095D02*
X162880952Y-136666667D01*
X162452381Y-136238095D02*
X163023810Y-136809524D01*
X154607143Y-130702381D02*
X154273809Y-130226190D01*
X154035714Y-130702381D02*
X154035714Y-129702381D01*
X154416667Y-129702381D01*
X154511905Y-129750000D01*
X154559524Y-129797619D01*
X154607143Y-129892857D01*
X154607143Y-130035714D01*
X154559524Y-130130952D01*
X154511905Y-130178571D01*
X154416667Y-130226190D01*
X154035714Y-130226190D01*
X155559524Y-130702381D02*
X154988095Y-130702381D01*
X155273809Y-130702381D02*
X155273809Y-129702381D01*
X155178571Y-129845238D01*
X155083333Y-129940476D01*
X154988095Y-129988095D01*
X156511905Y-130702381D02*
X155940476Y-130702381D01*
X156226190Y-130702381D02*
X156226190Y-129702381D01*
X156130952Y-129845238D01*
X156035714Y-129940476D01*
X155940476Y-129988095D01*
X155952381Y-138290476D02*
X155952381Y-138861905D01*
X155952381Y-138576191D02*
X154952381Y-138576191D01*
X155095238Y-138671429D01*
X155190476Y-138766667D01*
X155238095Y-138861905D01*
X154952381Y-137671429D02*
X154952381Y-137576190D01*
X155000000Y-137480952D01*
X155047619Y-137433333D01*
X155142857Y-137385714D01*
X155333333Y-137338095D01*
X155571429Y-137338095D01*
X155761905Y-137385714D01*
X155857143Y-137433333D01*
X155904762Y-137480952D01*
X155952381Y-137576190D01*
X155952381Y-137671429D01*
X155904762Y-137766667D01*
X155857143Y-137814286D01*
X155761905Y-137861905D01*
X155571429Y-137909524D01*
X155333333Y-137909524D01*
X155142857Y-137861905D01*
X155047619Y-137814286D01*
X155000000Y-137766667D01*
X154952381Y-137671429D01*
X155952381Y-136909524D02*
X154952381Y-136909524D01*
X155952381Y-136338095D02*
X155380952Y-136766667D01*
X154952381Y-136338095D02*
X155523810Y-136909524D01*
X165857143Y-130702381D02*
X165523809Y-130226190D01*
X165285714Y-130702381D02*
X165285714Y-129702381D01*
X165666667Y-129702381D01*
X165761905Y-129750000D01*
X165809524Y-129797619D01*
X165857143Y-129892857D01*
X165857143Y-130035714D01*
X165809524Y-130130952D01*
X165761905Y-130178571D01*
X165666667Y-130226190D01*
X165285714Y-130226190D01*
X166809524Y-130702381D02*
X166238095Y-130702381D01*
X166523809Y-130702381D02*
X166523809Y-129702381D01*
X166428571Y-129845238D01*
X166333333Y-129940476D01*
X166238095Y-129988095D01*
X167190476Y-129797619D02*
X167238095Y-129750000D01*
X167333333Y-129702381D01*
X167571429Y-129702381D01*
X167666667Y-129750000D01*
X167714286Y-129797619D01*
X167761905Y-129892857D01*
X167761905Y-129988095D01*
X167714286Y-130130952D01*
X167142857Y-130702381D01*
X167761905Y-130702381D01*
X166202381Y-138190476D02*
X166202381Y-138761905D01*
X166202381Y-138476191D02*
X165202381Y-138476191D01*
X165345238Y-138571429D01*
X165440476Y-138666667D01*
X165488095Y-138761905D01*
X165202381Y-137571429D02*
X165202381Y-137476190D01*
X165250000Y-137380952D01*
X165297619Y-137333333D01*
X165392857Y-137285714D01*
X165583333Y-137238095D01*
X165821429Y-137238095D01*
X166011905Y-137285714D01*
X166107143Y-137333333D01*
X166154762Y-137380952D01*
X166202381Y-137476190D01*
X166202381Y-137571429D01*
X166154762Y-137666667D01*
X166107143Y-137714286D01*
X166011905Y-137761905D01*
X165821429Y-137809524D01*
X165583333Y-137809524D01*
X165392857Y-137761905D01*
X165297619Y-137714286D01*
X165250000Y-137666667D01*
X165202381Y-137571429D01*
X166202381Y-136809524D02*
X165202381Y-136809524D01*
X166202381Y-136238095D02*
X165630952Y-136666667D01*
X165202381Y-136238095D02*
X165773810Y-136809524D01*
M02*
