M48
;DRILL file {KiCad 4.0.5} date 01/03/17 14:16:20
;FORMAT={-:-/ absolute / metric / decimal}
FMAT,2
METRIC,TZ
T1C0.300
T2C0.450
T3C0.700
T4C0.762
T5C0.800
T6C0.990
T7C1.000
T8C1.016
T9C1.020
T10C1.270
T11C1.300
T12C1.349
T13C1.600
T14C1.700
T15C2.500
T16C3.200
%
G90
G05
M71
T1
X132.5Y-140.5
X134.Y-145.
X136.Y-140.5
X137.Y-145.
X139.Y-145.
X141.5Y-138.5
X145.5Y-120.5
X146.Y-119.5
X148.5Y-121.
X149.5Y-121.
X156.25Y-116.5
X156.5Y-115.
X157.5Y-123.75
X159.25Y-123.75
T2
X121.625Y-84.
X123.Y-63.
X123.5Y-50.5
X123.5Y-86.5
X124.5Y-61.
X126.5Y-61.
X128.Y-83.
X128.Y-84.
X128.Y-86.
X132.Y-130.
X136.Y-135.
X136.Y-144.
X137.Y-138.
X142.Y-105.5
X142.Y-106.5
X142.5Y-104.5
X144.Y-107.5
X144.Y-104.5
X144.5Y-120.
X154.Y-98.5
X154.Y-100.
X155.Y-104.5
X156.5Y-99.879
X157.Y-118.25
X157.5Y-100.
T3
X184.75Y-102.75
X184.75Y-104.75
X184.75Y-106.75
X184.75Y-108.75
T4
X180.Y-65.5
T5
X134.Y-121.
X180.Y-54.
X180.Y-70.
T6
X123.26Y-34.49
X127.76Y-34.49
T7
X133.38Y-59.58
X138.46Y-59.58
X146.08Y-59.58
X148.62Y-59.58
X153.5Y-139.5
X154.38Y-59.58
X159.46Y-59.58
X160.Y-102.
X167.08Y-59.58
X169.62Y-59.58
T8
X160.46Y-113.92
X160.46Y-116.46
X160.46Y-119.
X160.46Y-121.54
X163.Y-113.92
X163.Y-116.46
X163.Y-119.
X163.Y-121.54
T9
X121.06Y-96.11
X121.06Y-113.89
X123.6Y-96.11
X123.6Y-113.89
X126.14Y-96.11
X126.14Y-113.89
X128.68Y-96.11
X128.68Y-113.89
X131.22Y-96.11
X131.22Y-113.89
X133.76Y-96.11
X133.76Y-113.89
X136.3Y-96.11
X136.3Y-113.89
X136.5Y-78.
X138.84Y-96.11
X138.84Y-113.89
X140.Y-78.
X141.38Y-96.11
X141.38Y-113.89
X143.92Y-96.11
X143.92Y-113.89
X146.46Y-96.11
X146.46Y-113.89
X149.Y-96.11
X149.Y-113.89
X180.Y-58.5
X180.Y-62.
T10
X157.284Y-79.101
X157.284Y-89.007
X184.716Y-89.184
X184.716Y-94.493
T11
X122.Y-32.
X129.01Y-32.
T12
X150.999Y-68.
X155.997Y-68.
X166.Y-68.
X170.999Y-68.
T13
X138.25Y-80.3
X177.7Y-60.25
T14
X148.Y-138.
X148.Y-145.
T15
X126.Y-45.5
X126.Y-74.5
X126.Y-132.5
X170.Y-74.5
X170.Y-103.5
X170.Y-132.5
T16
X141.Y-34.
X162.Y-34.
T0
M30
