G04 #@! TF.FileFunction,Soldermask,Top*
%FSLAX46Y46*%
G04 Gerber Fmt 4.6, Leading zero omitted, Abs format (unit mm)*
G04 Created by KiCad (PCBNEW 4.0.5) date 01/03/17 14:11:24*
%MOMM*%
%LPD*%
G01*
G04 APERTURE LIST*
%ADD10C,0.100000*%
%ADD11C,3.000000*%
%ADD12C,2.000000*%
%ADD13C,3.200000*%
%ADD14C,1.900000*%
%ADD15O,1.727200X1.727200*%
%ADD16R,1.727200X1.727200*%
%ADD17C,2.500000*%
%ADD18R,1.000000X1.250000*%
%ADD19R,1.250000X1.500000*%
%ADD20R,1.198880X1.198880*%
%ADD21C,2.349500*%
%ADD22R,2.800000X2.200000*%
%ADD23C,1.750000*%
%ADD24C,1.524000*%
%ADD25C,2.540000*%
%ADD26R,1.300000X1.500000*%
%ADD27R,1.500000X1.300000*%
%ADD28R,1.700000X1.200000*%
%ADD29O,1.700000X1.200000*%
%ADD30C,2.100000*%
%ADD31R,1.060000X0.650000*%
%ADD32R,0.900000X0.800000*%
%ADD33C,1.500000*%
G04 APERTURE END LIST*
D10*
D11*
X154380000Y-59580000D03*
X159460000Y-59580000D03*
D12*
X167080000Y-59580000D03*
X169620000Y-59580000D03*
D13*
X162000000Y-34000000D03*
D11*
X133380000Y-59580000D03*
X138460000Y-59580000D03*
D12*
X146080000Y-59580000D03*
X148620000Y-59580000D03*
D13*
X141000000Y-34000000D03*
D14*
X149000000Y-96110000D03*
X146460000Y-96110000D03*
X143920000Y-96110000D03*
X141380000Y-96110000D03*
X138840000Y-96110000D03*
X136300000Y-96110000D03*
X133760000Y-96110000D03*
X131220000Y-96110000D03*
X128680000Y-96110000D03*
X126140000Y-96110000D03*
X123600000Y-96110000D03*
X121060000Y-96110000D03*
X149000000Y-113890000D03*
X146460000Y-113890000D03*
X143920000Y-113890000D03*
X141380000Y-113890000D03*
X138840000Y-113890000D03*
X136300000Y-113890000D03*
X133760000Y-113890000D03*
X131220000Y-113890000D03*
X128680000Y-113890000D03*
X126140000Y-113890000D03*
X123600000Y-113890000D03*
X121060000Y-113890000D03*
D15*
X160460000Y-121540000D03*
X163000000Y-121540000D03*
X160460000Y-119000000D03*
X163000000Y-119000000D03*
X160460000Y-116460000D03*
X163000000Y-116460000D03*
D16*
X160460000Y-113920000D03*
D15*
X163000000Y-113920000D03*
D17*
X126000000Y-45500000D03*
X170000000Y-103500000D03*
X126000000Y-74500000D03*
X170000000Y-74500000D03*
X170000000Y-132500000D03*
D18*
X161000000Y-110000000D03*
X163000000Y-110000000D03*
D19*
X130000000Y-66000000D03*
X130000000Y-68500000D03*
X140000000Y-69000000D03*
X140000000Y-71500000D03*
D20*
X123000000Y-54000000D03*
X123000000Y-51901960D03*
X128000000Y-54000000D03*
X128000000Y-51901960D03*
D21*
X155997480Y-68000000D03*
X150998760Y-68000000D03*
X166000000Y-68000000D03*
X170998720Y-68000000D03*
D22*
X151700000Y-136700000D03*
X144300000Y-144200000D03*
X151700000Y-146100000D03*
D12*
X148000000Y-145000000D03*
D22*
X151700000Y-148900000D03*
D12*
X148000000Y-138000000D03*
D23*
X180000000Y-58500000D03*
X180000000Y-62000000D03*
X177700000Y-60250000D03*
D24*
X180000000Y-65500000D03*
D23*
X136500000Y-78000000D03*
X140000000Y-78000000D03*
X138250000Y-80300000D03*
D25*
X184716000Y-94493000D03*
X184716000Y-89184400D03*
X157284000Y-89006600D03*
X157284000Y-79100600D03*
D26*
X142500000Y-118000000D03*
X142500000Y-120700000D03*
D27*
X174300000Y-106000000D03*
X177000000Y-106000000D03*
X177000000Y-109000000D03*
X174300000Y-109000000D03*
D26*
X123000000Y-61000000D03*
X123000000Y-58300000D03*
X128000000Y-61000000D03*
X128000000Y-58300000D03*
D28*
X184750000Y-102750000D03*
D29*
X184750000Y-104750000D03*
X184750000Y-106750000D03*
X184750000Y-108750000D03*
D30*
X122000000Y-32000000D03*
D23*
X123260000Y-34490000D03*
X127760000Y-34490000D03*
D30*
X129010000Y-32000000D03*
D31*
X139950000Y-140900000D03*
X139950000Y-139950000D03*
X139950000Y-139000000D03*
X137750000Y-139000000D03*
X137750000Y-140900000D03*
X140100000Y-145700000D03*
X140100000Y-144750000D03*
X140100000Y-143800000D03*
X137900000Y-143800000D03*
X137900000Y-145700000D03*
D32*
X133500000Y-66550000D03*
X133500000Y-68450000D03*
X135500000Y-67500000D03*
X143000000Y-69050000D03*
X143000000Y-70950000D03*
X145000000Y-70000000D03*
D33*
X180000000Y-70000000D03*
X180000000Y-54000000D03*
X134000000Y-121000000D03*
D17*
X126000000Y-132500000D03*
D33*
X122000000Y-90500000D03*
X123750000Y-92500000D03*
D26*
X127000000Y-125000000D03*
X127000000Y-127700000D03*
X131250000Y-125000000D03*
X131250000Y-127700000D03*
X160500000Y-134950000D03*
X160500000Y-132250000D03*
X158000000Y-134950000D03*
X158000000Y-132250000D03*
X163000000Y-134950000D03*
X163000000Y-132250000D03*
X155500000Y-134950000D03*
X155500000Y-132250000D03*
X165750000Y-134950000D03*
X165750000Y-132250000D03*
M02*
